<svg xmlns="http://www.w3.org/2000/svg" viewBox="0 0 1200 800">
  <rect width="1200" height="800" fill="#dde7f7"/>
  <g fill="#b0c4de">
    <rect x="150" y="300" width="200" height="400"/>
    <rect x="400" y="250" width="250" height="450"/>
    <rect x="700" y="350" width="180" height="350"/>
  </g>
  <g fill="#ffffff" opacity="0.7">
    <rect x="180" y="330" width="40" height="40"/>
    <rect x="240" y="330" width="40" height="40"/>
    <rect x="180" y="390" width="40" height="40"/>
    <rect x="240" y="390" width="40" height="40"/>
    <rect x="430" y="280" width="40" height="40"/>
    <rect x="490" y="280" width="40" height="40"/>
    <rect x="550" y="280" width="40" height="40"/>
    <rect x="430" y="340" width="40" height="40"/>
    <rect x="490" y="340" width="40" height="40"/>
    <rect x="550" y="340" width="40" height="40"/>
    <rect x="730" y="380" width="40" height="40"/>
    <rect x="790" y="380" width="40" height="40"/>
    <rect x="730" y="440" width="40" height="40"/>
    <rect x="790" y="440" width="40" height="40"/>
  </g>
</svg>
