<svg xmlns="http://www.w3.org/2000/svg" xmlns:xlink="http://www.w3.org/1999/xlink" width="1018" zoomAndPan="magnify" viewBox="0 0 763.5 809.999993" height="1080" preserveAspectRatio="xMidYMid meet" version="1.2"><g id="8b10bee717"><path style=" stroke:none;fill-rule:evenodd;fill:#000000;fill-opacity:1;" d="M 660.320312 641.09375 C 670.738281 645.046875 680.125 651.121094 687.933594 658.796875 C 702.292969 672.925781 711.320312 692.488281 711.683594 714.171875 C 711.710938 715.914062 711.414062 717.5625 710.804688 719.109375 C 710.183594 720.664062 709.265625 722.0625 708.054688 723.292969 C 706.832031 724.523438 705.441406 725.480469 703.886719 726.136719 C 702.332031 726.785156 700.691406 727.117188 698.988281 727.117188 L 565.351562 727.117188 C 563.648438 727.117188 562.007812 726.785156 560.453125 726.136719 C 558.898438 725.488281 557.5 724.535156 556.285156 723.292969 C 555.074219 722.054688 554.15625 720.664062 553.535156 719.109375 C 552.917969 717.5625 552.621094 715.914062 552.648438 714.171875 C 553.007812 692.5 562.035156 672.925781 576.40625 658.796875 C 584.214844 651.121094 593.59375 645.046875 604.019531 641.09375 L 603.648438 640.722656 C 596.351562 633.425781 591.835938 623.335938 591.835938 612.207031 C 591.835938 601.066406 596.351562 590.984375 603.648438 583.6875 C 610.945312 576.390625 621.039062 571.875 632.171875 571.875 C 643.308594 571.875 653.394531 576.390625 660.691406 583.6875 C 667.988281 590.984375 672.503906 601.066406 672.503906 612.207031 C 672.503906 623.34375 667.988281 633.425781 660.691406 640.722656 Z M 251.632812 348.742188 L 257.160156 363.945312 C 257.328125 364.316406 257.464844 364.695312 257.566406 365.074219 L 357.046875 638.722656 C 357.175781 639.007812 357.285156 639.316406 357.371094 639.628906 L 362.945312 654.945312 C 363.914062 657.621094 365.90625 659.65625 368.3125 660.785156 C 370.722656 661.917969 373.566406 662.121094 376.242188 661.148438 L 376.25 661.148438 C 378.925781 660.175781 380.964844 658.183594 382.09375 655.769531 C 383.222656 653.359375 383.425781 650.519531 382.453125 647.832031 L 271.152344 341.640625 L 271.152344 341.632812 C 270.179688 338.957031 268.1875 336.917969 265.78125 335.789062 C 263.375 334.667969 260.53125 334.457031 257.847656 335.429688 L 257.835938 335.429688 C 255.160156 336.402344 253.113281 338.390625 251.992188 340.808594 C 250.863281 343.214844 250.660156 346.058594 251.632812 348.742188 Z M 362.945312 654.953125 Z M 347.398438 660.59375 L 343.703125 650.425781 C 341.777344 650.277344 339.792969 649.933594 337.785156 649.417969 C 291.457031 637.289062 255.207031 633.390625 218.660156 636.878906 C 194.269531 639.214844 169.546875 644.851562 141.480469 653.546875 L 182.242188 765.671875 C 185.148438 773.671875 184.277344 782.171875 180.535156 789.421875 C 176.898438 796.457031 170.507812 802.335938 162.265625 805.328125 C 154.027344 808.316406 145.378906 807.929688 138.082031 804.875 C 130.542969 801.714844 124.394531 795.746094 121.488281 787.734375 L 79.746094 672.898438 L 79.199219 672.960938 C 73.355469 673.609375 67.539062 673.554688 61.84375 672.839844 C 55.316406 672.027344 49.355469 669.371094 44.398438 665.25 C 39.558594 661.210938 35.742188 655.804688 33.417969 649.398438 L 2.582031 564.566406 C 0.257812 558.171875 -0.296875 551.585938 0.824219 545.402344 C 1.972656 539.070312 4.84375 533.199219 9.324219 528.382812 C 13.261719 524.152344 17.695312 520.355469 22.574219 517.117188 C 27.289062 513.976562 32.445312 511.355469 38 509.339844 C 86.457031 491.726562 122.21875 476.117188 152.664062 455.203125 C 182.917969 434.425781 208.1875 408.175781 235.902344 369.140625 C 237.09375 367.464844 238.402344 365.925781 239.800781 364.558594 L 236.09375 354.371094 C 233.566406 347.417969 234.113281 340.058594 237.03125 333.808594 C 239.945312 327.558594 245.242188 322.417969 252.199219 319.882812 L 252.207031 319.882812 C 259.152344 317.355469 266.523438 317.902344 272.773438 320.816406 C 279.015625 323.734375 284.164062 329.019531 286.691406 335.984375 L 323.542969 437.371094 C 335.515625 434.90625 347.636719 436.535156 358.210938 441.480469 C 371.109375 447.5 381.714844 458.441406 386.964844 472.867188 C 392.203125 487.285156 391.101562 502.488281 385.074219 515.382812 C 380.140625 525.957031 371.898438 534.984375 361.136719 540.792969 L 398 642.195312 C 400.527344 649.148438 399.984375 656.507812 397.054688 662.769531 C 394.140625 669.019531 388.84375 674.15625 381.890625 676.683594 L 381.878906 676.683594 C 374.925781 679.210938 367.5625 678.664062 361.3125 675.75 C 355.082031 672.851562 349.933594 667.554688 347.398438 660.59375 Z M 337.0625 632.15625 C 291.097656 620.511719 254.382812 616.863281 217.101562 620.425781 C 191.214844 622.898438 165.238281 628.84375 135.832031 637.992188 L 88.421875 507.570312 C 116.847656 495.699219 140.570312 483.582031 161.980469 468.878906 C 192.84375 447.675781 218.660156 421.296875 246.417969 382.835938 Z M 329.285156 453.175781 C 336.90625 452.101562 344.515625 453.332031 351.222656 456.46875 C 360.277344 460.703125 367.730469 468.386719 371.425781 478.535156 C 375.121094 488.683594 374.34375 499.367188 370.121094 508.421875 C 366.980469 515.132812 361.945312 520.976562 355.414062 525.042969 Z M 347.40625 660.601562 Z M 381.890625 676.703125 Z M 271.152344 341.640625 Z M 286.691406 336.003906 Z M 252.199219 319.890625 Z M 95.941406 669.046875 L 137.035156 782.105469 C 138.285156 785.558594 141.027344 788.171875 144.433594 789.597656 C 148.082031 791.125 152.441406 791.308594 156.628906 789.789062 C 160.8125 788.273438 164.027344 785.335938 165.832031 781.847656 C 167.527344 778.558594 167.953125 774.78125 166.703125 771.308594 L 125.738281 658.628906 C 116.273438 661.785156 106.394531 665.25 96.023438 669.027344 Z M 120.089844 643.074219 L 73.085938 513.773438 C 63.78125 517.441406 53.984375 521.117188 43.632812 524.875 C 39.371094 526.421875 35.382812 528.457031 31.707031 530.902344 C 27.9375 533.402344 24.5 536.347656 21.4375 539.644531 C 19.128906 542.113281 17.660156 545.105469 17.085938 548.308594 C 16.480469 551.652344 16.804688 555.300781 18.128906 558.929688 L 48.964844 643.757812 C 50.28125 647.390625 52.363281 650.390625 54.964844 652.546875 C 57.457031 654.621094 60.503906 655.972656 63.855469 656.386719 C 68.375 656.953125 72.910156 657.007812 77.382812 656.507812 C 81.773438 656.027344 86.132812 655.019531 90.382812 653.472656 C 100.738281 649.714844 110.597656 646.242188 120.089844 643.074219 Z M 45.472656 563.097656 L 66.429688 555.476562 C 70.726562 553.921875 72.9375 549.179688 71.382812 544.894531 C 69.828125 540.597656 65.085938 538.382812 60.789062 539.9375 L 39.84375 547.558594 C 35.546875 549.113281 33.335938 553.855469 34.890625 558.152344 C 36.4375 562.429688 41.179688 564.640625 45.472656 563.097656 Z M 72.890625 638.539062 L 93.839844 630.925781 C 98.125 629.371094 100.347656 624.628906 98.792969 620.335938 C 97.234375 616.046875 92.496094 613.824219 88.207031 615.382812 L 67.253906 622.992188 C 62.964844 624.546875 60.742188 629.289062 62.300781 633.582031 C 63.855469 637.871094 68.605469 640.09375 72.890625 638.539062 Z M 59.179688 600.816406 L 80.132812 593.195312 C 84.429688 591.640625 86.644531 586.902344 85.085938 582.605469 C 83.53125 578.316406 78.789062 576.09375 74.496094 577.652344 L 53.550781 585.269531 C 49.253906 586.828125 47.039062 591.566406 48.59375 595.863281 C 50.152344 600.148438 54.890625 602.371094 59.179688 600.816406 Z M 419.167969 469.980469 C 414.871094 471.535156 410.132812 469.3125 408.574219 465.027344 C 407.019531 460.738281 409.234375 455.988281 413.53125 454.441406 L 453.085938 440.0625 C 457.375 438.507812 462.125 440.722656 463.679688 445.015625 C 465.234375 449.304688 463.023438 454.054688 458.726562 455.609375 Z M 378.15625 416.074219 C 376.332031 420.257812 371.460938 422.175781 367.277344 420.34375 C 363.09375 418.519531 361.175781 413.648438 363.007812 409.460938 L 382.074219 365.925781 C 383.898438 361.742188 388.769531 359.824219 392.953125 361.660156 C 397.140625 363.484375 399.046875 368.351562 397.234375 372.539062 Z M 409.34375 536.910156 C 405.25 534.894531 403.566406 529.929688 405.585938 525.839844 C 407.601562 521.734375 412.566406 520.058594 416.660156 522.078125 L 459.234375 543.207031 C 463.328125 545.226562 465.011719 550.1875 462.996094 554.28125 C 460.976562 558.375 456.011719 560.058594 451.921875 558.039062 Z M 375.121094 32.949219 C 386.257812 32.949219 396.34375 37.46875 403.640625 44.761719 C 410.9375 52.058594 415.457031 62.152344 415.457031 73.28125 C 415.457031 84.417969 410.9375 94.503906 403.640625 101.796875 L 403.269531 102.167969 C 413.6875 106.121094 423.078125 112.195312 430.882812 119.871094 C 445.242188 134 454.28125 153.566406 454.632812 175.25 C 454.660156 176.988281 454.363281 178.636719 453.746094 180.183594 C 453.125 181.730469 452.207031 183.128906 450.996094 184.371094 C 449.773438 185.601562 448.382812 186.554688 446.828125 187.210938 C 445.273438 187.859375 443.632812 188.195312 441.929688 188.195312 L 308.3125 188.195312 C 306.609375 188.195312 304.96875 187.859375 303.414062 187.210938 C 301.855469 186.5625 300.460938 185.609375 299.253906 184.371094 C 298.042969 183.128906 297.117188 181.738281 296.503906 180.183594 C 295.886719 178.636719 295.589844 176.980469 295.617188 175.25 C 295.976562 153.574219 305.003906 134 319.375 119.871094 C 327.183594 112.195312 336.5625 106.113281 346.988281 102.167969 L 346.617188 101.796875 C 339.320312 94.503906 334.804688 84.410156 334.804688 73.28125 C 334.804688 62.144531 339.320312 52.058594 346.617188 44.761719 C 353.898438 37.46875 363.988281 32.949219 375.121094 32.949219 Z M 391.925781 56.484375 C 387.628906 52.1875 381.683594 49.53125 375.128906 49.53125 C 368.574219 49.53125 362.628906 52.1875 358.332031 56.484375 C 354.035156 60.78125 351.367188 66.726562 351.367188 73.28125 C 351.367188 79.835938 354.035156 85.78125 358.332031 90.078125 C 362.5625 94.308594 368.386719 96.945312 374.824219 97.03125 L 375.460938 97.03125 C 381.890625 96.9375 387.695312 94.296875 391.917969 90.078125 C 396.214844 85.78125 398.871094 79.835938 398.871094 73.28125 C 398.871094 66.726562 396.222656 60.78125 391.925781 56.484375 Z M 419.289062 131.667969 C 407.964844 120.539062 392.425781 113.660156 375.257812 113.621094 L 375 113.621094 C 357.832031 113.660156 342.285156 120.539062 330.96875 131.667969 C 320.441406 142.011719 313.535156 156.019531 312.320312 171.609375 L 437.957031 171.609375 C 436.726562 156.019531 429.816406 142.011719 419.289062 131.667969 Z M 375.121094 1.699219 C 340.628906 1.699219 309.402344 15.679688 286.800781 38.28125 C 264.199219 60.882812 250.214844 92.113281 250.214844 126.59375 C 250.214844 161.082031 264.199219 192.304688 286.800781 214.90625 C 309.402344 237.507812 340.628906 251.488281 375.121094 251.488281 C 409.613281 251.488281 440.835938 237.507812 463.4375 214.90625 C 486.042969 192.304688 500.023438 161.074219 500.023438 126.59375 C 500.023438 92.105469 486.042969 60.882812 463.4375 38.28125 C 440.84375 15.679688 409.613281 1.699219 375.121094 1.699219 Z M 451.714844 50.003906 C 432.113281 30.402344 405.027344 18.28125 375.121094 18.28125 C 345.210938 18.28125 318.125 30.414062 298.523438 50.003906 C 278.921875 69.605469 266.800781 96.6875 266.800781 126.59375 C 266.800781 156.5 278.921875 183.582031 298.523438 203.183594 C 318.125 222.785156 345.210938 234.90625 375.121094 234.90625 C 405.027344 234.90625 432.113281 222.785156 451.714844 203.183594 C 471.320312 183.582031 483.449219 156.5 483.449219 126.59375 C 483.449219 96.6875 471.320312 69.605469 451.714844 50.003906 Z M 506.496094 430.839844 C 501.292969 429.765625 496.617188 427.164062 492.988281 423.527344 L 492.949219 423.527344 C 488.105469 418.683594 485.097656 411.980469 485.097656 404.609375 L 485.097656 278.773438 C 485.097656 271.429688 488.105469 264.746094 492.96875 259.875 L 492.949219 259.855469 C 497.792969 255.015625 504.488281 251.996094 511.859375 251.996094 L 704.035156 251.996094 C 711.40625 251.996094 718.101562 255.003906 722.953125 259.855469 L 722.953125 259.894531 C 727.792969 264.746094 730.804688 271.429688 730.804688 278.773438 L 730.804688 282.875 L 735.960938 282.875 C 743.304688 282.875 749.992188 285.882812 754.84375 290.734375 L 754.871094 290.734375 C 759.722656 295.578125 762.722656 302.28125 762.722656 309.652344 L 762.722656 435.488281 C 762.722656 442.859375 759.714844 449.554688 754.871094 454.40625 L 754.851562 454.386719 C 751.203125 458.035156 746.527344 460.636719 741.324219 461.710938 L 741.324219 497.070312 C 741.324219 499.429688 740.621094 501.671875 739.339844 503.625 C 738.074219 505.550781 736.265625 507.097656 734.0625 508.042969 C 731.898438 508.96875 729.574219 509.21875 727.3125 508.8125 L 727.304688 508.839844 C 725.054688 508.441406 722.925781 507.386719 721.164062 505.710938 L 675.449219 462.257812 L 543.796875 462.257812 C 542.589844 462.257812 541.378906 462.171875 540.15625 461.996094 L 526.65625 474.839844 C 524.90625 476.507812 522.777344 477.5625 520.515625 477.96875 C 518.292969 478.367188 515.96875 478.109375 513.765625 477.164062 C 511.875 476.359375 510.273438 475.109375 509.0625 473.542969 C 508.859375 473.304688 508.664062 473.042969 508.488281 472.773438 C 507.210938 470.839844 506.507812 468.582031 506.507812 466.191406 L 506.507812 430.839844 Z M 730.804688 299.457031 L 730.804688 404.609375 C 730.804688 411.980469 727.792969 418.675781 722.953125 423.527344 C 718.109375 428.371094 711.40625 431.378906 704.035156 431.378906 L 572.371094 431.378906 L 557.332031 445.675781 L 678.746094 445.675781 L 678.746094 445.691406 C 680.792969 445.691406 682.847656 446.453125 684.441406 447.96875 L 724.75 486.285156 L 724.75 453.960938 C 724.75 449.386719 728.460938 445.675781 733.046875 445.675781 L 735.972656 445.675781 C 738.785156 445.675781 741.332031 444.535156 743.15625 442.703125 L 743.15625 442.683594 C 745.007812 440.832031 746.15625 438.285156 746.15625 435.488281 L 746.15625 309.652344 C 746.15625 306.855469 745.007812 304.308594 743.15625 302.457031 L 743.175781 302.4375 C 741.324219 300.597656 738.777344 299.457031 735.972656 299.457031 Z M 569.09375 414.824219 L 569.09375 414.804688 L 704.042969 414.804688 C 706.839844 414.804688 709.386719 413.65625 711.230469 411.804688 C 713.082031 409.953125 714.230469 407.40625 714.230469 404.621094 L 714.230469 278.773438 C 714.230469 275.96875 713.089844 273.414062 711.246094 271.570312 L 711.230469 271.589844 C 709.386719 269.738281 706.832031 268.589844 704.042969 268.589844 L 511.859375 268.589844 C 509.070312 268.589844 506.523438 269.738281 504.671875 271.589844 L 504.644531 271.589844 C 502.8125 273.421875 501.671875 275.957031 501.671875 278.773438 L 501.671875 404.609375 C 501.671875 407.40625 502.820312 409.953125 504.671875 411.796875 L 504.65625 411.824219 C 506.507812 413.667969 509.050781 414.804688 511.859375 414.804688 L 514.785156 414.804688 C 519.359375 414.804688 523.082031 418.519531 523.082031 423.09375 L 523.082031 455.414062 L 563.386719 417.101562 C 564.992188 415.582031 567.035156 414.824219 569.09375 414.824219 Z M 541.546875 307.882812 L 674.355469 307.882812 C 678.929688 307.882812 682.652344 304.171875 682.652344 299.585938 C 682.652344 295.011719 678.941406 291.300781 674.355469 291.300781 L 541.546875 291.300781 C 536.96875 291.300781 533.257812 295.011719 533.257812 299.585938 C 533.25 304.171875 536.972656 307.882812 541.546875 307.882812 Z M 541.546875 349.984375 L 610.234375 349.984375 C 614.808594 349.984375 618.519531 346.269531 618.519531 341.695312 C 618.519531 337.121094 614.808594 333.410156 610.234375 333.410156 L 541.546875 333.410156 C 536.96875 333.410156 533.257812 337.121094 533.257812 341.695312 C 533.25 346.269531 536.972656 349.984375 541.546875 349.984375 Z M 541.546875 392.082031 L 674.355469 392.082031 C 678.929688 392.082031 682.652344 388.371094 682.652344 383.789062 C 682.652344 379.214844 678.941406 375.5 674.355469 375.5 L 541.546875 375.5 C 536.96875 375.5 533.257812 379.214844 533.257812 383.789062 C 533.25 388.371094 536.972656 392.082031 541.546875 392.082031 Z M 629.882812 349.984375 L 674.355469 349.984375 C 678.929688 349.984375 682.652344 346.269531 682.652344 341.695312 C 682.652344 337.121094 678.941406 333.410156 674.355469 333.410156 L 629.882812 333.410156 C 625.308594 333.410156 621.585938 337.121094 621.585938 341.695312 C 621.585938 346.269531 625.300781 349.984375 629.882812 349.984375 Z M 631.863281 635.953125 L 632.511719 635.953125 C 638.9375 635.863281 644.746094 633.222656 648.96875 629 C 653.261719 624.703125 655.921875 618.761719 655.921875 612.207031 C 655.921875 605.648438 653.261719 599.707031 648.96875 595.410156 C 644.671875 591.113281 638.726562 588.445312 632.167969 588.445312 C 625.613281 588.445312 619.667969 591.105469 615.371094 595.398438 C 611.078125 599.695312 608.417969 605.640625 608.417969 612.195312 C 608.417969 618.75 611.078125 624.695312 615.371094 628.992188 C 619.605469 633.230469 625.417969 635.871094 631.863281 635.953125 Z M 676.339844 670.582031 C 665.015625 659.453125 649.476562 652.574219 632.308594 652.535156 L 632.050781 652.535156 C 614.882812 652.574219 599.335938 659.453125 588.019531 670.582031 C 577.492188 680.925781 570.582031 694.933594 569.371094 710.527344 L 695.007812 710.527344 C 693.765625 694.933594 686.859375 680.925781 676.339844 670.582031 Z M 632.167969 540.613281 C 597.675781 540.613281 566.453125 554.597656 543.851562 577.195312 C 521.246094 599.796875 507.265625 631.019531 507.265625 665.507812 C 507.265625 699.996094 521.246094 731.226562 543.851562 753.820312 C 566.453125 776.421875 597.675781 790.402344 632.167969 790.402344 C 666.664062 790.402344 697.886719 776.421875 720.488281 753.820312 C 743.09375 731.21875 757.074219 699.988281 757.074219 665.507812 C 757.074219 631.019531 743.09375 599.796875 720.488281 577.195312 C 697.886719 554.597656 666.664062 540.613281 632.167969 540.613281 Z M 708.765625 588.917969 C 689.164062 569.316406 662.078125 557.199219 632.167969 557.199219 C 602.261719 557.199219 575.167969 569.316406 555.574219 588.917969 C 535.96875 608.519531 523.851562 635.601562 523.851562 665.507812 C 523.851562 695.414062 535.96875 722.496094 555.574219 742.097656 C 575.175781 761.699219 602.261719 773.820312 632.167969 773.820312 C 662.078125 773.820312 689.164062 761.691406 708.765625 742.097656 C 728.367188 722.496094 740.488281 695.414062 740.488281 665.507812 C 740.488281 635.601562 728.367188 608.519531 708.765625 588.917969 Z M 708.765625 588.917969 "/></g></svg>