<svg xmlns="http://www.w3.org/2000/svg" xmlns:xlink="http://www.w3.org/1999/xlink" width="1080" zoomAndPan="magnify" viewBox="0 0 810 809.999993" height="1080" preserveAspectRatio="xMidYMid meet" version="1.2"><g id="6474ba6451"><path style=" stroke:none;fill-rule:nonzero;fill:#000000;fill-opacity:1;" d="M 735 0 L 75 0 C 73.773438 0 72.546875 0.03125 71.320312 0.0898438 C 70.09375 0.152344 68.871094 0.242188 67.648438 0.359375 C 66.425781 0.480469 65.210938 0.632812 63.996094 0.8125 C 62.78125 0.992188 61.570312 1.203125 60.367188 1.441406 C 59.164062 1.679688 57.96875 1.949219 56.777344 2.246094 C 55.585938 2.546875 54.402344 2.875 53.230469 3.230469 C 52.054688 3.585938 50.890625 3.972656 49.734375 4.382812 C 48.578125 4.796875 47.433594 5.238281 46.296875 5.710938 C 45.164062 6.179688 44.042969 6.675781 42.933594 7.199219 C 41.824219 7.726562 40.726562 8.277344 39.644531 8.855469 C 38.5625 9.433594 37.496094 10.039062 36.441406 10.671875 C 35.390625 11.300781 34.351562 11.957031 33.332031 12.640625 C 32.3125 13.320312 31.308594 14.027344 30.324219 14.757812 C 29.335938 15.492188 28.371094 16.246094 27.421875 17.023438 C 26.472656 17.804688 25.542969 18.605469 24.632812 19.429688 C 23.722656 20.253906 22.835938 21.097656 21.96875 21.96875 C 21.097656 22.835938 20.253906 23.722656 19.429688 24.632812 C 18.605469 25.542969 17.804688 26.472656 17.023438 27.421875 C 16.246094 28.371094 15.492188 29.335938 14.757812 30.324219 C 14.027344 31.308594 13.320312 32.3125 12.640625 33.332031 C 11.957031 34.351562 11.300781 35.390625 10.671875 36.441406 C 10.039062 37.496094 9.433594 38.5625 8.855469 39.644531 C 8.277344 40.726562 7.726562 41.824219 7.199219 42.933594 C 6.675781 44.042969 6.179688 45.164062 5.710938 46.296875 C 5.238281 47.433594 4.796875 48.578125 4.382812 49.734375 C 3.96875 50.890625 3.585938 52.054688 3.230469 53.230469 C 2.875 54.402344 2.546875 55.585938 2.246094 56.777344 C 1.949219 57.96875 1.679688 59.164062 1.441406 60.367188 C 1.203125 61.570312 0.992188 62.78125 0.8125 63.996094 C 0.632812 65.210938 0.480469 66.425781 0.359375 67.648438 C 0.242188 68.871094 0.152344 70.09375 0.0898438 71.320312 C 0.03125 72.546875 0 73.773438 0 75 L 0 240 C 0 241.226562 0.03125 242.453125 0.0898438 243.679688 C 0.152344 244.90625 0.242188 246.128906 0.359375 247.351562 C 0.480469 248.574219 0.632812 249.789062 0.8125 251.003906 C 0.992188 252.21875 1.203125 253.429688 1.441406 254.632812 C 1.679688 255.835938 1.949219 257.03125 2.246094 258.222656 C 2.546875 259.414062 2.875 260.597656 3.230469 261.769531 C 3.585938 262.945312 3.96875 264.109375 4.382812 265.265625 C 4.796875 266.421875 5.238281 267.566406 5.710938 268.703125 C 6.179688 269.835938 6.675781 270.957031 7.199219 272.066406 C 7.726562 273.175781 8.277344 274.273438 8.855469 275.355469 C 9.433594 276.4375 10.039062 277.503906 10.671875 278.558594 C 11.300781 279.609375 11.957031 280.648438 12.640625 281.667969 C 13.320312 282.6875 14.027344 283.691406 14.757812 284.675781 C 15.492188 285.664062 16.246094 286.628906 17.023438 287.578125 C 17.804688 288.527344 18.605469 289.457031 19.429688 290.367188 C 20.253906 291.277344 21.097656 292.164062 21.96875 293.03125 C 22.835938 293.902344 23.722656 294.746094 24.632812 295.570312 C 25.542969 296.394531 26.472656 297.195312 27.421875 297.976562 C 28.371094 298.753906 29.335938 299.507812 30.324219 300.242188 C 31.308594 300.972656 32.3125 301.679688 33.332031 302.359375 C 34.351562 303.042969 35.390625 303.699219 36.441406 304.328125 C 37.496094 304.960938 38.5625 305.566406 39.644531 306.144531 C 40.726562 306.722656 41.824219 307.273438 42.933594 307.800781 C 44.042969 308.324219 45.164062 308.820312 46.296875 309.289062 C 47.433594 309.761719 48.578125 310.203125 49.734375 310.617188 C 50.890625 311.027344 52.054688 311.414062 53.230469 311.769531 C 54.402344 312.125 55.585938 312.453125 56.777344 312.753906 C 57.96875 313.050781 59.164062 313.320312 60.367188 313.558594 C 61.570312 313.796875 62.78125 314.007812 63.996094 314.1875 C 65.210938 314.367188 66.425781 314.519531 67.648438 314.640625 C 68.871094 314.757812 70.09375 314.847656 71.320312 314.910156 C 72.546875 314.96875 73.773438 315 75 315 L 270 315 L 270 503.851562 C 250.648438 523.351562 225 551.25 225 582.449219 L 225 634.351562 C 224.96875 639.328125 225.335938 644.277344 226.109375 649.199219 C 226.878906 654.117188 228.042969 658.941406 229.601562 663.671875 C 231.15625 668.402344 233.082031 672.976562 235.378906 677.390625 C 237.679688 681.808594 240.320312 686.011719 243.300781 690 L 258.300781 710.101562 C 260.148438 712.566406 261.789062 715.160156 263.226562 717.886719 C 264.664062 720.609375 265.878906 723.429688 266.875 726.347656 C 267.867188 729.261719 268.625 732.238281 269.148438 735.277344 C 269.675781 738.3125 269.957031 741.371094 270 744.449219 L 270 795 C 270 795.984375 270.097656 796.960938 270.289062 797.925781 C 270.480469 798.890625 270.765625 799.832031 271.140625 800.738281 C 271.519531 801.648438 271.980469 802.515625 272.527344 803.332031 C 273.074219 804.152344 273.695312 804.910156 274.394531 805.605469 C 275.089844 806.304688 275.847656 806.925781 276.667969 807.472656 C 277.484375 808.019531 278.351562 808.480469 279.257812 808.859375 C 280.167969 809.234375 281.109375 809.519531 282.074219 809.710938 C 283.039062 809.902344 284.015625 810 285 810 L 555 810 C 555.984375 810 556.960938 809.902344 557.925781 809.710938 C 558.890625 809.519531 559.832031 809.234375 560.738281 808.859375 C 561.648438 808.480469 562.515625 808.019531 563.332031 807.472656 C 564.152344 806.925781 564.910156 806.304688 565.605469 805.605469 C 566.304688 804.910156 566.925781 804.152344 567.472656 803.332031 C 568.019531 802.515625 568.480469 801.648438 568.859375 800.738281 C 569.234375 799.832031 569.519531 798.890625 569.710938 797.925781 C 569.902344 796.960938 570 795.984375 570 795 L 570 743.550781 C 570.359375 728.191406 572.359375 713.050781 576.003906 698.128906 C 579.644531 683.207031 584.84375 668.847656 591.601562 655.050781 C 593.652344 650.226562 595.101562 645.226562 595.949219 640.050781 C 598.695312 627.09375 600.042969 613.992188 600 600.75 L 600 442.5 C 600 440.78125 599.914062 439.066406 599.746094 437.355469 C 599.578125 435.644531 599.328125 433.945312 598.992188 432.257812 C 598.65625 430.570312 598.238281 428.90625 597.738281 427.261719 C 597.238281 425.613281 596.660156 423.996094 596.003906 422.410156 C 595.34375 420.820312 594.613281 419.269531 593.800781 417.75 C 592.992188 416.234375 592.105469 414.761719 591.152344 413.332031 C 590.195312 411.902344 589.171875 410.523438 588.082031 409.195312 C 586.992188 407.863281 585.839844 406.59375 584.625 405.375 C 583.40625 404.160156 582.136719 403.007812 580.804688 401.917969 C 579.476562 400.824219 578.097656 399.804688 576.667969 398.847656 C 575.238281 397.890625 573.765625 397.007812 572.25 396.199219 C 570.730469 395.386719 569.179688 394.65625 567.589844 393.996094 C 566.003906 393.339844 564.386719 392.757812 562.738281 392.261719 C 561.09375 391.761719 559.429688 391.34375 557.742188 391.007812 C 556.054688 390.671875 554.355469 390.421875 552.644531 390.253906 C 550.933594 390.085938 549.21875 390 547.5 390 C 543.078125 390.023438 538.734375 390.609375 534.464844 391.75 C 530.195312 392.894531 526.140625 394.5625 522.300781 396.75 C 521.886719 395.433594 521.425781 394.132812 520.910156 392.851562 C 520.398438 391.570312 519.832031 390.3125 519.21875 389.074219 C 518.605469 387.839844 517.945312 386.628906 517.234375 385.445312 C 516.527344 384.261719 515.769531 383.105469 514.972656 381.984375 C 514.171875 380.859375 513.328125 379.769531 512.4375 378.710938 C 511.550781 377.652344 510.625 376.632812 509.65625 375.648438 C 508.691406 374.664062 507.683594 373.71875 506.640625 372.8125 C 505.601562 371.910156 504.523438 371.046875 503.414062 370.226562 C 502.300781 369.40625 501.160156 368.632812 499.988281 367.902344 C 498.816406 367.175781 497.617188 366.492188 496.390625 365.859375 C 495.167969 365.222656 493.917969 364.640625 492.644531 364.101562 C 491.375 363.566406 490.082031 363.082031 488.773438 362.648438 C 487.460938 362.214844 486.136719 361.835938 484.796875 361.503906 C 483.453125 361.175781 482.101562 360.902344 480.742188 360.679688 C 479.378906 360.457031 478.007812 360.289062 476.632812 360.175781 C 475.257812 360.0625 473.878906 360.003906 472.5 360 C 468.078125 360.023438 463.734375 360.609375 459.464844 361.75 C 455.195312 362.894531 451.140625 364.5625 447.300781 366.75 C 446.886719 365.433594 446.425781 364.132812 445.910156 362.851562 C 445.398438 361.570312 444.832031 360.3125 444.21875 359.074219 C 443.605469 357.839844 442.945312 356.628906 442.234375 355.445312 C 441.527344 354.261719 440.769531 353.105469 439.972656 351.984375 C 439.171875 350.859375 438.328125 349.769531 437.4375 348.710938 C 436.550781 347.652344 435.625 346.632812 434.65625 345.648438 C 433.6875 344.664062 432.683594 343.71875 431.640625 342.8125 C 430.601562 341.910156 429.523438 341.046875 428.414062 340.226562 C 427.300781 339.40625 426.160156 338.632812 424.988281 337.902344 C 423.816406 337.175781 422.617188 336.492188 421.390625 335.859375 C 420.167969 335.222656 418.917969 334.640625 417.644531 334.101562 C 416.375 333.566406 415.082031 333.082031 413.773438 332.648438 C 412.460938 332.214844 411.136719 331.835938 409.796875 331.503906 C 408.453125 331.175781 407.101562 330.902344 405.742188 330.679688 C 404.378906 330.457031 403.007812 330.289062 401.632812 330.175781 C 400.257812 330.0625 398.878906 330.003906 397.5 330 C 393.601562 330.015625 389.75 330.46875 385.953125 331.351562 C 382.15625 332.238281 378.503906 333.539062 375 335.25 L 375 315 L 735 315 C 736.226562 315 737.453125 314.96875 738.679688 314.910156 C 739.90625 314.847656 741.128906 314.757812 742.351562 314.640625 C 743.574219 314.519531 744.789062 314.367188 746.003906 314.1875 C 747.21875 314.007812 748.429688 313.796875 749.632812 313.558594 C 750.835938 313.320312 752.03125 313.050781 753.222656 312.753906 C 754.414062 312.453125 755.597656 312.125 756.769531 311.769531 C 757.945312 311.414062 759.109375 311.027344 760.265625 310.617188 C 761.421875 310.203125 762.566406 309.761719 763.703125 309.289062 C 764.835938 308.820312 765.957031 308.324219 767.066406 307.800781 C 768.175781 307.273438 769.273438 306.722656 770.355469 306.144531 C 771.4375 305.566406 772.503906 304.960938 773.558594 304.328125 C 774.609375 303.699219 775.648438 303.042969 776.667969 302.359375 C 777.6875 301.679688 778.691406 300.972656 779.675781 300.242188 C 780.664062 299.507812 781.628906 298.753906 782.578125 297.976562 C 783.527344 297.195312 784.457031 296.394531 785.367188 295.570312 C 786.277344 294.746094 787.164062 293.902344 788.03125 293.03125 C 788.902344 292.164062 789.746094 291.277344 790.570312 290.367188 C 791.394531 289.457031 792.195312 288.527344 792.976562 287.578125 C 793.753906 286.628906 794.507812 285.664062 795.242188 284.675781 C 795.972656 283.691406 796.679688 282.6875 797.359375 281.667969 C 798.042969 280.648438 798.699219 279.609375 799.328125 278.558594 C 799.960938 277.503906 800.566406 276.4375 801.144531 275.355469 C 801.722656 274.273438 802.273438 273.175781 802.800781 272.066406 C 803.324219 270.957031 803.820312 269.835938 804.289062 268.703125 C 804.761719 267.566406 805.203125 266.421875 805.617188 265.265625 C 806.027344 264.109375 806.414062 262.945312 806.769531 261.769531 C 807.125 260.597656 807.453125 259.414062 807.753906 258.222656 C 808.050781 257.03125 808.320312 255.835938 808.558594 254.632812 C 808.796875 253.429688 809.007812 252.21875 809.1875 251.003906 C 809.367188 249.789062 809.519531 248.574219 809.640625 247.351562 C 809.757812 246.128906 809.847656 244.90625 809.910156 243.679688 C 809.96875 242.453125 810 241.226562 810 240 L 810 75 C 810 73.773438 809.96875 72.546875 809.910156 71.320312 C 809.847656 70.09375 809.757812 68.871094 809.640625 67.648438 C 809.519531 66.425781 809.367188 65.210938 809.1875 63.996094 C 809.007812 62.78125 808.796875 61.570312 808.558594 60.367188 C 808.320312 59.164062 808.050781 57.96875 807.753906 56.777344 C 807.453125 55.585938 807.125 54.402344 806.769531 53.230469 C 806.414062 52.054688 806.027344 50.890625 805.617188 49.734375 C 805.203125 48.578125 804.761719 47.433594 804.289062 46.296875 C 803.820312 45.164062 803.324219 44.042969 802.800781 42.933594 C 802.273438 41.824219 801.722656 40.726562 801.144531 39.644531 C 800.566406 38.5625 799.960938 37.496094 799.328125 36.441406 C 798.699219 35.390625 798.042969 34.351562 797.359375 33.332031 C 796.679688 32.3125 795.972656 31.308594 795.242188 30.324219 C 794.507812 29.335938 793.753906 28.371094 792.976562 27.421875 C 792.195312 26.472656 791.394531 25.542969 790.570312 24.632812 C 789.746094 23.722656 788.902344 22.835938 788.03125 21.96875 C 787.164062 21.097656 786.277344 20.253906 785.367188 19.429688 C 784.457031 18.605469 783.527344 17.804688 782.578125 17.023438 C 781.628906 16.246094 780.664062 15.492188 779.675781 14.757812 C 778.691406 14.027344 777.6875 13.320312 776.667969 12.640625 C 775.648438 11.957031 774.609375 11.300781 773.558594 10.671875 C 772.503906 10.039062 771.4375 9.433594 770.355469 8.855469 C 769.273438 8.277344 768.175781 7.726562 767.066406 7.199219 C 765.957031 6.675781 764.835938 6.179688 763.703125 5.710938 C 762.566406 5.238281 761.421875 4.796875 760.265625 4.382812 C 759.109375 3.96875 757.945312 3.585938 756.769531 3.230469 C 755.597656 2.875 754.414062 2.546875 753.222656 2.246094 C 752.03125 1.949219 750.835938 1.679688 749.632812 1.441406 C 748.429688 1.203125 747.21875 0.992188 746.003906 0.8125 C 744.789062 0.632812 743.574219 0.480469 742.351562 0.359375 C 741.128906 0.242188 739.90625 0.152344 738.679688 0.0898438 C 737.453125 0.03125 736.226562 0 735 0 Z M 397.5 360 C 398.238281 360 398.972656 360.035156 399.707031 360.109375 C 400.4375 360.179688 401.167969 360.289062 401.890625 360.433594 C 402.613281 360.574219 403.328125 360.753906 404.03125 360.96875 C 404.738281 361.183594 405.429688 361.429688 406.109375 361.710938 C 406.792969 361.996094 407.457031 362.308594 408.105469 362.65625 C 408.757812 363.003906 409.386719 363.382812 410 363.792969 C 410.613281 364.203125 411.203125 364.640625 411.773438 365.105469 C 412.34375 365.574219 412.890625 366.070312 413.410156 366.589844 C 413.929688 367.109375 414.425781 367.65625 414.894531 368.226562 C 415.359375 368.796875 415.796875 369.386719 416.207031 370 C 416.617188 370.613281 416.996094 371.242188 417.34375 371.894531 C 417.691406 372.542969 418.003906 373.207031 418.289062 373.890625 C 418.570312 374.570312 418.816406 375.261719 419.03125 375.96875 C 419.246094 376.671875 419.425781 377.386719 419.566406 378.109375 C 419.710938 378.832031 419.820312 379.5625 419.890625 380.292969 C 419.964844 381.027344 420 381.761719 420 382.5 L 420 510 C 420 510.984375 420.097656 511.960938 420.289062 512.925781 C 420.480469 513.890625 420.765625 514.832031 421.140625 515.738281 C 421.519531 516.648438 421.980469 517.515625 422.527344 518.332031 C 423.074219 519.152344 423.695312 519.910156 424.394531 520.605469 C 425.089844 521.304688 425.847656 521.925781 426.667969 522.472656 C 427.484375 523.019531 428.351562 523.480469 429.257812 523.859375 C 430.167969 524.234375 431.109375 524.519531 432.074219 524.710938 C 433.039062 524.902344 434.015625 525 435 525 C 435.984375 525 436.960938 524.902344 437.925781 524.710938 C 438.890625 524.519531 439.832031 524.234375 440.738281 523.859375 C 441.648438 523.480469 442.515625 523.019531 443.332031 522.472656 C 444.152344 521.925781 444.910156 521.304688 445.605469 520.605469 C 446.304688 519.910156 446.925781 519.152344 447.472656 518.332031 C 448.019531 517.515625 448.480469 516.648438 448.859375 515.738281 C 449.234375 514.832031 449.519531 513.890625 449.710938 512.925781 C 449.902344 511.960938 450 510.984375 450 510 L 450 412.5 C 450 411.761719 450.035156 411.027344 450.109375 410.292969 C 450.179688 409.5625 450.289062 408.832031 450.433594 408.109375 C 450.574219 407.386719 450.753906 406.671875 450.96875 405.96875 C 451.183594 405.261719 451.429688 404.570312 451.710938 403.890625 C 451.996094 403.207031 452.308594 402.542969 452.65625 401.894531 C 453.003906 401.242188 453.382812 400.613281 453.792969 400 C 454.203125 399.386719 454.640625 398.796875 455.105469 398.226562 C 455.574219 397.65625 456.070312 397.109375 456.589844 396.589844 C 457.109375 396.070312 457.65625 395.574219 458.226562 395.105469 C 458.796875 394.640625 459.386719 394.203125 460 393.792969 C 460.613281 393.382812 461.242188 393.003906 461.894531 392.65625 C 462.542969 392.308594 463.207031 391.996094 463.890625 391.710938 C 464.570312 391.429688 465.261719 391.183594 465.96875 390.96875 C 466.671875 390.753906 467.386719 390.574219 468.109375 390.433594 C 468.832031 390.289062 469.5625 390.179688 470.292969 390.109375 C 471.027344 390.035156 471.761719 390 472.5 390 C 473.238281 390 473.972656 390.035156 474.707031 390.109375 C 475.4375 390.179688 476.167969 390.289062 476.890625 390.433594 C 477.613281 390.574219 478.324219 390.753906 479.03125 390.96875 C 479.738281 391.183594 480.429688 391.429688 481.109375 391.710938 C 481.792969 391.996094 482.457031 392.308594 483.105469 392.65625 C 483.757812 393.003906 484.386719 393.382812 485 393.792969 C 485.613281 394.203125 486.203125 394.640625 486.773438 395.105469 C 487.34375 395.574219 487.890625 396.070312 488.410156 396.589844 C 488.929688 397.109375 489.425781 397.65625 489.894531 398.226562 C 490.359375 398.796875 490.796875 399.386719 491.207031 400 C 491.617188 400.613281 491.996094 401.242188 492.34375 401.894531 C 492.691406 402.542969 493.003906 403.207031 493.289062 403.890625 C 493.570312 404.570312 493.816406 405.261719 494.03125 405.96875 C 494.246094 406.671875 494.425781 407.386719 494.566406 408.109375 C 494.710938 408.832031 494.820312 409.5625 494.890625 410.292969 C 494.964844 411.027344 495 411.761719 495 412.5 L 495 525 C 495 525.984375 495.097656 526.960938 495.289062 527.925781 C 495.480469 528.890625 495.765625 529.832031 496.140625 530.738281 C 496.519531 531.648438 496.980469 532.515625 497.527344 533.332031 C 498.074219 534.152344 498.695312 534.910156 499.394531 535.605469 C 500.089844 536.304688 500.847656 536.925781 501.667969 537.472656 C 502.484375 538.019531 503.351562 538.480469 504.257812 538.859375 C 505.167969 539.234375 506.109375 539.519531 507.074219 539.710938 C 508.039062 539.902344 509.015625 540 510 540 C 510.984375 540 511.960938 539.902344 512.925781 539.710938 C 513.890625 539.519531 514.832031 539.234375 515.738281 538.859375 C 516.648438 538.480469 517.515625 538.019531 518.332031 537.472656 C 519.152344 536.925781 519.910156 536.304688 520.605469 535.605469 C 521.304688 534.910156 521.925781 534.152344 522.472656 533.332031 C 523.019531 532.515625 523.480469 531.648438 523.859375 530.738281 C 524.234375 529.832031 524.519531 528.890625 524.710938 527.925781 C 524.902344 526.960938 525 525.984375 525 525 L 525 442.5 C 525 441.761719 525.035156 441.027344 525.109375 440.292969 C 525.179688 439.5625 525.289062 438.832031 525.433594 438.109375 C 525.574219 437.386719 525.753906 436.671875 525.96875 435.96875 C 526.183594 435.261719 526.429688 434.570312 526.710938 433.890625 C 526.996094 433.207031 527.308594 432.542969 527.65625 431.894531 C 528.003906 431.242188 528.382812 430.613281 528.792969 430 C 529.203125 429.386719 529.640625 428.796875 530.105469 428.226562 C 530.574219 427.65625 531.070312 427.109375 531.589844 426.589844 C 532.109375 426.070312 532.65625 425.574219 533.226562 425.105469 C 533.796875 424.640625 534.386719 424.203125 535 423.792969 C 535.613281 423.382812 536.242188 423.003906 536.894531 422.65625 C 537.542969 422.308594 538.207031 421.996094 538.890625 421.710938 C 539.570312 421.429688 540.261719 421.183594 540.96875 420.96875 C 541.671875 420.753906 542.386719 420.574219 543.109375 420.433594 C 543.832031 420.289062 544.5625 420.179688 545.292969 420.109375 C 546.027344 420.035156 546.761719 420 547.5 420 C 548.238281 420 548.972656 420.035156 549.707031 420.109375 C 550.4375 420.179688 551.167969 420.289062 551.890625 420.433594 C 552.613281 420.574219 553.324219 420.753906 554.03125 420.96875 C 554.738281 421.183594 555.429688 421.429688 556.109375 421.710938 C 556.792969 421.996094 557.457031 422.308594 558.105469 422.65625 C 558.757812 423.003906 559.386719 423.382812 560 423.792969 C 560.613281 424.203125 561.203125 424.640625 561.773438 425.105469 C 562.34375 425.574219 562.890625 426.070312 563.410156 426.589844 C 563.929688 427.109375 564.425781 427.65625 564.894531 428.226562 C 565.359375 428.796875 565.796875 429.386719 566.207031 430 C 566.617188 430.613281 566.996094 431.242188 567.34375 431.894531 C 567.691406 432.542969 568.003906 433.207031 568.289062 433.890625 C 568.570312 434.570312 568.816406 435.261719 569.03125 435.96875 C 569.246094 436.671875 569.421875 437.386719 569.566406 438.109375 C 569.710938 438.832031 569.820312 439.5625 569.890625 440.292969 C 569.964844 441.027344 570 441.761719 570 442.5 L 570 600.75 C 570.121094 612.070312 569.023438 623.269531 566.699219 634.351562 C 566.164062 637.109375 565.414062 639.808594 564.449219 642.449219 C 560.601562 650.304688 557.191406 658.34375 554.222656 666.570312 C 551.25 674.796875 548.738281 683.160156 546.683594 691.660156 C 544.625 700.160156 543.039062 708.746094 541.921875 717.421875 C 540.804688 726.097656 540.164062 734.804688 540 743.550781 L 540 780 L 300 780 L 300 744.449219 C 299.992188 739.707031 299.605469 734.996094 298.839844 730.3125 C 298.074219 725.632812 296.9375 721.042969 295.433594 716.542969 C 293.929688 712.042969 292.078125 707.695312 289.875 703.492188 C 287.671875 699.292969 285.144531 695.292969 282.300781 691.5 L 267.300781 671.398438 C 265.3125 668.742188 263.554688 665.945312 262.019531 663.003906 C 260.484375 660.0625 259.191406 657.019531 258.148438 653.871094 C 257.101562 650.722656 256.316406 647.511719 255.789062 644.238281 C 255.261719 640.964844 254.996094 637.667969 255 634.351562 L 255 582.449219 C 255.328125 579.332031 255.898438 576.257812 256.710938 573.230469 C 257.523438 570.203125 258.566406 567.257812 259.839844 564.390625 C 261.113281 561.527344 262.601562 558.78125 264.304688 556.148438 C 266.007812 553.515625 267.90625 551.035156 270 548.699219 L 270 570 C 270 570.984375 270.097656 571.960938 270.289062 572.925781 C 270.480469 573.890625 270.765625 574.832031 271.140625 575.738281 C 271.519531 576.648438 271.980469 577.515625 272.527344 578.332031 C 273.074219 579.152344 273.695312 579.910156 274.394531 580.605469 C 275.089844 581.304688 275.847656 581.925781 276.667969 582.472656 C 277.484375 583.019531 278.351562 583.480469 279.257812 583.859375 C 280.167969 584.234375 281.109375 584.519531 282.074219 584.710938 C 283.039062 584.902344 284.015625 585 285 585 C 285.984375 585 286.960938 584.902344 287.925781 584.710938 C 288.890625 584.519531 289.832031 584.234375 290.738281 583.859375 C 291.648438 583.480469 292.515625 583.019531 293.332031 582.472656 C 294.152344 581.925781 294.910156 581.304688 295.605469 580.605469 C 296.304688 579.910156 296.925781 579.152344 297.472656 578.332031 C 298.019531 577.515625 298.480469 576.648438 298.859375 575.738281 C 299.234375 574.832031 299.519531 573.890625 299.710938 572.925781 C 299.902344 571.960938 300 570.984375 300 570 L 300 277.5 C 300 276.761719 300.035156 276.027344 300.109375 275.292969 C 300.179688 274.5625 300.289062 273.832031 300.433594 273.109375 C 300.574219 272.386719 300.753906 271.671875 300.96875 270.96875 C 301.183594 270.261719 301.429688 269.570312 301.710938 268.890625 C 301.996094 268.207031 302.308594 267.542969 302.65625 266.894531 C 303.003906 266.242188 303.382812 265.613281 303.792969 265 C 304.203125 264.386719 304.640625 263.796875 305.105469 263.226562 C 305.574219 262.65625 306.070312 262.109375 306.589844 261.589844 C 307.109375 261.070312 307.65625 260.574219 308.226562 260.105469 C 308.796875 259.640625 309.386719 259.203125 310 258.792969 C 310.613281 258.382812 311.242188 258.003906 311.894531 257.65625 C 312.542969 257.308594 313.207031 256.996094 313.890625 256.710938 C 314.570312 256.429688 315.261719 256.183594 315.96875 255.96875 C 316.671875 255.753906 317.386719 255.574219 318.109375 255.433594 C 318.832031 255.289062 319.5625 255.179688 320.292969 255.109375 C 321.027344 255.035156 321.761719 255 322.5 255 C 323.238281 255 323.972656 255.035156 324.707031 255.109375 C 325.4375 255.179688 326.167969 255.289062 326.890625 255.433594 C 327.613281 255.574219 328.328125 255.753906 329.03125 255.96875 C 329.738281 256.183594 330.429688 256.429688 331.109375 256.710938 C 331.792969 256.996094 332.457031 257.308594 333.105469 257.65625 C 333.757812 258.003906 334.386719 258.382812 335 258.792969 C 335.613281 259.203125 336.203125 259.640625 336.773438 260.105469 C 337.34375 260.574219 337.890625 261.070312 338.410156 261.589844 C 338.929688 262.109375 339.425781 262.65625 339.894531 263.226562 C 340.359375 263.796875 340.796875 264.386719 341.207031 265 C 341.617188 265.613281 341.996094 266.242188 342.34375 266.894531 C 342.691406 267.542969 343.003906 268.207031 343.289062 268.890625 C 343.570312 269.570312 343.816406 270.261719 344.03125 270.96875 C 344.246094 271.671875 344.425781 272.386719 344.566406 273.109375 C 344.710938 273.832031 344.820312 274.5625 344.890625 275.292969 C 344.964844 276.027344 345 276.761719 345 277.5 L 345 510 C 345 510.984375 345.097656 511.960938 345.289062 512.925781 C 345.480469 513.890625 345.765625 514.832031 346.140625 515.738281 C 346.519531 516.648438 346.980469 517.515625 347.527344 518.332031 C 348.074219 519.152344 348.695312 519.910156 349.394531 520.605469 C 350.089844 521.304688 350.847656 521.925781 351.667969 522.472656 C 352.484375 523.019531 353.351562 523.480469 354.257812 523.859375 C 355.167969 524.234375 356.109375 524.519531 357.074219 524.710938 C 358.039062 524.902344 359.015625 525 360 525 C 360.984375 525 361.960938 524.902344 362.925781 524.710938 C 363.890625 524.519531 364.832031 524.234375 365.738281 523.859375 C 366.648438 523.480469 367.515625 523.019531 368.332031 522.472656 C 369.152344 521.925781 369.910156 521.304688 370.605469 520.605469 C 371.304688 519.910156 371.925781 519.152344 372.472656 518.332031 C 373.019531 517.515625 373.480469 516.648438 373.859375 515.738281 C 374.234375 514.832031 374.519531 513.890625 374.710938 512.925781 C 374.902344 511.960938 375 510.984375 375 510 L 375 382.5 C 375 381.761719 375.035156 381.027344 375.109375 380.292969 C 375.179688 379.5625 375.289062 378.832031 375.433594 378.109375 C 375.574219 377.386719 375.753906 376.671875 375.96875 375.96875 C 376.183594 375.261719 376.429688 374.570312 376.710938 373.890625 C 376.996094 373.207031 377.308594 372.542969 377.65625 371.894531 C 378.003906 371.242188 378.382812 370.613281 378.792969 370 C 379.203125 369.386719 379.640625 368.796875 380.105469 368.226562 C 380.574219 367.65625 381.070312 367.109375 381.589844 366.589844 C 382.109375 366.070312 382.65625 365.574219 383.226562 365.105469 C 383.796875 364.640625 384.386719 364.203125 385 363.792969 C 385.613281 363.382812 386.242188 363.003906 386.894531 362.65625 C 387.542969 362.308594 388.207031 361.996094 388.890625 361.710938 C 389.570312 361.429688 390.261719 361.183594 390.96875 360.96875 C 391.671875 360.753906 392.386719 360.574219 393.109375 360.433594 C 393.832031 360.289062 394.5625 360.179688 395.292969 360.109375 C 396.027344 360.035156 396.761719 360 397.5 360 Z M 780 240 C 780 241.472656 779.929688 242.945312 779.785156 244.410156 C 779.640625 245.878906 779.421875 247.332031 779.136719 248.777344 C 778.847656 250.222656 778.488281 251.652344 778.0625 253.0625 C 777.632812 254.472656 777.136719 255.859375 776.574219 257.222656 C 776.011719 258.582031 775.382812 259.914062 774.6875 261.210938 C 773.992188 262.511719 773.234375 263.773438 772.414062 265 C 771.597656 266.226562 770.71875 267.410156 769.785156 268.546875 C 768.851562 269.6875 767.863281 270.777344 766.820312 271.820312 C 765.777344 272.863281 764.6875 273.851562 763.546875 274.785156 C 762.410156 275.71875 761.226562 276.597656 760 277.417969 C 758.773438 278.234375 757.511719 278.992188 756.210938 279.6875 C 754.914062 280.382812 753.582031 281.011719 752.21875 281.574219 C 750.859375 282.136719 749.472656 282.632812 748.0625 283.0625 C 746.652344 283.488281 745.222656 283.847656 743.777344 284.136719 C 742.332031 284.421875 740.878906 284.640625 739.410156 284.785156 C 737.945312 284.929688 736.472656 285 735 285 L 375 285 L 375 277.5 C 375 275.78125 374.914062 274.066406 374.746094 272.355469 C 374.578125 270.644531 374.328125 268.945312 373.992188 267.257812 C 373.65625 265.570312 373.238281 263.90625 372.738281 262.261719 C 372.238281 260.613281 371.660156 258.996094 371.003906 257.410156 C 370.34375 255.820312 369.613281 254.269531 368.800781 252.75 C 367.992188 251.234375 367.105469 249.761719 366.152344 248.332031 C 365.195312 246.902344 364.171875 245.523438 363.082031 244.195312 C 361.992188 242.863281 360.839844 241.59375 359.625 240.375 C 358.40625 239.160156 357.136719 238.007812 355.804688 236.917969 C 354.476562 235.824219 353.097656 234.804688 351.667969 233.847656 C 350.238281 232.890625 348.765625 232.007812 347.25 231.199219 C 345.730469 230.386719 344.179688 229.65625 342.589844 228.996094 C 341.003906 228.339844 339.386719 227.761719 337.738281 227.261719 C 336.09375 226.761719 334.429688 226.34375 332.742188 226.007812 C 331.054688 225.671875 329.355469 225.421875 327.644531 225.253906 C 325.933594 225.085938 324.21875 225 322.5 225 C 320.78125 225 319.066406 225.085938 317.355469 225.253906 C 315.644531 225.421875 313.945312 225.671875 312.257812 226.007812 C 310.570312 226.34375 308.90625 226.761719 307.261719 227.261719 C 305.613281 227.761719 303.996094 228.339844 302.410156 228.996094 C 300.820312 229.65625 299.269531 230.386719 297.75 231.199219 C 296.234375 232.007812 294.761719 232.890625 293.332031 233.847656 C 291.902344 234.804688 290.523438 235.824219 289.195312 236.917969 C 287.863281 238.007812 286.59375 239.160156 285.375 240.375 C 284.160156 241.59375 283.007812 242.863281 281.917969 244.195312 C 280.824219 245.523438 279.804688 246.902344 278.847656 248.332031 C 277.890625 249.761719 277.007812 251.234375 276.199219 252.75 C 275.386719 254.269531 274.652344 255.820312 273.996094 257.410156 C 273.339844 258.996094 272.757812 260.613281 272.261719 262.261719 C 271.761719 263.90625 271.34375 265.570312 271.007812 267.257812 C 270.671875 268.945312 270.421875 270.644531 270.253906 272.355469 C 270.085938 274.066406 270 275.78125 270 277.5 L 270 285 L 75 285 C 73.527344 285 72.054688 284.929688 70.589844 284.785156 C 69.121094 284.640625 67.667969 284.421875 66.222656 284.136719 C 64.777344 283.847656 63.347656 283.488281 61.9375 283.0625 C 60.527344 282.632812 59.140625 282.136719 57.777344 281.574219 C 56.417969 281.011719 55.085938 280.382812 53.789062 279.6875 C 52.488281 278.992188 51.226562 278.234375 50 277.417969 C 48.773438 276.597656 47.589844 275.71875 46.453125 274.785156 C 45.3125 273.851562 44.222656 272.863281 43.179688 271.820312 C 42.136719 270.777344 41.148438 269.6875 40.214844 268.546875 C 39.28125 267.410156 38.402344 266.226562 37.582031 265 C 36.765625 263.773438 36.007812 262.511719 35.3125 261.210938 C 34.617188 259.914062 33.988281 258.582031 33.425781 257.222656 C 32.863281 255.859375 32.367188 254.472656 31.9375 253.0625 C 31.511719 251.652344 31.152344 250.222656 30.863281 248.777344 C 30.578125 247.332031 30.359375 245.878906 30.214844 244.410156 C 30.070312 242.945312 30 241.472656 30 240 L 30 75 C 30 73.527344 30.070312 72.054688 30.214844 70.589844 C 30.359375 69.121094 30.578125 67.667969 30.863281 66.222656 C 31.152344 64.777344 31.511719 63.347656 31.9375 61.9375 C 32.367188 60.527344 32.863281 59.140625 33.425781 57.777344 C 33.988281 56.417969 34.617188 55.085938 35.3125 53.789062 C 36.007812 52.488281 36.765625 51.226562 37.582031 50 C 38.402344 48.773438 39.28125 47.589844 40.214844 46.453125 C 41.148438 45.3125 42.136719 44.222656 43.179688 43.179688 C 44.222656 42.136719 45.3125 41.148438 46.453125 40.214844 C 47.589844 39.28125 48.773438 38.402344 50 37.582031 C 51.226562 36.765625 52.488281 36.007812 53.789062 35.3125 C 55.085938 34.617188 56.417969 33.988281 57.777344 33.425781 C 59.140625 32.863281 60.527344 32.367188 61.9375 31.9375 C 63.347656 31.511719 64.777344 31.152344 66.222656 30.863281 C 67.667969 30.578125 69.121094 30.359375 70.589844 30.214844 C 72.054688 30.070312 73.527344 30 75 30 L 735 30 C 736.472656 30 737.945312 30.070312 739.410156 30.214844 C 740.878906 30.359375 742.332031 30.578125 743.777344 30.863281 C 745.222656 31.152344 746.652344 31.511719 748.0625 31.9375 C 749.472656 32.367188 750.859375 32.863281 752.21875 33.425781 C 753.582031 33.988281 754.914062 34.617188 756.210938 35.3125 C 757.511719 36.007812 758.773438 36.765625 760 37.582031 C 761.226562 38.402344 762.410156 39.28125 763.546875 40.214844 C 764.6875 41.148438 765.777344 42.136719 766.820312 43.179688 C 767.863281 44.222656 768.851562 45.3125 769.785156 46.453125 C 770.71875 47.589844 771.597656 48.773438 772.417969 50 C 773.234375 51.226562 773.992188 52.488281 774.6875 53.789062 C 775.382812 55.085938 776.011719 56.417969 776.574219 57.777344 C 777.136719 59.140625 777.632812 60.527344 778.0625 61.9375 C 778.488281 63.347656 778.847656 64.777344 779.136719 66.222656 C 779.421875 67.667969 779.640625 69.121094 779.785156 70.589844 C 779.929688 72.054688 780 73.527344 780 75 Z M 137.25 153.449219 C 139.097656 151.992188 140.753906 150.335938 142.210938 148.488281 C 143.671875 146.640625 144.898438 144.648438 145.886719 142.511719 C 146.878906 140.375 147.605469 138.152344 148.074219 135.84375 C 148.539062 133.535156 148.730469 131.203125 148.648438 128.851562 C 148.648438 125.214844 148.097656 121.664062 147 118.199219 C 145.941406 114.773438 144.34375 111.625 142.199219 108.75 C 140.082031 106.097656 137.632812 103.796875 134.851562 101.851562 C 131.46875 99.566406 127.765625 98.066406 123.75 97.351562 C 119.28125 96.578125 114.78125 96.226562 110.25 96.300781 L 76.949219 96.300781 C 75.8125 96.210938 74.675781 96.242188 73.546875 96.394531 C 72.414062 96.546875 71.3125 96.820312 70.238281 97.207031 C 69.164062 97.59375 68.144531 98.089844 67.179688 98.695312 C 66.210938 99.304688 65.316406 100.003906 64.5 100.800781 C 63.027344 102.726562 61.953125 104.855469 61.28125 107.183594 C 60.609375 109.511719 60.382812 111.886719 60.601562 114.300781 L 60.601562 200.699219 C 60.40625 203.078125 60.632812 205.414062 61.277344 207.710938 C 61.921875 210.007812 62.945312 212.121094 64.351562 214.050781 C 65.148438 214.902344 66.03125 215.648438 67.003906 216.292969 C 67.972656 216.9375 69.007812 217.460938 70.101562 217.863281 C 71.195312 218.269531 72.320312 218.539062 73.476562 218.679688 C 74.632812 218.824219 75.792969 218.828125 76.949219 218.699219 L 108.300781 218.699219 C 113.320312 218.753906 118.320312 218.453125 123.300781 217.800781 C 127.425781 217.257812 131.378906 216.109375 135.148438 214.351562 C 138.03125 212.949219 140.636719 211.148438 142.964844 208.945312 C 145.292969 206.746094 147.238281 204.246094 148.800781 201.449219 C 150.410156 198.507812 151.621094 195.410156 152.433594 192.160156 C 153.246094 188.90625 153.636719 185.601562 153.601562 182.25 C 153.699219 180.789062 153.691406 179.328125 153.578125 177.867188 C 153.464844 176.410156 153.246094 174.964844 152.921875 173.535156 C 152.59375 172.109375 152.167969 170.710938 151.636719 169.347656 C 151.109375 167.980469 150.480469 166.664062 149.757812 165.390625 C 149.035156 164.117188 148.222656 162.902344 147.324219 161.746094 C 146.421875 160.59375 145.441406 159.511719 144.382812 158.5 C 143.324219 157.488281 142.195312 156.558594 141 155.714844 C 139.804688 154.867188 138.554688 154.113281 137.25 153.449219 Z M 88.800781 121.199219 L 102 121.199219 C 107.164062 120.964844 112.164062 121.765625 117 123.601562 C 117 123.601562 120.449219 125.550781 120.449219 131.851562 C 120.484375 133.910156 120.035156 135.863281 119.101562 137.699219 C 118.65625 138.6875 118.046875 139.558594 117.269531 140.308594 C 116.492188 141.0625 115.601562 141.640625 114.601562 142.050781 C 111.125 143.097656 107.574219 143.550781 103.949219 143.398438 L 88.949219 143.398438 Z M 107.550781 193.800781 L 88.800781 193.800781 L 88.800781 167.699219 L 106.800781 167.699219 C 109.402344 167.4375 111.984375 167.578125 114.542969 168.113281 C 117.105469 168.652344 119.523438 169.5625 121.800781 170.851562 C 122.484375 171.433594 123.09375 172.09375 123.621094 172.824219 C 124.148438 173.554688 124.582031 174.339844 124.921875 175.175781 C 125.261719 176.007812 125.496094 176.875 125.628906 177.765625 C 125.757812 178.65625 125.785156 179.550781 125.699219 180.449219 C 124.949219 186.601562 123 193.800781 107.550781 193.800781 Z M 242.550781 102.148438 C 240.601562 101.019531 238.589844 100.003906 236.523438 99.101562 C 234.457031 98.203125 232.347656 97.421875 230.191406 96.765625 C 228.035156 96.109375 225.847656 95.574219 223.628906 95.167969 C 221.410156 94.765625 219.179688 94.484375 216.929688 94.335938 C 214.679688 94.1875 212.429688 94.167969 210.175781 94.277344 C 207.925781 94.386719 205.6875 94.625 203.460938 94.992188 C 201.238281 95.359375 199.042969 95.855469 196.875 96.472656 C 194.707031 97.09375 192.582031 97.835938 190.5 98.699219 C 187.191406 100.164062 184.09375 101.984375 181.203125 104.160156 C 178.316406 106.339844 175.714844 108.820312 173.398438 111.601562 C 168.609375 117.625 165.109375 124.328125 162.898438 131.699219 C 160.421875 140.019531 159.222656 148.519531 159.300781 157.199219 C 159.25 165.765625 160.402344 174.164062 162.75 182.398438 C 164.773438 189.878906 168.226562 196.628906 173.101562 202.648438 C 175.402344 205.53125 178.007812 208.101562 180.925781 210.359375 C 183.84375 212.613281 186.984375 214.496094 190.351562 216 C 193.976562 217.636719 197.738281 218.859375 201.636719 219.667969 C 205.53125 220.480469 209.46875 220.855469 213.449219 220.800781 C 221.480469 220.886719 229.179688 219.335938 236.550781 216.148438 C 239.929688 214.664062 243.078125 212.792969 245.996094 210.535156 C 248.914062 208.277344 251.515625 205.699219 253.800781 202.800781 C 258.609375 196.800781 262.058594 190.101562 264.148438 182.699219 C 266.511719 174.414062 267.664062 165.964844 267.601562 157.351562 C 267.714844 151.691406 267.242188 146.082031 266.179688 140.519531 C 265.117188 134.960938 263.492188 129.570312 261.300781 124.351562 C 259.375 119.78125 256.816406 115.605469 253.617188 111.820312 C 250.417969 108.035156 246.730469 104.8125 242.550781 102.148438 Z M 235.351562 178.648438 C 234.410156 181.078125 233.148438 183.324219 231.570312 185.390625 C 229.988281 187.457031 228.148438 189.257812 226.050781 190.800781 C 224.414062 191.914062 222.660156 192.800781 220.789062 193.453125 C 218.921875 194.105469 216.996094 194.503906 215.023438 194.648438 C 213.046875 194.792969 211.085938 194.679688 209.140625 194.308594 C 207.195312 193.933594 205.332031 193.316406 203.550781 192.449219 C 200.328125 190.875 197.675781 188.625 195.601562 185.699219 C 192.910156 182.128906 191.011719 178.179688 189.898438 173.851562 C 188.511719 168.386719 187.859375 162.835938 187.949219 157.199219 C 187.851562 151.613281 188.5 146.113281 189.898438 140.699219 C 190.945312 136.496094 192.746094 132.648438 195.300781 129.148438 C 197.425781 126.320312 200.078125 124.121094 203.25 122.550781 C 206.292969 120.902344 209.542969 120.054688 213 120 C 215.40625 119.945312 217.765625 120.265625 220.070312 120.957031 C 222.378906 121.648438 224.519531 122.679688 226.5 124.050781 C 228.582031 125.601562 230.390625 127.429688 231.921875 129.523438 C 233.457031 131.621094 234.648438 133.894531 235.5 136.351562 C 237.945312 142.984375 239.09375 149.832031 238.949219 156.898438 C 239.214844 164.390625 238.015625 171.640625 235.351562 178.648438 Z M 356.398438 102.148438 C 354.449219 101.019531 352.441406 100.003906 350.375 99.101562 C 348.308594 98.203125 346.195312 97.421875 344.039062 96.765625 C 341.882812 96.109375 339.695312 95.574219 337.480469 95.167969 C 335.261719 94.765625 333.027344 94.484375 330.777344 94.335938 C 328.527344 94.1875 326.277344 94.167969 324.027344 94.277344 C 321.773438 94.386719 319.535156 94.625 317.3125 94.992188 C 315.089844 95.359375 312.890625 95.855469 310.726562 96.472656 C 308.558594 97.09375 306.433594 97.835938 304.351562 98.699219 C 301.042969 100.164062 297.941406 101.984375 295.054688 104.160156 C 292.167969 106.339844 289.566406 108.820312 287.25 111.601562 C 282.460938 117.625 278.960938 124.328125 276.75 131.699219 C 274.269531 140.019531 273.070312 148.519531 273.148438 157.199219 C 273.101562 165.765625 274.25 174.164062 276.601562 182.398438 C 278.625 189.878906 282.074219 196.628906 286.949219 202.648438 C 289.234375 205.546875 291.835938 208.128906 294.753906 210.386719 C 297.671875 212.644531 300.820312 214.515625 304.199219 216 C 307.828125 217.636719 311.589844 218.859375 315.484375 219.667969 C 319.382812 220.480469 323.320312 220.855469 327.300781 220.800781 C 335.328125 220.886719 343.027344 219.335938 350.398438 216.148438 C 353.777344 214.664062 356.925781 212.792969 359.847656 210.535156 C 362.765625 208.277344 365.367188 205.699219 367.648438 202.800781 C 372.429688 196.785156 375.878906 190.085938 378 182.699219 C 380.3125 174.40625 381.414062 165.957031 381.300781 157.351562 C 381.4375 151.695312 380.988281 146.089844 379.953125 140.527344 C 378.917969 134.96875 377.316406 129.574219 375.148438 124.351562 C 373.246094 119.769531 370.695312 115.585938 367.496094 111.796875 C 364.296875 108.007812 360.597656 104.792969 356.398438 102.148438 Z M 349.199219 178.648438 C 348.261719 181.078125 347 183.324219 345.417969 185.390625 C 343.835938 187.457031 341.996094 189.257812 339.898438 190.800781 C 338.261719 191.914062 336.511719 192.800781 334.640625 193.453125 C 332.769531 194.105469 330.847656 194.503906 328.871094 194.648438 C 326.894531 194.792969 324.9375 194.679688 322.992188 194.308594 C 321.046875 193.933594 319.183594 193.316406 317.398438 192.449219 C 314.175781 190.875 311.527344 188.625 309.449219 185.699219 C 306.761719 182.128906 304.863281 178.179688 303.75 173.851562 C 302.296875 168.394531 301.597656 162.84375 301.648438 157.199219 C 301.59375 151.605469 302.296875 146.105469 303.75 140.699219 C 304.796875 136.496094 306.59375 132.648438 309.148438 129.148438 C 311.253906 126.363281 313.855469 124.164062 316.949219 122.550781 C 320.074219 121.03125 323.375 120.28125 326.851562 120.300781 C 329.257812 120.253906 331.613281 120.578125 333.917969 121.269531 C 336.222656 121.960938 338.367188 122.988281 340.351562 124.351562 C 342.433594 125.902344 344.238281 127.726562 345.773438 129.824219 C 347.308594 131.921875 348.5 134.195312 349.351562 136.648438 C 351.792969 143.28125 352.945312 150.132812 352.800781 157.199219 C 353.023438 164.589844 351.824219 171.738281 349.199219 178.648438 Z M 485.101562 198.898438 C 486.308594 201.621094 486.957031 204.472656 487.050781 207.449219 C 487.050781 208.347656 486.960938 209.234375 486.785156 210.109375 C 486.605469 210.988281 486.34375 211.839844 485.992188 212.664062 C 485.644531 213.488281 485.214844 214.273438 484.707031 215.011719 C 484.203125 215.75 483.625 216.429688 482.980469 217.050781 C 482.339844 217.675781 481.640625 218.226562 480.882812 218.710938 C 480.128906 219.191406 479.332031 219.59375 478.496094 219.914062 C 477.660156 220.238281 476.800781 220.472656 475.917969 220.621094 C 475.035156 220.769531 474.144531 220.832031 473.25 220.800781 C 471.585938 220.855469 469.957031 220.636719 468.363281 220.148438 C 466.769531 219.660156 465.296875 218.929688 463.949219 217.949219 C 461.605469 216.074219 459.707031 213.824219 458.25 211.199219 L 454.800781 204.898438 L 432.75 166.949219 L 420 180 L 420 202.351562 C 420.171875 204.679688 419.933594 206.964844 419.289062 209.210938 C 418.644531 211.453125 417.628906 213.515625 416.25 215.398438 C 415.738281 216.03125 415.171875 216.613281 414.554688 217.140625 C 413.933594 217.667969 413.269531 218.136719 412.566406 218.539062 C 411.859375 218.945312 411.125 219.285156 410.355469 219.550781 C 409.585938 219.820312 408.800781 220.019531 407.996094 220.140625 C 407.191406 220.265625 406.382812 220.316406 405.570312 220.289062 C 404.757812 220.261719 403.953125 220.164062 403.15625 219.988281 C 402.363281 219.8125 401.589844 219.566406 400.839844 219.25 C 400.09375 218.933594 399.378906 218.550781 398.699219 218.101562 C 396.4375 216.703125 394.738281 214.800781 393.601562 212.398438 C 392.636719 210.355469 392.089844 208.207031 391.949219 205.949219 C 391.949219 203.851562 391.949219 201 391.949219 197.25 L 391.949219 111.75 C 391.828125 109.449219 392.0625 107.183594 392.652344 104.953125 C 393.242188 102.726562 394.15625 100.640625 395.398438 98.699219 C 395.726562 98.328125 396.070312 97.972656 396.4375 97.636719 C 396.800781 97.300781 397.179688 96.984375 397.578125 96.6875 C 397.976562 96.390625 398.390625 96.117188 398.816406 95.867188 C 399.242188 95.613281 399.683594 95.386719 400.132812 95.179688 C 400.585938 94.976562 401.046875 94.796875 401.519531 94.640625 C 401.988281 94.484375 402.464844 94.355469 402.949219 94.25 C 403.433594 94.144531 403.925781 94.066406 404.417969 94.011719 C 404.910156 93.960938 405.402344 93.933594 405.898438 93.933594 C 406.394531 93.933594 406.890625 93.960938 407.382812 94.011719 C 407.875 94.066406 408.363281 94.144531 408.847656 94.25 C 409.332031 94.355469 409.8125 94.484375 410.28125 94.640625 C 410.753906 94.796875 411.214844 94.976562 411.664062 95.179688 C 412.117188 95.386719 412.554688 95.613281 412.984375 95.867188 C 413.410156 96.117188 413.824219 96.390625 414.222656 96.6875 C 414.617188 96.984375 415 97.300781 415.363281 97.636719 C 415.726562 97.972656 416.074219 98.328125 416.398438 98.699219 C 417.78125 100.582031 418.792969 102.648438 419.4375 104.890625 C 420.082031 107.136719 420.320312 109.421875 420.148438 111.75 L 420.148438 141.75 L 454.5 101.699219 C 456.160156 99.660156 458.011719 97.808594 460.050781 96.148438 C 460.722656 95.695312 461.425781 95.300781 462.164062 94.964844 C 462.90625 94.628906 463.667969 94.363281 464.453125 94.160156 C 465.238281 93.957031 466.035156 93.824219 466.84375 93.757812 C 467.65625 93.695312 468.464844 93.699219 469.269531 93.773438 C 470.078125 93.847656 470.875 93.992188 471.65625 94.203125 C 472.441406 94.414062 473.199219 94.691406 473.9375 95.035156 C 474.671875 95.378906 475.371094 95.78125 476.035156 96.246094 C 476.703125 96.710938 477.324219 97.230469 477.898438 97.800781 C 479.089844 99.148438 480.007812 100.660156 480.652344 102.339844 C 481.296875 104.015625 481.628906 105.753906 481.648438 107.550781 C 481.546875 109.960938 481.003906 112.269531 480.019531 114.472656 C 479.035156 116.671875 477.679688 118.617188 475.949219 120.300781 L 452.550781 145.5 L 480.300781 190.5 C 482.152344 193.15625 483.753906 195.957031 485.101562 198.898438 Z M 523.5 99.148438 C 524.878906 101.03125 525.894531 103.097656 526.539062 105.339844 C 527.183594 107.585938 527.421875 109.871094 527.25 112.199219 L 527.25 202.199219 C 527.40625 204.527344 527.164062 206.8125 526.519531 209.054688 C 525.875 211.296875 524.867188 213.359375 523.5 215.25 C 522.863281 216.027344 522.152344 216.722656 521.359375 217.34375 C 520.566406 217.960938 519.71875 218.484375 518.808594 218.910156 C 517.902344 219.339844 516.957031 219.664062 515.976562 219.878906 C 514.996094 220.097656 514.003906 220.203125 513 220.199219 C 512.015625 220.203125 511.046875 220.09375 510.089844 219.875 C 509.132812 219.660156 508.210938 219.335938 507.328125 218.90625 C 506.441406 218.476562 505.617188 217.953125 504.855469 217.335938 C 504.089844 216.71875 503.40625 216.023438 502.800781 215.25 C 501.441406 213.355469 500.441406 211.289062 499.796875 209.046875 C 499.15625 206.808594 498.90625 204.527344 499.050781 202.199219 L 499.050781 112.199219 C 498.894531 109.882812 499.128906 107.609375 499.746094 105.371094 C 500.363281 103.132812 501.332031 101.058594 502.648438 99.148438 C 502.972656 98.777344 503.316406 98.421875 503.675781 98.089844 C 504.035156 97.753906 504.414062 97.4375 504.808594 97.140625 C 505.203125 96.847656 505.613281 96.574219 506.035156 96.320312 C 506.460938 96.070312 506.898438 95.84375 507.34375 95.636719 C 507.792969 95.433594 508.25 95.253906 508.71875 95.097656 C 509.1875 94.941406 509.660156 94.8125 510.144531 94.707031 C 510.625 94.601562 511.109375 94.523438 511.601562 94.472656 C 512.089844 94.417969 512.582031 94.390625 513.074219 94.390625 C 513.566406 94.390625 514.058594 94.417969 514.550781 94.472656 C 515.039062 94.523438 515.523438 94.601562 516.007812 94.707031 C 516.488281 94.8125 516.964844 94.941406 517.429688 95.097656 C 517.898438 95.253906 518.355469 95.433594 518.804688 95.636719 C 519.253906 95.84375 519.6875 96.070312 520.113281 96.320312 C 520.539062 96.574219 520.945312 96.847656 521.339844 97.140625 C 521.734375 97.4375 522.113281 97.753906 522.472656 98.089844 C 522.835938 98.421875 523.175781 98.777344 523.5 99.148438 Z M 633.601562 99.148438 C 634.808594 100.964844 635.691406 102.925781 636.257812 105.03125 C 636.824219 107.132812 637.035156 109.273438 636.898438 111.449219 L 636.898438 201.449219 C 636.898438 217.800781 627.601562 220.351562 621.898438 220.351562 C 619.675781 220.355469 617.523438 219.957031 615.449219 219.148438 C 613.402344 218.195312 611.550781 216.945312 609.898438 215.398438 C 608.390625 213.753906 607.089844 211.953125 606 210 C 604.800781 208.351562 603.75 206.398438 602.550781 204.601562 L 570 150 L 570 203.699219 C 570.113281 205.882812 569.875 208.027344 569.285156 210.132812 C 568.695312 212.238281 567.785156 214.195312 566.550781 216 C 566.25 216.367188 565.925781 216.71875 565.585938 217.050781 C 565.246094 217.382812 564.890625 217.695312 564.515625 217.988281 C 564.140625 218.28125 563.75 218.550781 563.34375 218.800781 C 562.941406 219.050781 562.523438 219.277344 562.09375 219.480469 C 561.664062 219.683594 561.222656 219.863281 560.773438 220.019531 C 560.324219 220.171875 559.867188 220.300781 559.402344 220.40625 C 558.9375 220.511719 558.46875 220.589844 557.996094 220.640625 C 557.523438 220.695312 557.050781 220.71875 556.574219 220.71875 C 556.097656 220.71875 555.625 220.695312 555.152344 220.640625 C 554.679688 220.589844 554.210938 220.511719 553.746094 220.40625 C 553.28125 220.300781 552.828125 220.171875 552.375 220.019531 C 551.925781 219.863281 551.488281 219.683594 551.058594 219.480469 C 550.628906 219.277344 550.210938 219.050781 549.804688 218.800781 C 549.398438 218.550781 549.011719 218.28125 548.636719 217.988281 C 548.261719 217.695312 547.902344 217.382812 547.5625 217.050781 C 547.222656 216.71875 546.902344 216.367188 546.601562 216 C 545.335938 214.238281 544.40625 212.3125 543.8125 210.226562 C 543.21875 208.140625 543 206.015625 543.148438 203.851562 L 543.148438 114.898438 C 543.074219 111.492188 543.472656 108.144531 544.351562 104.851562 C 544.921875 103.3125 545.707031 101.890625 546.703125 100.589844 C 547.699219 99.285156 548.867188 98.15625 550.199219 97.199219 C 551.273438 96.425781 552.429688 95.800781 553.664062 95.332031 C 554.902344 94.863281 556.179688 94.558594 557.496094 94.429688 C 558.816406 94.296875 560.125 94.339844 561.433594 94.554688 C 562.738281 94.769531 563.996094 95.152344 565.199219 95.699219 C 566.988281 96.589844 568.539062 97.789062 569.851562 99.300781 C 571.175781 100.882812 572.324219 102.582031 573.300781 104.398438 L 576.601562 110.101562 L 609.75 166.199219 L 609.75 111.300781 C 609.613281 109.125 609.828125 106.984375 610.390625 104.878906 C 610.957031 102.773438 611.84375 100.816406 613.050781 99 C 613.355469 98.613281 613.679688 98.242188 614.027344 97.890625 C 614.371094 97.539062 614.738281 97.207031 615.121094 96.898438 C 615.503906 96.585938 615.902344 96.300781 616.320312 96.035156 C 616.738281 95.769531 617.167969 95.527344 617.609375 95.3125 C 618.054688 95.097656 618.507812 94.90625 618.972656 94.742188 C 619.4375 94.578125 619.910156 94.441406 620.394531 94.328125 C 620.875 94.21875 621.359375 94.136719 621.847656 94.078125 C 622.339844 94.023438 622.832031 93.996094 623.324219 93.996094 C 623.820312 93.996094 624.308594 94.023438 624.800781 94.078125 C 625.289062 94.136719 625.777344 94.21875 626.257812 94.328125 C 626.738281 94.441406 627.210938 94.578125 627.675781 94.742188 C 628.140625 94.90625 628.597656 95.097656 629.039062 95.3125 C 629.484375 95.527344 629.914062 95.769531 630.328125 96.035156 C 630.746094 96.300781 631.144531 96.585938 631.53125 96.898438 C 631.914062 97.207031 632.277344 97.539062 632.625 97.890625 C 632.96875 98.242188 633.296875 98.613281 633.601562 99 Z M 751.351562 157.5 C 752.261719 159.175781 752.921875 160.941406 753.328125 162.804688 C 753.738281 164.667969 753.878906 166.546875 753.75 168.449219 L 753.75 190.5 C 753.820312 193.242188 753.519531 195.941406 752.851562 198.601562 C 752.0625 200.972656 750.8125 203.074219 749.101562 204.898438 C 747.242188 206.632812 745.242188 208.183594 743.101562 209.550781 C 737.144531 213.164062 730.84375 216.011719 724.199219 218.101562 C 717.738281 220 711.136719 220.949219 704.398438 220.949219 C 696.386719 221.050781 688.6875 219.550781 681.300781 216.449219 C 677.847656 215.050781 674.601562 213.273438 671.558594 211.121094 C 668.519531 208.964844 665.765625 206.492188 663.300781 203.699219 C 658.140625 197.789062 654.390625 191.089844 652.050781 183.601562 C 649.296875 175.167969 647.996094 166.519531 648.148438 157.648438 C 648.023438 148.898438 649.273438 140.347656 651.898438 132 C 654.207031 124.402344 657.957031 117.605469 663.148438 111.601562 C 665.65625 108.785156 668.457031 106.300781 671.550781 104.148438 C 674.640625 101.992188 677.941406 100.226562 681.449219 98.851562 C 689.144531 95.71875 697.144531 94.21875 705.449219 94.351562 C 712.265625 94.269531 718.863281 95.417969 725.25 97.800781 C 730.503906 99.734375 735.203125 102.585938 739.351562 106.351562 C 742.789062 109.566406 745.589844 113.265625 747.75 117.449219 C 749.480469 120.894531 750.433594 124.546875 750.601562 128.398438 C 750.59375 130.257812 750.257812 132.054688 749.582031 133.789062 C 748.910156 135.519531 747.949219 137.074219 746.699219 138.449219 C 746.21875 139 745.695312 139.503906 745.128906 139.960938 C 744.558594 140.417969 743.957031 140.824219 743.316406 141.179688 C 742.679688 141.53125 742.015625 141.828125 741.324219 142.066406 C 740.636719 142.304688 739.929688 142.480469 739.210938 142.597656 C 738.488281 142.710938 737.765625 142.765625 737.035156 142.753906 C 736.304688 142.742188 735.582031 142.671875 734.867188 142.535156 C 734.148438 142.398438 733.449219 142.203125 732.765625 141.945312 C 732.082031 141.6875 731.429688 141.371094 730.800781 141 C 728.933594 139.886719 727.386719 138.4375 726.148438 136.648438 C 724.214844 133.164062 722.0625 129.8125 719.699219 126.601562 C 718.019531 124.601562 716.019531 123 713.699219 121.800781 C 712.039062 121.097656 710.324219 120.570312 708.554688 120.210938 C 706.789062 119.855469 705.003906 119.675781 703.199219 119.675781 C 701.398438 119.675781 699.609375 119.855469 697.84375 120.210938 C 696.074219 120.570312 694.363281 121.097656 692.699219 121.800781 C 689.34375 123.488281 686.542969 125.839844 684.300781 128.851562 C 681.65625 132.375 679.808594 136.273438 678.75 140.550781 C 677.320312 145.804688 676.621094 151.15625 676.648438 156.601562 C 676.480469 159.128906 676.515625 161.652344 676.757812 164.175781 C 677 166.695312 677.445312 169.183594 678.097656 171.632812 C 678.746094 174.082031 679.59375 176.460938 680.632812 178.769531 C 681.675781 181.082031 682.898438 183.289062 684.300781 185.398438 C 685.472656 187.015625 686.828125 188.460938 688.371094 189.730469 C 689.914062 191 691.589844 192.054688 693.402344 192.894531 C 695.210938 193.734375 697.101562 194.332031 699.066406 194.691406 C 701.03125 195.046875 703.007812 195.148438 705 195 C 709.261719 195.070312 713.414062 194.421875 717.449219 193.050781 C 721.070312 191.875 724.519531 190.324219 727.800781 188.398438 L 727.800781 175.648438 L 715.351562 175.648438 C 713.460938 175.773438 711.597656 175.621094 709.757812 175.183594 C 707.917969 174.75 706.183594 174.054688 704.550781 173.101562 C 703.769531 172.5625 703.070312 171.933594 702.453125 171.214844 C 701.839844 170.492188 701.328125 169.703125 700.917969 168.847656 C 700.511719 167.992188 700.21875 167.097656 700.046875 166.167969 C 699.875 165.234375 699.824219 164.296875 699.898438 163.351562 C 699.839844 161.664062 700.125 160.035156 700.75 158.46875 C 701.378906 156.902344 702.292969 155.53125 703.5 154.351562 C 704.730469 153.128906 706.15625 152.203125 707.773438 151.578125 C 709.390625 150.953125 711.066406 150.675781 712.800781 150.75 L 736.5 150.75 C 739.335938 150.703125 742.136719 151.003906 744.898438 151.648438 C 746.285156 152.175781 747.535156 152.929688 748.648438 153.910156 C 749.757812 154.890625 750.660156 156.039062 751.351562 157.351562 Z M 751.351562 157.5 "/></g></svg>