<svg xmlns="http://www.w3.org/2000/svg" xmlns:xlink="http://www.w3.org/1999/xlink" width="1092" zoomAndPan="magnify" viewBox="0 0 818.88 809.999993" height="1080" preserveAspectRatio="xMidYMid meet" version="1.2"><defs><clipPath id="a71dfe98a3"><path d="M 4 0.0585938 L 814 0.0585938 L 814 809.941406 L 4 809.941406 Z M 4 0.0585938 "/></clipPath></defs><g id="8601c9e4a0"><g clip-rule="nonzero" clip-path="url(#a71dfe98a3)"><path style=" stroke:none;fill-rule:nonzero;fill:#000000;fill-opacity:1;" d="M 127.625 782.054688 L 133.234375 783.433594 C 140.597656 785.367188 147.863281 787.117188 155.226562 788.679688 C 155.410156 788.679688 155.5 788.679688 155.6875 788.679688 C 219.722656 802.945312 292.316406 809.847656 377.605469 809.847656 L 440.445312 809.847656 C 497.398438 809.847656 547.359375 806.902344 593.363281 800.738281 C 593.546875 800.738281 593.636719 800.738281 593.820312 800.738281 C 618.480469 797.425781 640.929688 793.558594 662.367188 788.773438 C 662.550781 788.773438 662.640625 788.773438 662.828125 788.773438 C 670.277344 787.207031 677.546875 785.460938 684.816406 783.527344 L 690.519531 782.054688 C 728.703125 772.484375 792.554688 756.46875 806.265625 713.398438 C 815.742188 684.039062 816.476562 648.882812 808.566406 605.90625 C 800.652344 562.097656 787.957031 513.046875 738.363281 485.25 C 714.167969 471.722656 686.933594 462.152344 657.582031 456.90625 C 647.277344 455.066406 637.433594 454.144531 627.773438 453.226562 C 623.261719 452.765625 618.847656 452.304688 614.339844 451.84375 C 614.246094 451.84375 614.0625 451.84375 613.972656 451.84375 C 608.449219 451.199219 603.574219 450.371094 599.066406 449.453125 C 588.023438 447.058594 578.273438 443.285156 569.441406 437.949219 C 560.792969 432.792969 552.785156 426.628906 544.320312 420.183594 L 543.402344 419.449219 C 536.777344 414.203125 528.40625 412.914062 520.859375 415.492188 C 515.984375 399.292969 513.222656 381.070312 513.222656 361.835938 C 513.222656 359.351562 513.316406 356.773438 513.40625 354.289062 C 524.722656 338.644531 534.015625 320.789062 541.101562 301.1875 C 548.832031 314.808594 563.273438 324.105469 580.019531 324.105469 C 604.863281 324.105469 625.011719 303.949219 625.011719 279.101562 L 625.011719 225.078125 C 625.011719 213.207031 620.320312 201.886719 611.761719 193.234375 C 603.207031 184.765625 591.890625 180.074219 580.019531 180.074219 C 576.433594 180.074219 572.9375 180.625 569.53125 181.453125 C 570.453125 174.460938 571.003906 167.28125 571.003906 160.101562 C 571.003906 71.84375 498.59375 0.0585938 409.625 0.0585938 C 365.644531 0.0585938 324.792969 17.636719 294.617188 49.480469 C 262.320312 83.53125 245.667969 129.824219 247.417969 180.074219 C 247.417969 180.074219 247.230469 180.074219 247.140625 180.074219 C 222.296875 180.074219 202.148438 200.230469 202.148438 225.078125 L 202.148438 279.101562 C 202.148438 303.949219 222.296875 324.105469 247.140625 324.105469 C 260.480469 324.105469 272.71875 318.121094 281 308.640625 C 287.347656 324.65625 295.261719 339.472656 304.738281 352.816406 C 304.921875 355.855469 305.011719 358.890625 305.011719 361.929688 C 305.011719 381.070312 302.34375 399.292969 297.375 415.492188 C 289.832031 412.914062 281.457031 414.109375 274.925781 419.355469 L 273.914062 420.183594 C 265.449219 426.628906 257.445312 432.792969 248.796875 437.949219 C 239.964844 443.285156 230.304688 447.058594 219.171875 449.453125 C 209.601562 451.476562 199.847656 452.394531 189.542969 453.410156 C 180.25 454.328125 170.683594 455.25 160.746094 457 C 131.304688 462.242188 104.160156 471.816406 79.964844 485.34375 C 30.371094 513.136719 17.675781 562.191406 9.761719 605.90625 C 1.851562 648.882812 2.585938 684.039062 11.972656 713.398438 C 25.679688 756.46875 89.53125 772.574219 127.714844 782.148438 Z M 518.46875 439.695312 L 522.054688 435.832031 C 522.054688 435.832031 522.238281 435.648438 522.332031 435.554688 L 523.4375 434.359375 C 523.4375 434.359375 524.082031 433.898438 524.355469 433.621094 C 526.105469 432.058594 529.234375 431.046875 532.175781 433.4375 L 533.1875 434.265625 C 541.652344 440.800781 550.484375 447.519531 559.960938 453.226562 C 566.035156 456.90625 572.382812 459.941406 579.191406 462.429688 L 458.570312 573.511719 C 457.742188 574.339844 456.730469 574.339844 456.179688 574.246094 C 455.628906 574.246094 454.613281 573.878906 453.972656 572.773438 L 421.03125 518.9375 L 489.210938 467.765625 C 500.160156 459.484375 509.542969 449.453125 518.558594 439.789062 Z M 408.980469 505.316406 L 339.699219 453.316406 C 329.945312 445.953125 321.574219 436.933594 312.648438 427.363281 L 312.28125 426.996094 C 317.894531 410.980469 321.296875 393.035156 322.308594 373.984375 C 347.425781 399.753906 377.605469 413.925781 409.441406 413.925781 C 441.273438 413.925781 470.625 400.121094 495.558594 374.90625 C 496.664062 393.589844 500.066406 411.257812 505.585938 426.996094 L 505.21875 427.363281 C 496.292969 436.933594 487.828125 445.953125 478.167969 453.316406 L 408.886719 505.316406 Z M 559.59375 207.40625 C 560.605469 206.210938 561.804688 205.015625 562.90625 204.09375 C 567.785156 200.230469 573.855469 198.019531 579.929688 198.019531 C 587.105469 198.019531 593.914062 200.875 598.972656 205.84375 C 604.125 210.996094 606.886719 217.808594 606.886719 224.984375 L 606.886719 279.007812 C 606.886719 293.917969 594.742188 305.972656 579.929688 305.972656 C 565.117188 305.972656 552.96875 293.824219 552.96875 279.007812 L 552.96875 224.984375 C 552.96875 220.660156 554.074219 216.425781 556.097656 212.46875 C 557.019531 210.71875 558.121094 208.972656 559.59375 207.316406 Z M 274.007812 279.007812 C 274.007812 280.847656 273.820312 282.691406 273.546875 284.160156 C 273.269531 285.542969 272.902344 286.832031 272.257812 288.304688 C 268.484375 298.886719 258.363281 305.972656 246.957031 305.972656 C 232.050781 305.972656 220 293.824219 220 279.007812 L 220 224.984375 C 220 210.078125 232.144531 198.019531 246.957031 198.019531 C 249.441406 198.019531 251.832031 198.386719 254.226562 199.03125 C 258.089844 200.042969 261.863281 202.070312 264.621094 204.554688 L 266 205.84375 C 271.152344 210.996094 273.914062 217.808594 273.914062 224.984375 L 273.914062 279.007812 Z M 278.882812 193.140625 L 277.871094 192.128906 C 277.871094 192.128906 277.132812 191.394531 277.132812 191.394531 C 273.636719 188.265625 269.589844 185.78125 265.449219 183.9375 L 265.449219 182.835938 C 262.964844 136.082031 277.960938 93.105469 307.679688 61.8125 C 334.453125 33.558594 370.707031 18.003906 409.625 18.003906 C 488.65625 18.003906 553.0625 81.785156 553.0625 160.101562 C 553.0625 170.871094 551.773438 181.636719 549.289062 192.222656 C 549.289062 192.222656 549.289062 192.222656 549.199219 192.222656 C 549.105469 192.222656 549.015625 192.222656 548.921875 192.222656 C 548.1875 192.222656 547.632812 192.128906 547.449219 192.039062 C 508.992188 184.582031 473.9375 162.3125 451.304688 130.929688 C 449.648438 128.71875 447.164062 127.339844 444.402344 127.246094 C 441.640625 127.246094 438.972656 128.261719 437.226562 130.375 C 401.433594 171.976562 352.210938 202.34375 298.386719 216.152344 C 297.191406 216.425781 295.71875 216.886719 293.972656 217.4375 C 293.234375 217.621094 292.316406 217.898438 291.488281 218.175781 C 290.015625 208.789062 285.875 200.136719 278.972656 193.140625 Z M 302.066406 312.046875 L 373.742188 347.847656 C 376.410156 359.90625 387.175781 368.921875 400.054688 368.921875 L 418.089844 368.921875 C 432.992188 368.921875 445.046875 356.773438 445.046875 341.957031 C 445.046875 327.140625 432.902344 314.992188 418.089844 314.992188 L 400.054688 314.992188 C 389.84375 314.992188 381.101562 320.789062 376.5 329.164062 L 292.316406 287.105469 C 292.039062 286.371094 291.855469 285.632812 291.578125 284.804688 C 291.855469 282.875 292.132812 280.847656 292.132812 279.007812 L 292.132812 236.765625 C 294.707031 236.03125 297.101562 235.292969 299.214844 234.742188 C 300.78125 234.28125 302.160156 233.820312 302.988281 233.636719 C 356.628906 219.921875 406.128906 190.566406 443.484375 150.441406 C 467.402344 179.335938 501.171875 199.953125 538.25 208.511719 C 536.132812 213.757812 535.027344 219.464844 535.027344 225.078125 L 535.027344 254.621094 C 528.773438 289.59375 515.707031 321.25 497.214844 346.007812 C 473.199219 378.3125 442.101562 396.074219 409.625 396.074219 C 377.144531 396.074219 345.035156 377.757812 320.929688 344.628906 C 313.753906 334.6875 307.496094 323.828125 302.160156 312.140625 Z M 391.039062 341.957031 C 391.039062 336.988281 395.085938 332.9375 400.054688 332.9375 L 418.089844 332.9375 C 423.058594 332.9375 427.105469 336.988281 427.105469 341.957031 C 427.105469 346.929688 423.058594 350.976562 418.089844 350.976562 L 400.054688 350.976562 C 395.085938 350.976562 391.039062 346.929688 391.039062 341.957031 Z M 257.996094 453.132812 C 267.472656 447.425781 276.304688 440.707031 284.769531 434.175781 L 285.96875 433.253906 C 288.820312 430.953125 291.949219 431.964844 293.695312 433.53125 C 293.972656 433.804688 294.523438 434.265625 294.800781 434.542969 L 295.628906 435.371094 C 295.628906 435.371094 299.585938 439.605469 299.585938 439.605469 C 308.601562 449.265625 317.984375 459.300781 328.933594 467.582031 L 397.019531 518.75 L 364.082031 572.589844 C 363.34375 573.695312 362.332031 573.972656 361.78125 574.0625 C 361.230469 574.0625 360.308594 574.0625 359.386719 573.234375 L 238.859375 462.152344 C 245.574219 459.667969 251.925781 456.722656 257.996094 453.039062 Z M 27.335938 609.035156 C 36.535156 558.324219 50.0625 522.523438 88.613281 500.898438 C 111.0625 488.382812 136.363281 479.453125 163.78125 474.578125 C 172.984375 472.917969 182.183594 472 191.109375 471.171875 C 199.941406 470.34375 209.050781 469.332031 218.066406 467.675781 L 347.152344 586.578125 C 351.015625 590.261719 356.074219 592.191406 361.414062 592.191406 C 362.332031 592.191406 363.253906 592.191406 364.265625 592.007812 C 370.519531 591.179688 376.132812 587.589844 379.445312 582.070312 L 408.980469 533.753906 L 438.605469 582.070312 C 441.917969 587.5 447.53125 591.089844 453.789062 592.007812 C 460.042969 592.835938 466.300781 590.90625 470.808594 586.671875 L 591.796875 475.21875 C 594.1875 473.011719 595.109375 469.699219 594.464844 466.753906 C 594.648438 466.753906 594.832031 466.753906 595.015625 466.84375 C 600.167969 467.949219 605.691406 468.871094 611.945312 469.605469 C 612.039062 469.605469 612.222656 469.605469 612.316406 469.605469 C 616.730469 470.160156 621.238281 470.527344 625.746094 470.988281 C 635.039062 471.90625 644.515625 472.828125 654.085938 474.484375 C 681.503906 479.453125 706.804688 488.289062 729.253906 500.804688 C 767.898438 522.433594 781.332031 558.234375 790.53125 608.941406 C 797.890625 648.882812 797.339844 681.1875 788.785156 707.691406 C 778.109375 741.191406 718.03125 756.285156 685.828125 764.386719 L 680.03125 765.859375 C 676.628906 766.777344 673.132812 767.515625 669.726562 768.34375 L 669.726562 674.835938 C 669.726562 669.867188 665.679688 665.820312 660.710938 665.820312 C 655.742188 665.820312 651.695312 669.867188 651.695312 674.835938 L 651.695312 772.484375 C 632.832031 776.53125 613.050781 779.9375 591.519531 782.792969 C 591.335938 782.792969 591.246094 782.792969 591.0625 782.792969 C 545.792969 788.867188 496.476562 791.808594 440.171875 791.808594 L 377.328125 791.808594 C 296.179688 791.808594 226.992188 785.367188 165.804688 772.390625 L 165.804688 674.839844 C 165.804688 669.867188 161.757812 665.820312 156.789062 665.820312 C 151.820312 665.820312 147.773438 669.867188 147.773438 674.839844 L 147.773438 768.34375 C 144.367188 767.515625 140.871094 766.777344 137.375 765.859375 L 131.671875 764.386719 C 99.378906 756.285156 39.390625 741.191406 28.714844 707.601562 C 20.160156 681.097656 19.609375 648.792969 27.058594 608.851562 Z M 27.335938 609.035156 "/></g><path style=" stroke:none;fill-rule:nonzero;fill:#000000;fill-opacity:1;" d="M 471.914062 737.972656 L 597.871094 737.972656 C 607.804688 737.972656 615.902344 729.871094 615.902344 719.933594 L 615.902344 683.949219 C 615.902344 674.007812 607.804688 665.910156 597.871094 665.910156 L 471.914062 665.910156 C 461.976562 665.910156 453.878906 674.007812 453.878906 683.949219 L 453.878906 719.933594 C 453.878906 729.871094 461.976562 737.972656 471.914062 737.972656 Z M 471.914062 683.949219 L 597.871094 683.949219 L 597.871094 719.933594 C 597.871094 719.933594 471.914062 719.933594 471.914062 719.933594 Z M 471.914062 683.949219 "/></g></svg>