<svg xmlns="http://www.w3.org/2000/svg" xmlns:xlink="http://www.w3.org/1999/xlink" width="1080" zoomAndPan="magnify" viewBox="0 0 810 809.999993" height="1080" preserveAspectRatio="xMidYMid meet" version="1.2"><g id="5e6a2b2003"><path style=" stroke:none;fill-rule:nonzero;fill:#000000;fill-opacity:1;" d="M 765.320312 289.699219 L 736.496094 289.699219 L 736.496094 44.679688 C 736.414062 43.191406 736.261719 41.710938 736.039062 40.234375 C 735.8125 38.761719 735.515625 37.300781 735.148438 35.855469 C 734.78125 34.410156 734.347656 32.988281 733.839844 31.585938 C 733.332031 30.183594 732.757812 28.808594 732.117188 27.460938 C 731.476562 26.117188 730.769531 24.804688 730 23.527344 C 729.230469 22.25 728.402344 21.011719 727.511719 19.816406 C 726.621094 18.621094 725.675781 17.46875 724.671875 16.367188 C 723.667969 15.261719 722.613281 14.210938 721.507812 13.210938 C 720.402344 12.210938 719.25 11.265625 718.054688 10.378906 C 716.855469 9.492188 715.617188 8.664062 714.335938 7.898438 C 713.058594 7.128906 711.746094 6.429688 710.398438 5.789062 C 709.050781 5.152344 707.675781 4.582031 706.269531 4.078125 C 704.867188 3.574219 703.441406 3.140625 701.996094 2.777344 C 700.550781 2.414062 699.089844 2.121094 697.617188 1.898438 C 696.140625 1.675781 694.660156 1.527344 693.167969 1.453125 C 691.679688 1.375 690.191406 1.371094 688.703125 1.441406 L 121.296875 1.441406 C 119.808594 1.371094 118.320312 1.375 116.832031 1.453125 C 115.339844 1.527344 113.859375 1.675781 112.382812 1.898438 C 110.910156 2.121094 109.449219 2.414062 108.003906 2.777344 C 106.558594 3.140625 105.132812 3.574219 103.730469 4.078125 C 102.324219 4.582031 100.949219 5.152344 99.601562 5.789062 C 98.253906 6.429688 96.941406 7.128906 95.664062 7.898438 C 94.382812 8.664062 93.144531 9.492188 91.945312 10.378906 C 90.75 11.265625 89.597656 12.210938 88.492188 13.210938 C 87.386719 14.210938 86.332031 15.261719 85.328125 16.367188 C 84.324219 17.46875 83.378906 18.621094 82.488281 19.816406 C 81.597656 21.011719 80.769531 22.25 80 23.527344 C 79.230469 24.804688 78.523438 26.117188 77.882812 27.460938 C 77.242188 28.808594 76.667969 30.183594 76.160156 31.585938 C 75.652344 32.988281 75.21875 34.410156 74.851562 35.855469 C 74.480469 37.300781 74.1875 38.761719 73.960938 40.234375 C 73.738281 41.710938 73.585938 43.191406 73.503906 44.679688 L 73.503906 289.699219 L 44.679688 289.699219 C 43.261719 289.699219 41.851562 289.765625 40.441406 289.90625 C 39.03125 290.042969 37.632812 290.253906 36.246094 290.527344 C 34.855469 290.804688 33.484375 291.148438 32.128906 291.558594 C 30.773438 291.96875 29.441406 292.445312 28.132812 292.988281 C 26.824219 293.53125 25.546875 294.136719 24.296875 294.804688 C 23.046875 295.46875 21.835938 296.199219 20.65625 296.984375 C 19.480469 297.769531 18.34375 298.613281 17.25 299.511719 C 16.15625 300.410156 15.105469 301.359375 14.105469 302.363281 C 13.105469 303.363281 12.15625 304.410156 11.257812 305.503906 C 10.359375 306.601562 9.515625 307.738281 8.726562 308.914062 C 7.941406 310.089844 7.214844 311.304688 6.546875 312.554688 C 5.878906 313.800781 5.273438 315.082031 4.734375 316.390625 C 4.191406 317.699219 3.714844 319.03125 3.304688 320.382812 C 2.890625 321.738281 2.546875 323.113281 2.273438 324.5 C 1.996094 325.890625 1.789062 327.289062 1.648438 328.699219 C 1.511719 330.105469 1.441406 331.519531 1.441406 332.9375 L 1.441406 477.0625 C 1.441406 478.480469 1.511719 479.894531 1.648438 481.300781 C 1.789062 482.710938 1.996094 484.109375 2.273438 485.5 C 2.546875 486.886719 2.890625 488.261719 3.304688 489.617188 C 3.714844 490.96875 4.191406 492.300781 4.734375 493.609375 C 5.273438 494.917969 5.878906 496.199219 6.546875 497.445312 C 7.214844 498.695312 7.941406 499.910156 8.726562 501.085938 C 9.515625 502.261719 10.359375 503.398438 11.257812 504.496094 C 12.15625 505.589844 13.105469 506.636719 14.105469 507.636719 C 15.105469 508.640625 16.15625 509.589844 17.25 510.488281 C 18.34375 511.386719 19.480469 512.230469 20.65625 513.015625 C 21.835938 513.800781 23.046875 514.53125 24.296875 515.195312 C 25.546875 515.863281 26.824219 516.46875 28.132812 517.011719 C 29.441406 517.554688 30.773438 518.03125 32.128906 518.441406 C 33.484375 518.851562 34.855469 519.195312 36.246094 519.472656 C 37.632812 519.746094 39.03125 519.957031 40.441406 520.09375 C 41.851562 520.234375 43.261719 520.300781 44.679688 520.300781 L 73.503906 520.300781 L 73.503906 765.320312 C 73.585938 766.808594 73.738281 768.289062 73.960938 769.765625 C 74.1875 771.238281 74.480469 772.699219 74.851562 774.144531 C 75.21875 775.589844 75.652344 777.011719 76.160156 778.414062 C 76.667969 779.816406 77.242188 781.191406 77.882812 782.539062 C 78.523438 783.882812 79.230469 785.195312 80 786.472656 C 80.769531 787.75 81.597656 788.988281 82.488281 790.183594 C 83.378906 791.378906 84.324219 792.53125 85.328125 793.632812 C 86.332031 794.738281 87.386719 795.789062 88.492188 796.789062 C 89.597656 797.789062 90.75 798.734375 91.945312 799.621094 C 93.144531 800.507812 94.382812 801.335938 95.664062 802.101562 C 96.941406 802.867188 98.253906 803.570312 99.601562 804.210938 C 100.949219 804.847656 102.324219 805.417969 103.730469 805.921875 C 105.132812 806.425781 106.558594 806.859375 108.003906 807.222656 C 109.449219 807.585938 110.910156 807.878906 112.382812 808.101562 C 113.859375 808.324219 115.339844 808.472656 116.832031 808.546875 C 118.320312 808.625 119.808594 808.628906 121.296875 808.558594 L 688.703125 808.558594 C 690.191406 808.628906 691.679688 808.625 693.167969 808.546875 C 694.660156 808.472656 696.140625 808.324219 697.617188 808.101562 C 699.089844 807.878906 700.550781 807.585938 701.996094 807.222656 C 703.441406 806.859375 704.867188 806.425781 706.269531 805.921875 C 707.675781 805.417969 709.050781 804.847656 710.398438 804.210938 C 711.746094 803.570312 713.058594 802.871094 714.335938 802.101562 C 715.617188 801.335938 716.855469 800.507812 718.054688 799.621094 C 719.25 798.734375 720.402344 797.789062 721.507812 796.789062 C 722.613281 795.789062 723.667969 794.738281 724.671875 793.632812 C 725.675781 792.53125 726.621094 791.378906 727.511719 790.183594 C 728.402344 788.988281 729.230469 787.75 730 786.472656 C 730.769531 785.195312 731.476562 783.882812 732.117188 782.539062 C 732.757812 781.191406 733.332031 779.816406 733.839844 778.414062 C 734.347656 777.011719 734.78125 775.589844 735.148438 774.144531 C 735.515625 772.699219 735.8125 771.238281 736.039062 769.765625 C 736.261719 768.289062 736.414062 766.808594 736.496094 765.320312 L 736.496094 520.300781 L 765.320312 520.300781 C 766.738281 520.300781 768.148438 520.234375 769.558594 520.09375 C 770.96875 519.957031 772.367188 519.746094 773.753906 519.472656 C 775.144531 519.195312 776.515625 518.851562 777.871094 518.441406 C 779.226562 518.03125 780.558594 517.554688 781.867188 517.011719 C 783.175781 516.46875 784.453125 515.863281 785.703125 515.195312 C 786.953125 514.53125 788.164062 513.800781 789.34375 513.015625 C 790.519531 512.230469 791.65625 511.386719 792.75 510.488281 C 793.84375 509.589844 794.894531 508.640625 795.894531 507.636719 C 796.894531 506.636719 797.84375 505.589844 798.742188 504.496094 C 799.640625 503.398438 800.484375 502.261719 801.273438 501.085938 C 802.058594 499.910156 802.785156 498.695312 803.453125 497.445312 C 804.121094 496.199219 804.726562 494.917969 805.265625 493.609375 C 805.808594 492.300781 806.285156 490.96875 806.695312 489.617188 C 807.109375 488.261719 807.453125 486.886719 807.726562 485.5 C 808.003906 484.109375 808.210938 482.710938 808.351562 481.300781 C 808.488281 479.894531 808.558594 478.480469 808.558594 477.0625 L 808.558594 332.9375 C 808.558594 331.519531 808.488281 330.105469 808.351562 328.699219 C 808.210938 327.289062 808.003906 325.890625 807.726562 324.5 C 807.453125 323.113281 807.109375 321.738281 806.695312 320.382812 C 806.285156 319.03125 805.808594 317.699219 805.265625 316.390625 C 804.726562 315.082031 804.121094 313.800781 803.453125 312.554688 C 802.785156 311.304688 802.058594 310.089844 801.273438 308.914062 C 800.484375 307.738281 799.640625 306.601562 798.742188 305.503906 C 797.84375 304.410156 796.894531 303.363281 795.894531 302.363281 C 794.894531 301.359375 793.84375 300.410156 792.75 299.511719 C 791.65625 298.613281 790.519531 297.769531 789.34375 296.984375 C 788.164062 296.199219 786.953125 295.46875 785.703125 294.804688 C 784.453125 294.136719 783.175781 293.53125 781.867188 292.988281 C 780.558594 292.445312 779.226562 291.96875 777.871094 291.558594 C 776.515625 291.148438 775.144531 290.804688 773.753906 290.527344 C 772.367188 290.253906 770.96875 290.042969 769.558594 289.90625 C 768.148438 289.765625 766.738281 289.699219 765.320312 289.699219 Z M 102.332031 44.679688 C 102.332031 36.867188 110.980469 30.265625 121.296875 30.265625 L 688.703125 30.265625 C 699.019531 30.265625 707.667969 36.867188 707.667969 44.679688 L 707.667969 289.699219 L 102.332031 289.699219 Z M 707.667969 765.320312 C 707.667969 773.132812 699.019531 779.734375 688.703125 779.734375 L 121.296875 779.734375 C 110.980469 779.734375 102.332031 773.132812 102.332031 765.320312 L 102.332031 520.300781 L 707.667969 520.300781 Z M 779.734375 477.0625 C 779.734375 478.011719 779.640625 478.949219 779.457031 479.875 C 779.269531 480.804688 778.996094 481.707031 778.636719 482.578125 C 778.273438 483.453125 777.828125 484.285156 777.304688 485.070312 C 776.777344 485.859375 776.179688 486.585938 775.511719 487.253906 C 774.84375 487.925781 774.113281 488.523438 773.328125 489.046875 C 772.539062 489.574219 771.710938 490.015625 770.835938 490.378906 C 769.960938 490.742188 769.058594 491.015625 768.132812 491.199219 C 767.203125 491.382812 766.265625 491.476562 765.320312 491.476562 L 44.679688 491.476562 C 43.734375 491.476562 42.796875 491.382812 41.867188 491.199219 C 40.941406 491.015625 40.039062 490.742188 39.164062 490.378906 C 38.289062 490.015625 37.460938 489.574219 36.671875 489.046875 C 35.886719 488.523438 35.15625 487.925781 34.488281 487.253906 C 33.820312 486.585938 33.222656 485.859375 32.695312 485.070312 C 32.171875 484.285156 31.726562 483.453125 31.363281 482.578125 C 31 481.707031 30.726562 480.804688 30.542969 479.875 C 30.359375 478.949219 30.265625 478.011719 30.265625 477.0625 L 30.265625 332.9375 C 30.265625 331.988281 30.359375 331.050781 30.542969 330.125 C 30.726562 329.195312 31 328.292969 31.363281 327.421875 C 31.726562 326.546875 32.171875 325.714844 32.695312 324.929688 C 33.222656 324.140625 33.820312 323.414062 34.488281 322.746094 C 35.15625 322.074219 35.886719 321.476562 36.671875 320.953125 C 37.460938 320.425781 38.289062 319.980469 39.164062 319.621094 C 40.039062 319.257812 40.941406 318.984375 41.867188 318.800781 C 42.796875 318.617188 43.734375 318.523438 44.679688 318.523438 L 765.320312 318.523438 C 766.265625 318.523438 767.203125 318.617188 768.132812 318.800781 C 769.058594 318.984375 769.960938 319.257812 770.835938 319.621094 C 771.710938 319.980469 772.539062 320.425781 773.328125 320.953125 C 774.113281 321.476562 774.84375 322.074219 775.511719 322.746094 C 776.179688 323.414062 776.777344 324.140625 777.304688 324.929688 C 777.828125 325.714844 778.273438 326.546875 778.636719 327.421875 C 778.996094 328.292969 779.269531 329.195312 779.457031 330.125 C 779.640625 331.050781 779.734375 331.988281 779.734375 332.9375 Z M 779.734375 477.0625 "/><path style=" stroke:none;fill-rule:nonzero;fill:#000000;fill-opacity:1;" d="M 73.503906 347.347656 C 72.558594 347.347656 71.621094 347.441406 70.695312 347.625 C 69.765625 347.808594 68.863281 348.082031 67.988281 348.445312 C 67.117188 348.808594 66.285156 349.253906 65.496094 349.777344 C 64.710938 350.304688 63.984375 350.902344 63.3125 351.570312 C 62.644531 352.238281 62.046875 352.96875 61.523438 353.753906 C 60.996094 354.542969 60.550781 355.371094 60.191406 356.246094 C 59.828125 357.121094 59.554688 358.023438 59.371094 358.949219 C 59.183594 359.878906 59.09375 360.816406 59.09375 361.761719 L 59.09375 448.238281 C 59.09375 449.183594 59.183594 450.121094 59.371094 451.050781 C 59.554688 451.976562 59.828125 452.878906 60.191406 453.753906 C 60.550781 454.628906 60.996094 455.457031 61.523438 456.246094 C 62.046875 457.03125 62.644531 457.761719 63.3125 458.429688 C 63.984375 459.097656 64.710938 459.695312 65.496094 460.222656 C 66.285156 460.746094 67.117188 461.191406 67.988281 461.554688 C 68.863281 461.917969 69.765625 462.191406 70.695312 462.375 C 71.621094 462.558594 72.558594 462.652344 73.503906 462.652344 C 74.453125 462.652344 75.390625 462.558594 76.316406 462.375 C 77.246094 462.191406 78.148438 461.917969 79.019531 461.554688 C 79.894531 461.191406 80.726562 460.746094 81.511719 460.222656 C 82.300781 459.695312 83.027344 459.097656 83.695312 458.429688 C 84.367188 457.761719 84.964844 457.03125 85.488281 456.246094 C 86.015625 455.457031 86.457031 454.628906 86.820312 453.753906 C 87.183594 452.878906 87.457031 451.976562 87.640625 451.050781 C 87.824219 450.121094 87.917969 449.183594 87.917969 448.238281 L 87.917969 361.761719 C 87.917969 360.816406 87.824219 359.878906 87.640625 358.949219 C 87.457031 358.023438 87.183594 357.121094 86.820312 356.246094 C 86.457031 355.371094 86.015625 354.542969 85.488281 353.753906 C 84.964844 352.96875 84.367188 352.238281 83.695312 351.570312 C 83.027344 350.902344 82.300781 350.304688 81.511719 349.777344 C 80.726562 349.25 79.894531 348.808594 79.019531 348.445312 C 78.148438 348.082031 77.246094 347.808594 76.316406 347.625 C 75.390625 347.441406 74.453125 347.347656 73.503906 347.347656 Z M 73.503906 347.347656 "/><path style=" stroke:none;fill-rule:nonzero;fill:#000000;fill-opacity:1;" d="M 520.300781 347.347656 C 519.355469 347.347656 518.417969 347.441406 517.492188 347.625 C 516.5625 347.808594 515.660156 348.082031 514.785156 348.445312 C 513.914062 348.808594 513.082031 349.253906 512.296875 349.777344 C 511.507812 350.304688 510.78125 350.902344 510.109375 351.570312 C 509.441406 352.238281 508.84375 352.96875 508.320312 353.753906 C 507.792969 354.542969 507.347656 355.371094 506.988281 356.246094 C 506.625 357.121094 506.351562 358.023438 506.167969 358.949219 C 505.980469 359.878906 505.890625 360.816406 505.890625 361.761719 L 505.890625 448.238281 C 505.890625 449.183594 505.980469 450.121094 506.167969 451.050781 C 506.351562 451.976562 506.625 452.878906 506.988281 453.753906 C 507.347656 454.628906 507.792969 455.457031 508.320312 456.246094 C 508.84375 457.03125 509.441406 457.761719 510.109375 458.429688 C 510.78125 459.097656 511.507812 459.695312 512.296875 460.222656 C 513.082031 460.746094 513.914062 461.191406 514.785156 461.554688 C 515.660156 461.917969 516.5625 462.191406 517.492188 462.375 C 518.417969 462.558594 519.355469 462.652344 520.300781 462.652344 C 521.25 462.652344 522.1875 462.558594 523.113281 462.375 C 524.042969 462.191406 524.945312 461.917969 525.816406 461.554688 C 526.691406 461.191406 527.523438 460.746094 528.308594 460.222656 C 529.097656 459.695312 529.824219 459.097656 530.492188 458.429688 C 531.164062 457.761719 531.761719 457.03125 532.285156 456.246094 C 532.8125 455.457031 533.257812 454.628906 533.617188 453.753906 C 533.980469 452.878906 534.253906 451.976562 534.4375 451.050781 C 534.621094 450.121094 534.714844 449.183594 534.714844 448.238281 L 534.714844 361.761719 C 534.714844 360.816406 534.621094 359.878906 534.4375 358.949219 C 534.253906 358.023438 533.980469 357.121094 533.617188 356.246094 C 533.257812 355.371094 532.8125 354.542969 532.285156 353.753906 C 531.761719 352.96875 531.164062 352.238281 530.492188 351.570312 C 529.824219 350.902344 529.097656 350.304688 528.308594 349.777344 C 527.523438 349.25 526.691406 348.808594 525.816406 348.445312 C 524.945312 348.082031 524.042969 347.808594 523.113281 347.625 C 522.1875 347.441406 521.25 347.347656 520.300781 347.347656 Z M 520.300781 347.347656 "/><path style=" stroke:none;fill-rule:nonzero;fill:#000000;fill-opacity:1;" d="M 736.496094 376.175781 C 737.441406 376.175781 738.378906 376.082031 739.304688 375.898438 C 740.234375 375.710938 741.136719 375.4375 742.011719 375.078125 C 742.882812 374.714844 743.714844 374.269531 744.5 373.746094 C 745.289062 373.21875 746.015625 372.621094 746.6875 371.953125 C 747.355469 371.285156 747.953125 370.554688 748.476562 369.769531 C 749.003906 368.980469 749.449219 368.152344 749.808594 367.277344 C 750.171875 366.402344 750.445312 365.5 750.628906 364.574219 C 750.816406 363.644531 750.90625 362.707031 750.90625 361.761719 C 750.90625 360.816406 750.816406 359.878906 750.628906 358.949219 C 750.445312 358.023438 750.171875 357.121094 749.808594 356.246094 C 749.449219 355.371094 749.003906 354.542969 748.476562 353.753906 C 747.953125 352.96875 747.355469 352.238281 746.6875 351.570312 C 746.015625 350.902344 745.289062 350.304688 744.5 349.777344 C 743.714844 349.25 742.882812 348.808594 742.011719 348.445312 C 741.136719 348.082031 740.234375 347.808594 739.304688 347.625 C 738.378906 347.441406 737.441406 347.347656 736.496094 347.347656 L 693.257812 347.347656 C 692.308594 347.347656 691.371094 347.441406 690.445312 347.625 C 689.515625 347.808594 688.613281 348.082031 687.742188 348.445312 C 686.867188 348.808594 686.035156 349.253906 685.25 349.777344 C 684.460938 350.304688 683.734375 350.902344 683.066406 351.570312 C 682.394531 352.238281 681.796875 352.96875 681.273438 353.753906 C 680.746094 354.542969 680.300781 355.371094 679.941406 356.246094 C 679.578125 357.121094 679.304688 358.023438 679.121094 358.949219 C 678.9375 359.878906 678.84375 360.816406 678.84375 361.761719 L 678.84375 448.238281 C 678.84375 449.183594 678.9375 450.121094 679.121094 451.050781 C 679.304688 451.976562 679.578125 452.878906 679.941406 453.753906 C 680.300781 454.628906 680.746094 455.457031 681.273438 456.246094 C 681.796875 457.03125 682.394531 457.761719 683.066406 458.429688 C 683.734375 459.097656 684.460938 459.695312 685.25 460.222656 C 686.035156 460.746094 686.867188 461.191406 687.742188 461.554688 C 688.613281 461.917969 689.515625 462.191406 690.445312 462.375 C 691.371094 462.558594 692.308594 462.652344 693.257812 462.652344 L 736.496094 462.652344 C 737.441406 462.652344 738.378906 462.558594 739.304688 462.375 C 740.234375 462.191406 741.136719 461.917969 742.011719 461.554688 C 742.882812 461.191406 743.714844 460.746094 744.5 460.222656 C 745.289062 459.695312 746.015625 459.097656 746.6875 458.429688 C 747.355469 457.761719 747.953125 457.03125 748.476562 456.246094 C 749.003906 455.457031 749.449219 454.628906 749.808594 453.753906 C 750.171875 452.878906 750.445312 451.976562 750.628906 451.050781 C 750.816406 450.121094 750.90625 449.183594 750.90625 448.238281 C 750.90625 447.292969 750.816406 446.355469 750.628906 445.425781 C 750.445312 444.5 750.171875 443.597656 749.808594 442.722656 C 749.449219 441.847656 749.003906 441.019531 748.476562 440.230469 C 747.953125 439.445312 747.355469 438.714844 746.6875 438.046875 C 746.015625 437.378906 745.289062 436.78125 744.5 436.253906 C 743.714844 435.730469 742.882812 435.285156 742.011719 434.921875 C 741.136719 434.558594 740.234375 434.289062 739.304688 434.101562 C 738.378906 433.917969 737.441406 433.824219 736.496094 433.824219 L 707.667969 433.824219 L 707.667969 419.414062 L 736.496094 419.414062 C 737.441406 419.414062 738.378906 419.320312 739.304688 419.136719 C 740.234375 418.953125 741.136719 418.679688 742.011719 418.316406 C 742.882812 417.953125 743.714844 417.507812 744.5 416.984375 C 745.289062 416.457031 746.015625 415.859375 746.6875 415.191406 C 747.355469 414.523438 747.953125 413.792969 748.476562 413.007812 C 749.003906 412.21875 749.449219 411.390625 749.808594 410.515625 C 750.171875 409.640625 750.445312 408.738281 750.628906 407.8125 C 750.816406 406.882812 750.90625 405.945312 750.90625 405 C 750.90625 404.054688 750.816406 403.117188 750.628906 402.1875 C 750.445312 401.261719 750.171875 400.359375 749.808594 399.484375 C 749.449219 398.609375 749.003906 397.78125 748.476562 396.992188 C 747.953125 396.207031 747.355469 395.476562 746.6875 394.808594 C 746.015625 394.140625 745.289062 393.542969 744.5 393.015625 C 743.714844 392.492188 742.882812 392.046875 742.011719 391.683594 C 741.136719 391.320312 740.234375 391.046875 739.304688 390.863281 C 738.378906 390.679688 737.441406 390.585938 736.496094 390.585938 L 707.667969 390.585938 L 707.667969 376.175781 Z M 736.496094 376.175781 "/><path style=" stroke:none;fill-rule:nonzero;fill:#000000;fill-opacity:1;" d="M 203.21875 347.347656 C 202.273438 347.347656 201.335938 347.441406 200.410156 347.625 C 199.480469 347.808594 198.578125 348.082031 197.703125 348.445312 C 196.832031 348.808594 196 349.253906 195.214844 349.777344 C 194.425781 350.304688 193.699219 350.902344 193.027344 351.570312 C 192.359375 352.238281 191.761719 352.96875 191.238281 353.753906 C 190.710938 354.542969 190.265625 355.371094 189.90625 356.246094 C 189.542969 357.121094 189.269531 358.023438 189.085938 358.949219 C 188.898438 359.878906 188.808594 360.816406 188.808594 361.761719 L 188.808594 408.429688 L 142.226562 352.523438 C 141.753906 351.957031 141.242188 351.429688 140.691406 350.945312 C 140.136719 350.457031 139.550781 350.015625 138.933594 349.617188 C 138.3125 349.222656 137.664062 348.875 136.992188 348.574219 C 136.320312 348.277344 135.628906 348.03125 134.917969 347.839844 C 134.207031 347.648438 133.484375 347.511719 132.753906 347.429688 C 132.023438 347.347656 131.289062 347.324219 130.550781 347.355469 C 129.816406 347.382812 129.085938 347.472656 128.367188 347.613281 C 127.644531 347.757812 126.9375 347.953125 126.242188 348.203125 C 125.550781 348.453125 124.882812 348.757812 124.238281 349.109375 C 123.589844 349.464844 122.976562 349.863281 122.390625 350.3125 C 121.808594 350.761719 121.261719 351.25 120.75 351.78125 C 120.242188 352.3125 119.777344 352.878906 119.351562 353.484375 C 118.929688 354.085938 118.554688 354.71875 118.230469 355.378906 C 117.90625 356.039062 117.632812 356.71875 117.410156 357.421875 C 117.1875 358.125 117.023438 358.839844 116.910156 359.566406 C 116.800781 360.292969 116.742188 361.023438 116.742188 361.761719 L 116.742188 448.238281 C 116.742188 449.183594 116.835938 450.121094 117.019531 451.050781 C 117.207031 451.976562 117.480469 452.878906 117.839844 453.753906 C 118.203125 454.628906 118.648438 455.457031 119.171875 456.246094 C 119.699219 457.03125 120.296875 457.761719 120.964844 458.429688 C 121.632812 459.097656 122.363281 459.695312 123.148438 460.222656 C 123.9375 460.746094 124.765625 461.191406 125.640625 461.554688 C 126.515625 461.917969 127.417969 462.191406 128.34375 462.375 C 129.273438 462.558594 130.210938 462.652344 131.15625 462.652344 C 132.101562 462.652344 133.039062 462.558594 133.96875 462.375 C 134.898438 462.191406 135.796875 461.917969 136.671875 461.554688 C 137.546875 461.191406 138.378906 460.746094 139.164062 460.222656 C 139.949219 459.695312 140.679688 459.097656 141.347656 458.429688 C 142.015625 457.761719 142.613281 457.03125 143.140625 456.246094 C 143.667969 455.457031 144.109375 454.628906 144.472656 453.753906 C 144.835938 452.878906 145.109375 451.976562 145.292969 451.050781 C 145.476562 450.121094 145.570312 449.183594 145.570312 448.238281 L 145.570312 401.570312 L 192.152344 457.476562 C 192.625 458.042969 193.136719 458.570312 193.6875 459.054688 C 194.238281 459.542969 194.824219 459.984375 195.445312 460.382812 C 196.066406 460.777344 196.710938 461.125 197.382812 461.425781 C 198.058594 461.722656 198.75 461.96875 199.460938 462.160156 C 200.171875 462.351562 200.890625 462.488281 201.625 462.570312 C 202.355469 462.652344 203.089844 462.675781 203.824219 462.648438 C 204.558594 462.617188 205.289062 462.527344 206.011719 462.386719 C 206.734375 462.242188 207.441406 462.046875 208.132812 461.796875 C 208.824219 461.546875 209.496094 461.242188 210.140625 460.890625 C 210.785156 460.535156 211.402344 460.136719 211.984375 459.6875 C 212.570312 459.238281 213.117188 458.75 213.625 458.21875 C 214.136719 457.6875 214.601562 457.121094 215.023438 456.515625 C 215.445312 455.914062 215.820312 455.28125 216.144531 454.621094 C 216.472656 453.960938 216.746094 453.28125 216.96875 452.578125 C 217.1875 451.875 217.355469 451.160156 217.464844 450.433594 C 217.578125 449.707031 217.632812 448.976562 217.632812 448.238281 L 217.632812 361.761719 C 217.632812 360.816406 217.542969 359.878906 217.355469 358.949219 C 217.171875 358.023438 216.898438 357.121094 216.535156 356.246094 C 216.175781 355.371094 215.730469 354.542969 215.203125 353.753906 C 214.679688 352.96875 214.082031 352.238281 213.410156 351.570312 C 212.742188 350.902344 212.015625 350.304688 211.226562 349.777344 C 210.441406 349.25 209.609375 348.808594 208.734375 348.445312 C 207.863281 348.082031 206.960938 347.808594 206.03125 347.625 C 205.105469 347.441406 204.167969 347.347656 203.21875 347.347656 Z M 203.21875 347.347656 "/><path style=" stroke:none;fill-rule:nonzero;fill:#000000;fill-opacity:1;" d="M 353.820312 348.875 C 352.972656 348.449219 352.09375 348.113281 351.183594 347.859375 C 350.269531 347.609375 349.339844 347.449219 348.394531 347.378906 C 347.453125 347.308594 346.511719 347.332031 345.570312 347.449219 C 344.628906 347.566406 343.710938 347.773438 342.8125 348.070312 C 341.914062 348.371094 341.054688 348.753906 340.230469 349.21875 C 339.40625 349.6875 338.636719 350.230469 337.917969 350.851562 C 337.203125 351.46875 336.554688 352.152344 335.972656 352.898438 C 335.390625 353.648438 334.886719 354.445312 334.464844 355.289062 L 303.953125 416.011719 L 273.84375 355.347656 C 273.421875 354.5 272.921875 353.703125 272.34375 352.953125 C 271.765625 352.207031 271.117188 351.519531 270.40625 350.898438 C 269.691406 350.277344 268.921875 349.730469 268.101562 349.261719 C 267.28125 348.789062 266.421875 348.40625 265.527344 348.105469 C 264.628906 347.800781 263.710938 347.589844 262.773438 347.472656 C 261.832031 347.351562 260.890625 347.324219 259.949219 347.386719 C 259.003906 347.453125 258.074219 347.609375 257.164062 347.855469 C 256.25 348.101562 255.367188 348.4375 254.519531 348.859375 C 253.671875 349.28125 252.875 349.777344 252.125 350.355469 C 251.378906 350.933594 250.691406 351.582031 250.070312 352.292969 C 249.449219 353.007812 248.902344 353.773438 248.429688 354.59375 C 247.957031 355.414062 247.570312 356.273438 247.269531 357.171875 C 246.96875 358.066406 246.757812 358.984375 246.636719 359.921875 C 246.515625 360.863281 246.484375 361.804688 246.550781 362.746094 C 246.613281 363.691406 246.769531 364.621094 247.015625 365.535156 C 247.261719 366.445312 247.59375 367.328125 248.015625 368.175781 L 291.039062 454.652344 C 291.632812 455.851562 292.382812 456.945312 293.285156 457.9375 C 294.183594 458.929688 295.207031 459.777344 296.34375 460.484375 C 297.480469 461.191406 298.695312 461.726562 299.980469 462.09375 C 301.269531 462.464844 302.582031 462.648438 303.921875 462.652344 C 305.257812 462.652344 306.566406 462.46875 307.851562 462.101562 C 309.136719 461.738281 310.347656 461.207031 311.484375 460.503906 C 312.621094 459.804688 313.640625 458.960938 314.542969 457.976562 C 315.441406 456.992188 316.195312 455.902344 316.792969 454.710938 L 360.261719 368.234375 C 360.6875 367.386719 361.027344 366.507812 361.277344 365.59375 C 361.527344 364.679688 361.6875 363.75 361.753906 362.804688 C 361.824219 361.859375 361.796875 360.917969 361.679688 359.976562 C 361.5625 359.039062 361.355469 358.117188 361.054688 357.21875 C 360.757812 356.320312 360.371094 355.457031 359.902344 354.636719 C 359.433594 353.8125 358.890625 353.042969 358.269531 352.328125 C 357.648438 351.613281 356.960938 350.964844 356.214844 350.382812 C 355.464844 349.800781 354.667969 349.300781 353.820312 348.875 Z M 353.820312 348.875 "/><path style=" stroke:none;fill-rule:nonzero;fill:#000000;fill-opacity:1;" d="M 433.824219 347.347656 C 432.410156 347.347656 430.996094 347.417969 429.585938 347.558594 C 428.179688 347.695312 426.777344 347.902344 425.390625 348.179688 C 424 348.457031 422.628906 348.800781 421.273438 349.210938 C 419.917969 349.621094 418.585938 350.097656 417.277344 350.640625 C 415.96875 351.183594 414.691406 351.785156 413.441406 352.453125 C 412.195312 353.121094 410.980469 353.847656 409.804688 354.636719 C 408.625 355.421875 407.488281 356.265625 406.394531 357.164062 C 405.300781 358.0625 404.253906 359.011719 403.25 360.011719 C 402.25 361.015625 401.300781 362.0625 400.402344 363.15625 C 399.503906 364.25 398.660156 365.386719 397.875 366.566406 C 397.085938 367.742188 396.359375 368.957031 395.691406 370.203125 C 395.023438 371.453125 394.421875 372.730469 393.878906 374.039062 C 393.335938 375.347656 392.859375 376.679688 392.449219 378.035156 C 392.039062 379.390625 391.695312 380.761719 391.417969 382.152344 C 391.140625 383.539062 390.933594 384.941406 390.796875 386.347656 C 390.65625 387.757812 390.585938 389.171875 390.585938 390.585938 L 390.585938 419.414062 C 390.585938 420.828125 390.65625 422.242188 390.796875 423.652344 C 390.933594 425.058594 391.140625 426.460938 391.417969 427.847656 C 391.695312 429.238281 392.039062 430.609375 392.449219 431.964844 C 392.859375 433.320312 393.335938 434.652344 393.878906 435.960938 C 394.421875 437.269531 395.023438 438.546875 395.691406 439.796875 C 396.359375 441.042969 397.085938 442.257812 397.875 443.433594 C 398.660156 444.613281 399.503906 445.75 400.402344 446.84375 C 401.300781 447.9375 402.25 448.984375 403.25 449.988281 C 404.253906 450.988281 405.300781 451.9375 406.394531 452.835938 C 407.488281 453.734375 408.625 454.578125 409.804688 455.363281 C 410.980469 456.152344 412.195312 456.878906 413.441406 457.546875 C 414.691406 458.214844 415.96875 458.816406 417.277344 459.359375 C 418.585938 459.902344 419.917969 460.378906 421.273438 460.789062 C 422.628906 461.199219 424 461.542969 425.390625 461.820312 C 426.777344 462.097656 428.179688 462.304688 429.585938 462.441406 C 430.996094 462.582031 432.410156 462.652344 433.824219 462.652344 C 435.242188 462.652344 436.65625 462.582031 438.0625 462.441406 C 439.472656 462.304688 440.871094 462.097656 442.261719 461.820312 C 443.648438 461.542969 445.023438 461.199219 446.375 460.789062 C 447.730469 460.378906 449.0625 459.902344 450.371094 459.359375 C 451.679688 458.816406 452.960938 458.214844 454.207031 457.546875 C 455.457031 456.878906 456.671875 456.152344 457.847656 455.363281 C 459.023438 454.578125 460.160156 453.734375 461.253906 452.835938 C 462.351562 451.9375 463.398438 450.988281 464.398438 449.988281 C 465.402344 448.984375 466.351562 447.9375 467.25 446.84375 C 468.148438 445.75 468.988281 444.613281 469.777344 443.433594 C 470.5625 442.257812 471.289062 441.042969 471.957031 439.796875 C 472.625 438.546875 473.230469 437.269531 473.773438 435.960938 C 474.316406 434.652344 474.792969 433.320312 475.203125 431.964844 C 475.613281 430.609375 475.957031 429.238281 476.234375 427.847656 C 476.507812 426.460938 476.71875 425.058594 476.855469 423.652344 C 476.996094 422.242188 477.0625 420.828125 477.0625 419.414062 L 477.0625 390.585938 C 477.0625 389.171875 476.996094 387.757812 476.855469 386.347656 C 476.71875 384.941406 476.507812 383.539062 476.234375 382.152344 C 475.957031 380.761719 475.613281 379.390625 475.203125 378.035156 C 474.792969 376.679688 474.316406 375.347656 473.773438 374.039062 C 473.230469 372.730469 472.625 371.453125 471.957031 370.203125 C 471.289062 368.957031 470.5625 367.742188 469.777344 366.566406 C 468.988281 365.386719 468.148438 364.25 467.25 363.15625 C 466.351562 362.0625 465.402344 361.015625 464.398438 360.011719 C 463.398438 359.011719 462.351562 358.0625 461.253906 357.164062 C 460.160156 356.265625 459.023438 355.421875 457.847656 354.636719 C 456.671875 353.847656 455.457031 353.121094 454.207031 352.453125 C 452.960938 351.785156 451.679688 351.183594 450.371094 350.640625 C 449.0625 350.097656 447.730469 349.621094 446.375 349.210938 C 445.023438 348.800781 443.648438 348.457031 442.261719 348.179688 C 440.871094 347.902344 439.472656 347.695312 438.0625 347.558594 C 436.65625 347.417969 435.242188 347.347656 433.824219 347.347656 Z M 448.238281 419.414062 C 448.238281 420.359375 448.144531 421.296875 447.960938 422.222656 C 447.777344 423.152344 447.503906 424.054688 447.140625 424.929688 C 446.777344 425.800781 446.335938 426.632812 445.808594 427.421875 C 445.285156 428.207031 444.6875 428.933594 444.015625 429.605469 C 443.347656 430.273438 442.621094 430.871094 441.832031 431.398438 C 441.046875 431.921875 440.214844 432.367188 439.339844 432.726562 C 438.464844 433.089844 437.566406 433.363281 436.636719 433.546875 C 435.710938 433.734375 434.773438 433.824219 433.824219 433.824219 C 432.878906 433.824219 431.941406 433.734375 431.015625 433.546875 C 430.085938 433.363281 429.183594 433.089844 428.308594 432.726562 C 427.4375 432.367188 426.605469 431.921875 425.816406 431.398438 C 425.03125 430.871094 424.304688 430.273438 423.632812 429.605469 C 422.964844 428.933594 422.367188 428.207031 421.839844 427.421875 C 421.316406 426.632812 420.871094 425.800781 420.511719 424.929688 C 420.148438 424.054688 419.875 423.152344 419.691406 422.222656 C 419.503906 421.296875 419.414062 420.359375 419.414062 419.414062 L 419.414062 390.585938 C 419.414062 389.640625 419.503906 388.703125 419.691406 387.773438 C 419.875 386.847656 420.148438 385.945312 420.511719 385.070312 C 420.871094 384.199219 421.316406 383.367188 421.839844 382.578125 C 422.367188 381.792969 422.964844 381.066406 423.632812 380.394531 C 424.304688 379.726562 425.03125 379.128906 425.816406 378.601562 C 426.605469 378.078125 427.4375 377.632812 428.308594 377.269531 C 429.183594 376.910156 430.085938 376.636719 431.015625 376.453125 C 431.941406 376.265625 432.878906 376.175781 433.824219 376.175781 C 434.773438 376.175781 435.710938 376.265625 436.636719 376.453125 C 437.566406 376.636719 438.464844 376.910156 439.339844 377.269531 C 440.214844 377.632812 441.046875 378.078125 441.832031 378.601562 C 442.621094 379.128906 443.347656 379.726562 444.015625 380.394531 C 444.6875 381.066406 445.285156 381.792969 445.808594 382.578125 C 446.335938 383.367188 446.777344 384.195312 447.140625 385.070312 C 447.503906 385.945312 447.777344 386.847656 447.960938 387.773438 C 448.144531 388.703125 448.238281 389.640625 448.238281 390.585938 Z M 448.238281 419.414062 "/><path style=" stroke:none;fill-rule:nonzero;fill:#000000;fill-opacity:1;" d="M 606.78125 376.175781 L 635.605469 376.175781 C 636.550781 376.175781 637.488281 376.082031 638.417969 375.898438 C 639.34375 375.710938 640.246094 375.4375 641.121094 375.078125 C 641.996094 374.714844 642.824219 374.269531 643.613281 373.746094 C 644.398438 373.21875 645.128906 372.621094 645.796875 371.953125 C 646.464844 371.285156 647.0625 370.554688 647.589844 369.769531 C 648.113281 368.980469 648.558594 368.152344 648.921875 367.277344 C 649.28125 366.402344 649.554688 365.5 649.742188 364.574219 C 649.925781 363.644531 650.019531 362.707031 650.019531 361.761719 C 650.019531 360.816406 649.925781 359.878906 649.742188 358.949219 C 649.554688 358.023438 649.28125 357.121094 648.921875 356.246094 C 648.558594 355.371094 648.113281 354.542969 647.589844 353.753906 C 647.0625 352.96875 646.464844 352.238281 645.796875 351.570312 C 645.128906 350.902344 644.398438 350.304688 643.613281 349.777344 C 642.824219 349.25 641.996094 348.808594 641.121094 348.445312 C 640.246094 348.082031 639.34375 347.808594 638.417969 347.625 C 637.488281 347.441406 636.550781 347.347656 635.605469 347.347656 L 606.78125 347.347656 C 605.363281 347.347656 603.949219 347.417969 602.542969 347.558594 C 601.132812 347.695312 599.734375 347.902344 598.34375 348.179688 C 596.953125 348.457031 595.582031 348.800781 594.226562 349.210938 C 592.871094 349.621094 591.539062 350.097656 590.234375 350.640625 C 588.925781 351.183594 587.644531 351.785156 586.398438 352.453125 C 585.148438 353.121094 583.933594 353.847656 582.757812 354.636719 C 581.578125 355.421875 580.445312 356.265625 579.347656 357.164062 C 578.253906 358.0625 577.207031 359.011719 576.207031 360.011719 C 575.203125 361.015625 574.253906 362.0625 573.355469 363.15625 C 572.457031 364.25 571.613281 365.386719 570.828125 366.566406 C 570.042969 367.742188 569.3125 368.957031 568.644531 370.203125 C 567.980469 371.453125 567.375 372.730469 566.832031 374.039062 C 566.289062 375.347656 565.8125 376.679688 565.402344 378.035156 C 564.992188 379.390625 564.648438 380.761719 564.371094 382.152344 C 564.09375 383.539062 563.886719 384.941406 563.75 386.347656 C 563.609375 387.757812 563.539062 389.171875 563.539062 390.585938 L 563.539062 419.414062 C 563.539062 420.828125 563.609375 422.242188 563.75 423.652344 C 563.886719 425.058594 564.09375 426.460938 564.371094 427.847656 C 564.648438 429.238281 564.992188 430.609375 565.402344 431.964844 C 565.8125 433.320312 566.289062 434.652344 566.832031 435.960938 C 567.375 437.269531 567.980469 438.546875 568.644531 439.796875 C 569.3125 441.042969 570.042969 442.257812 570.828125 443.433594 C 571.613281 444.613281 572.457031 445.75 573.355469 446.84375 C 574.253906 447.9375 575.203125 448.984375 576.207031 449.988281 C 577.207031 450.988281 578.253906 451.9375 579.347656 452.835938 C 580.445312 453.734375 581.578125 454.578125 582.757812 455.363281 C 583.933594 456.152344 585.148438 456.878906 586.398438 457.546875 C 587.644531 458.214844 588.925781 458.816406 590.234375 459.359375 C 591.539062 459.902344 592.871094 460.378906 594.226562 460.789062 C 595.582031 461.199219 596.953125 461.542969 598.34375 461.820312 C 599.734375 462.097656 601.132812 462.304688 602.542969 462.441406 C 603.949219 462.582031 605.363281 462.652344 606.78125 462.652344 L 635.605469 462.652344 C 636.550781 462.652344 637.488281 462.558594 638.417969 462.375 C 639.34375 462.191406 640.246094 461.917969 641.121094 461.554688 C 641.996094 461.191406 642.824219 460.746094 643.613281 460.222656 C 644.398438 459.695312 645.128906 459.097656 645.796875 458.429688 C 646.464844 457.761719 647.0625 457.03125 647.589844 456.246094 C 648.113281 455.457031 648.558594 454.628906 648.921875 453.753906 C 649.28125 452.878906 649.554688 451.976562 649.742188 451.050781 C 649.925781 450.121094 650.019531 449.183594 650.019531 448.238281 C 650.019531 447.292969 649.925781 446.355469 649.742188 445.425781 C 649.554688 444.5 649.28125 443.597656 648.921875 442.722656 C 648.558594 441.847656 648.113281 441.019531 647.589844 440.230469 C 647.0625 439.445312 646.464844 438.714844 645.796875 438.046875 C 645.128906 437.378906 644.398438 436.78125 643.613281 436.253906 C 642.824219 435.730469 641.996094 435.285156 641.121094 434.921875 C 640.246094 434.558594 639.34375 434.289062 638.417969 434.101562 C 637.488281 433.917969 636.550781 433.824219 635.605469 433.824219 L 606.78125 433.824219 C 605.832031 433.824219 604.894531 433.734375 603.96875 433.546875 C 603.039062 433.363281 602.136719 433.089844 601.265625 432.726562 C 600.390625 432.367188 599.558594 431.921875 598.773438 431.398438 C 597.984375 430.871094 597.257812 430.273438 596.589844 429.605469 C 595.917969 428.933594 595.320312 428.207031 594.796875 427.421875 C 594.269531 426.632812 593.824219 425.800781 593.464844 424.929688 C 593.101562 424.054688 592.828125 423.152344 592.644531 422.222656 C 592.457031 421.296875 592.367188 420.359375 592.367188 419.414062 L 592.367188 390.585938 C 592.367188 389.640625 592.457031 388.703125 592.644531 387.777344 C 592.828125 386.847656 593.101562 385.945312 593.464844 385.070312 C 593.824219 384.199219 594.269531 383.367188 594.796875 382.578125 C 595.320312 381.792969 595.917969 381.066406 596.589844 380.394531 C 597.257812 379.726562 597.984375 379.128906 598.773438 378.601562 C 599.558594 378.078125 600.390625 377.632812 601.265625 377.273438 C 602.136719 376.910156 603.039062 376.636719 603.96875 376.453125 C 604.894531 376.265625 605.832031 376.175781 606.78125 376.175781 Z M 606.78125 376.175781 "/><path style=" stroke:none;fill-rule:nonzero;fill:#000000;fill-opacity:1;" d="M 577.953125 73.503906 L 232.046875 73.503906 C 230.628906 73.503906 229.21875 73.574219 227.808594 73.714844 C 226.398438 73.851562 225 74.058594 223.609375 74.335938 C 222.222656 74.613281 220.851562 74.957031 219.496094 75.367188 C 218.140625 75.777344 216.808594 76.253906 215.5 76.796875 C 214.191406 77.339844 212.914062 77.941406 211.664062 78.609375 C 210.414062 79.277344 209.203125 80.003906 208.023438 80.792969 C 206.847656 81.578125 205.710938 82.421875 204.617188 83.320312 C 203.519531 84.21875 202.472656 85.167969 201.472656 86.167969 C 200.472656 87.171875 199.519531 88.21875 198.621094 89.3125 C 197.722656 90.410156 196.882812 91.542969 196.09375 92.722656 C 195.308594 93.898438 194.582031 95.113281 193.914062 96.363281 C 193.246094 97.609375 192.640625 98.890625 192.097656 100.195312 C 191.558594 101.503906 191.082031 102.835938 190.667969 104.191406 C 190.257812 105.546875 189.914062 106.917969 189.636719 108.308594 C 189.363281 109.699219 189.15625 111.097656 189.015625 112.503906 C 188.878906 113.914062 188.808594 115.328125 188.808594 116.742188 L 188.808594 203.21875 C 188.808594 204.636719 188.878906 206.050781 189.015625 207.457031 C 189.15625 208.867188 189.363281 210.265625 189.636719 211.65625 C 189.914062 213.042969 190.257812 214.417969 190.667969 215.773438 C 191.082031 217.128906 191.558594 218.457031 192.097656 219.765625 C 192.640625 221.074219 193.246094 222.355469 193.914062 223.601562 C 194.582031 224.851562 195.308594 226.066406 196.09375 227.242188 C 196.882812 228.421875 197.722656 229.554688 198.621094 230.652344 C 199.519531 231.746094 200.472656 232.792969 201.472656 233.792969 C 202.472656 234.796875 203.519531 235.746094 204.617188 236.644531 C 205.710938 237.542969 206.847656 238.386719 208.023438 239.171875 C 209.203125 239.957031 210.414062 240.6875 211.664062 241.351562 C 212.914062 242.019531 214.191406 242.625 215.5 243.167969 C 216.808594 243.710938 218.140625 244.1875 219.496094 244.597656 C 220.851562 245.007812 222.222656 245.351562 223.609375 245.628906 C 225 245.90625 226.398438 246.113281 227.808594 246.25 C 229.21875 246.390625 230.628906 246.460938 232.046875 246.460938 L 577.953125 246.460938 C 579.371094 246.460938 580.78125 246.390625 582.191406 246.25 C 583.601562 246.113281 585 245.90625 586.390625 245.628906 C 587.777344 245.351562 589.148438 245.007812 590.503906 244.597656 C 591.859375 244.1875 593.191406 243.710938 594.5 243.167969 C 595.808594 242.625 597.085938 242.019531 598.335938 241.351562 C 599.585938 240.6875 600.796875 239.957031 601.976562 239.171875 C 603.152344 238.386719 604.289062 237.542969 605.382812 236.644531 C 606.476562 235.746094 607.527344 234.796875 608.527344 233.792969 C 609.527344 232.792969 610.480469 231.746094 611.378906 230.652344 C 612.277344 229.554688 613.117188 228.421875 613.90625 227.242188 C 614.691406 226.066406 615.417969 224.851562 616.085938 223.601562 C 616.753906 222.355469 617.359375 221.074219 617.902344 219.765625 C 618.441406 218.457031 618.917969 217.128906 619.332031 215.773438 C 619.742188 214.417969 620.085938 213.042969 620.359375 211.65625 C 620.636719 210.265625 620.84375 208.867188 620.984375 207.457031 C 621.121094 206.050781 621.191406 204.636719 621.191406 203.21875 L 621.191406 116.742188 C 621.191406 115.328125 621.121094 113.914062 620.984375 112.503906 C 620.84375 111.097656 620.636719 109.699219 620.359375 108.308594 C 620.085938 106.917969 619.742188 105.546875 619.332031 104.191406 C 618.917969 102.835938 618.441406 101.503906 617.902344 100.195312 C 617.359375 98.890625 616.753906 97.609375 616.085938 96.359375 C 615.417969 95.113281 614.691406 93.898438 613.90625 92.722656 C 613.117188 91.542969 612.277344 90.410156 611.378906 89.3125 C 610.480469 88.21875 609.527344 87.171875 608.527344 86.167969 C 607.527344 85.167969 606.476562 84.21875 605.382812 83.320312 C 604.289062 82.421875 603.152344 81.578125 601.976562 80.792969 C 600.796875 80.003906 599.585938 79.277344 598.335938 78.609375 C 597.085938 77.941406 595.808594 77.339844 594.5 76.796875 C 593.191406 76.253906 591.859375 75.777344 590.503906 75.367188 C 589.148438 74.957031 587.777344 74.613281 586.390625 74.335938 C 585 74.058594 583.601562 73.851562 582.191406 73.714844 C 580.78125 73.574219 579.371094 73.503906 577.953125 73.503906 Z M 592.367188 203.21875 C 592.367188 204.167969 592.273438 205.105469 592.089844 206.03125 C 591.90625 206.960938 591.632812 207.863281 591.269531 208.734375 C 590.90625 209.609375 590.464844 210.441406 589.9375 211.226562 C 589.410156 212.015625 588.8125 212.742188 588.144531 213.410156 C 587.476562 214.082031 586.746094 214.679688 585.960938 215.203125 C 585.175781 215.730469 584.34375 216.175781 583.46875 216.535156 C 582.59375 216.898438 581.695312 217.171875 580.765625 217.355469 C 579.835938 217.542969 578.898438 217.632812 577.953125 217.632812 L 232.046875 217.632812 C 231.101562 217.632812 230.164062 217.542969 229.234375 217.355469 C 228.304688 217.171875 227.40625 216.898438 226.53125 216.535156 C 225.65625 216.175781 224.824219 215.730469 224.039062 215.203125 C 223.253906 214.679688 222.523438 214.082031 221.855469 213.410156 C 221.1875 212.742188 220.589844 212.015625 220.0625 211.226562 C 219.535156 210.441406 219.09375 209.609375 218.730469 208.734375 C 218.367188 207.863281 218.09375 206.960938 217.910156 206.03125 C 217.726562 205.105469 217.632812 204.167969 217.632812 203.21875 L 217.632812 116.742188 C 217.632812 115.796875 217.726562 114.859375 217.910156 113.933594 C 218.09375 113.003906 218.367188 112.101562 218.730469 111.226562 C 219.09375 110.355469 219.535156 109.523438 220.0625 108.738281 C 220.589844 107.949219 221.1875 107.222656 221.855469 106.550781 C 222.523438 105.882812 223.253906 105.285156 224.039062 104.761719 C 224.824219 104.234375 225.65625 103.789062 226.53125 103.429688 C 227.40625 103.066406 228.304688 102.792969 229.234375 102.609375 C 230.164062 102.421875 231.101562 102.332031 232.046875 102.332031 L 577.953125 102.332031 C 578.898438 102.332031 579.835938 102.421875 580.765625 102.609375 C 581.695312 102.792969 582.59375 103.066406 583.46875 103.429688 C 584.34375 103.789062 585.175781 104.234375 585.960938 104.761719 C 586.746094 105.285156 587.476562 105.882812 588.144531 106.550781 C 588.8125 107.222656 589.410156 107.949219 589.9375 108.738281 C 590.464844 109.523438 590.90625 110.355469 591.269531 111.226562 C 591.632812 112.101562 591.90625 113.003906 592.089844 113.933594 C 592.273438 114.859375 592.367188 115.796875 592.367188 116.742188 Z M 592.367188 203.21875 "/><path style=" stroke:none;fill-rule:nonzero;fill:#000000;fill-opacity:1;" d="M 260.871094 592.367188 L 549.128906 592.367188 C 550.074219 592.367188 551.011719 592.273438 551.941406 592.089844 C 552.867188 591.90625 553.769531 591.632812 554.644531 591.269531 C 555.519531 590.90625 556.347656 590.464844 557.136719 589.9375 C 557.921875 589.410156 558.648438 588.8125 559.320312 588.144531 C 559.988281 587.476562 560.585938 586.746094 561.113281 585.960938 C 561.636719 585.175781 562.082031 584.34375 562.445312 583.46875 C 562.804688 582.59375 563.078125 581.695312 563.265625 580.765625 C 563.449219 579.835938 563.539062 578.898438 563.539062 577.953125 C 563.539062 577.007812 563.449219 576.070312 563.265625 575.140625 C 563.078125 574.214844 562.804688 573.3125 562.445312 572.4375 C 562.082031 571.5625 561.636719 570.734375 561.113281 569.945312 C 560.585938 569.160156 559.988281 568.429688 559.320312 567.761719 C 558.648438 567.09375 557.921875 566.496094 557.136719 565.96875 C 556.347656 565.445312 555.519531 565 554.644531 564.636719 C 553.769531 564.277344 552.867188 564.003906 551.941406 563.816406 C 551.011719 563.632812 550.074219 563.539062 549.128906 563.539062 L 260.871094 563.539062 C 259.925781 563.539062 258.988281 563.632812 258.058594 563.816406 C 257.132812 564.003906 256.230469 564.277344 255.355469 564.636719 C 254.480469 565 253.652344 565.445312 252.863281 565.96875 C 252.078125 566.496094 251.351562 567.09375 250.679688 567.761719 C 250.011719 568.429688 249.414062 569.160156 248.886719 569.945312 C 248.363281 570.734375 247.917969 571.5625 247.554688 572.4375 C 247.195312 573.3125 246.921875 574.214844 246.734375 575.140625 C 246.550781 576.070312 246.460938 577.007812 246.460938 577.953125 C 246.460938 578.898438 246.550781 579.835938 246.734375 580.765625 C 246.921875 581.695312 247.195312 582.59375 247.554688 583.46875 C 247.917969 584.34375 248.363281 585.175781 248.886719 585.960938 C 249.414062 586.746094 250.011719 587.476562 250.679688 588.144531 C 251.351562 588.8125 252.078125 589.410156 252.863281 589.9375 C 253.652344 590.464844 254.480469 590.90625 255.355469 591.269531 C 256.230469 591.632812 257.132812 591.90625 258.058594 592.089844 C 258.988281 592.273438 259.925781 592.367188 260.871094 592.367188 Z M 260.871094 592.367188 "/><path style=" stroke:none;fill-rule:nonzero;fill:#000000;fill-opacity:1;" d="M 520.300781 635.605469 L 289.699219 635.605469 C 288.75 635.605469 287.8125 635.695312 286.886719 635.882812 C 285.957031 636.066406 285.054688 636.339844 284.183594 636.703125 C 283.308594 637.0625 282.476562 637.507812 281.691406 638.035156 C 280.902344 638.558594 280.175781 639.15625 279.507812 639.828125 C 278.835938 640.496094 278.238281 641.222656 277.714844 642.011719 C 277.1875 642.796875 276.742188 643.628906 276.382812 644.503906 C 276.019531 645.375 275.746094 646.277344 275.5625 647.207031 C 275.378906 648.132812 275.285156 649.070312 275.285156 650.019531 C 275.285156 650.964844 275.378906 651.902344 275.5625 652.828125 C 275.746094 653.757812 276.019531 654.660156 276.382812 655.535156 C 276.742188 656.40625 277.1875 657.238281 277.714844 658.023438 C 278.238281 658.8125 278.835938 659.539062 279.507812 660.210938 C 280.175781 660.878906 280.902344 661.476562 281.691406 662 C 282.476562 662.527344 283.308594 662.972656 284.183594 663.332031 C 285.054688 663.695312 285.957031 663.96875 286.886719 664.152344 C 287.8125 664.339844 288.75 664.429688 289.699219 664.429688 L 520.300781 664.429688 C 521.25 664.429688 522.1875 664.339844 523.113281 664.152344 C 524.042969 663.96875 524.945312 663.695312 525.816406 663.332031 C 526.691406 662.972656 527.523438 662.527344 528.308594 662 C 529.097656 661.476562 529.824219 660.878906 530.492188 660.210938 C 531.164062 659.539062 531.761719 658.8125 532.285156 658.023438 C 532.8125 657.238281 533.257812 656.40625 533.617188 655.535156 C 533.980469 654.660156 534.253906 653.757812 534.4375 652.828125 C 534.621094 651.902344 534.714844 650.964844 534.714844 650.019531 C 534.714844 649.070312 534.621094 648.132812 534.4375 647.207031 C 534.253906 646.277344 533.980469 645.375 533.617188 644.503906 C 533.257812 643.628906 532.8125 642.796875 532.285156 642.011719 C 531.761719 641.222656 531.164062 640.496094 530.492188 639.828125 C 529.824219 639.15625 529.097656 638.558594 528.308594 638.035156 C 527.523438 637.507812 526.691406 637.0625 525.816406 636.703125 C 524.945312 636.339844 524.042969 636.066406 523.113281 635.882812 C 522.1875 635.695312 521.25 635.605469 520.300781 635.605469 Z M 520.300781 635.605469 "/><path style=" stroke:none;fill-rule:nonzero;fill:#000000;fill-opacity:1;" d="M 491.476562 707.667969 L 318.523438 707.667969 C 317.578125 707.667969 316.640625 707.761719 315.710938 707.945312 C 314.78125 708.128906 313.882812 708.402344 313.007812 708.765625 C 312.132812 709.128906 311.300781 709.570312 310.515625 710.097656 C 309.730469 710.625 309 711.222656 308.332031 711.890625 C 307.664062 712.558594 307.066406 713.289062 306.539062 714.074219 C 306.011719 714.859375 305.570312 715.691406 305.207031 716.566406 C 304.84375 717.441406 304.570312 718.339844 304.386719 719.269531 C 304.203125 720.199219 304.109375 721.136719 304.109375 722.082031 C 304.109375 723.027344 304.203125 723.964844 304.386719 724.894531 C 304.570312 725.820312 304.84375 726.722656 305.207031 727.597656 C 305.570312 728.472656 306.011719 729.300781 306.539062 730.089844 C 307.066406 730.875 307.664062 731.605469 308.332031 732.273438 C 309 732.941406 309.730469 733.539062 310.515625 734.066406 C 311.300781 734.589844 312.132812 735.035156 313.007812 735.398438 C 313.882812 735.757812 314.78125 736.03125 315.710938 736.21875 C 316.640625 736.402344 317.578125 736.496094 318.523438 736.496094 L 491.476562 736.496094 C 492.421875 736.496094 493.359375 736.402344 494.289062 736.21875 C 495.214844 736.03125 496.117188 735.757812 496.992188 735.398438 C 497.867188 735.035156 498.695312 734.589844 499.484375 734.066406 C 500.269531 733.539062 501 732.941406 501.667969 732.273438 C 502.335938 731.605469 502.933594 730.875 503.460938 730.089844 C 503.988281 729.300781 504.429688 728.472656 504.792969 727.597656 C 505.15625 726.722656 505.429688 725.820312 505.613281 724.894531 C 505.796875 723.964844 505.890625 723.027344 505.890625 722.082031 C 505.890625 721.136719 505.796875 720.199219 505.613281 719.269531 C 505.429688 718.339844 505.15625 717.441406 504.792969 716.566406 C 504.429688 715.691406 503.988281 714.859375 503.460938 714.074219 C 502.933594 713.289062 502.335938 712.558594 501.667969 711.890625 C 501 711.222656 500.269531 710.625 499.484375 710.097656 C 498.695312 709.570312 497.867188 709.128906 496.992188 708.765625 C 496.117188 708.402344 495.214844 708.128906 494.289062 707.945312 C 493.359375 707.761719 492.421875 707.667969 491.476562 707.667969 Z M 491.476562 707.667969 "/></g></svg>