<svg xmlns="http://www.w3.org/2000/svg" xmlns:xlink="http://www.w3.org/1999/xlink" width="1080" zoomAndPan="magnify" viewBox="0 0 810 809.999993" height="1080" preserveAspectRatio="xMidYMid meet" version="1.2"><g id="c527bf9605"><path style=" stroke:none;fill-rule:evenodd;fill:#000000;fill-opacity:1;" d="M 387.90625 700.796875 C 375.5625 700.796875 366.542969 693.199219 363.691406 681.332031 C 361.792969 672.785156 363.691406 660.441406 366.542969 642.398438 C 367.492188 636.699219 368.441406 631.003906 368.914062 627.679688 C 368.914062 620.558594 368.441406 620.082031 361.320312 617.707031 C 353.722656 614.859375 345.652344 612.011719 337.578125 609.160156 C 215.558594 565.007812 77.390625 515.152344 98.28125 348.5 C 120.125 173.300781 273.480469 111.578125 397.402344 111.578125 C 552.1875 111.578125 712.191406 200.839844 713.140625 350.875 C 708.394531 507.554688 566.90625 607.261719 428.738281 684.652344 C 427.789062 685.128906 426.839844 685.605469 425.417969 686.078125 C 414.019531 693.199219 400.253906 700.796875 387.90625 700.796875 Z M 397.402344 140.066406 C 279.652344 140.066406 146.238281 195.617188 126.296875 351.824219 C 108.253906 496.160156 224.578125 537.941406 347.550781 582.097656 C 355.148438 584.945312 363.21875 587.796875 371.289062 590.644531 C 389.804688 597.765625 397.878906 609.636719 396.929688 629.101562 C 396.929688 634.324219 395.980469 640.5 394.554688 647.144531 C 393.605469 653.792969 391.707031 665.1875 391.230469 671.835938 C 397.878906 669.933594 407.375 663.761719 411.171875 661.863281 C 412.597656 660.914062 414.019531 659.964844 414.96875 659.488281 C 546.015625 586.371094 680.382812 492.363281 684.652344 350.875 C 683.703125 218.878906 537.941406 140.066406 397.402344 140.066406 Z M 397.402344 140.066406 "/><path style=" stroke:none;fill-rule:evenodd;fill:#000000;fill-opacity:1;" d="M 286.300781 440.136719 L 215.082031 440.136719 C 207.011719 440.136719 200.839844 433.960938 200.839844 425.890625 L 200.839844 296.746094 C 200.839844 288.675781 207.011719 282.503906 215.082031 282.503906 C 222.679688 282.503906 229.324219 288.675781 229.324219 296.746094 L 229.324219 411.648438 L 286.300781 411.648438 C 293.898438 411.648438 300.546875 418.292969 300.546875 425.890625 C 300.546875 433.960938 293.898438 440.136719 286.300781 440.136719 Z M 286.300781 440.136719 "/><path style=" stroke:none;fill-rule:evenodd;fill:#000000;fill-opacity:1;" d="M 332.832031 440.136719 C 324.757812 440.136719 318.585938 433.960938 318.585938 425.890625 L 318.585938 296.746094 C 318.585938 288.675781 324.757812 282.503906 332.832031 282.503906 C 340.429688 282.503906 347.074219 288.675781 347.074219 296.746094 L 347.074219 425.890625 C 347.074219 433.960938 340.429688 440.136719 332.832031 440.136719 Z M 332.832031 440.136719 "/><path style=" stroke:none;fill-rule:evenodd;fill:#000000;fill-opacity:1;" d="M 461.5 440.136719 C 456.753906 440.136719 452.480469 437.761719 449.628906 433.488281 L 396.453125 347.074219 L 396.453125 425.890625 C 396.453125 433.960938 389.804688 440.136719 382.210938 440.136719 C 374.136719 440.136719 367.964844 433.960938 367.964844 425.890625 L 367.964844 297.222656 C 367.964844 290.574219 371.765625 284.875 377.9375 283.453125 C 384.109375 281.554688 390.757812 283.925781 394.078125 289.625 L 447.257812 376.039062 L 447.257812 297.222656 C 447.257812 289.148438 453.902344 282.976562 461.5 282.976562 C 469.570312 282.976562 475.746094 289.148438 475.746094 297.222656 L 475.746094 425.890625 C 475.746094 432.539062 471.945312 438.234375 465.773438 439.660156 C 464.347656 440.136719 462.925781 440.136719 461.5 440.136719 Z M 461.5 440.136719 "/><path style=" stroke:none;fill-rule:evenodd;fill:#000000;fill-opacity:1;" d="M 594.441406 440.136719 L 508.503906 440.136719 C 500.910156 440.136719 494.261719 433.960938 494.261719 425.890625 L 494.261719 297.222656 C 494.261719 289.148438 500.910156 282.976562 508.503906 282.976562 L 594.441406 282.976562 C 602.515625 282.976562 608.6875 289.148438 608.6875 297.222656 C 608.6875 304.816406 602.515625 311.464844 594.441406 311.464844 L 522.75 311.464844 L 522.75 411.648438 L 594.441406 411.648438 C 602.515625 411.648438 608.6875 418.292969 608.6875 425.890625 C 608.6875 433.960938 602.515625 440.136719 594.441406 440.136719 Z M 594.441406 440.136719 "/><path style=" stroke:none;fill-rule:evenodd;fill:#000000;fill-opacity:1;" d="M 594.441406 376.039062 L 508.503906 376.039062 C 500.910156 376.039062 494.261719 369.390625 494.261719 361.792969 C 494.261719 353.722656 500.910156 347.550781 508.503906 347.550781 L 594.441406 347.550781 C 602.515625 347.550781 608.6875 353.722656 608.6875 361.792969 C 608.6875 369.390625 602.515625 376.039062 594.441406 376.039062 Z M 594.441406 376.039062 "/><path style=" stroke:none;fill-rule:evenodd;fill:#000000;fill-opacity:1;" d="M 93.535156 810 C 41.78125 810 0 768.21875 0 716.464844 L 0 93.535156 C 0 41.78125 41.78125 0 93.535156 0 L 716.464844 0 C 768.21875 0 810 41.78125 810 93.535156 L 810 716.464844 C 810 768.21875 768.21875 810 716.464844 810 Z M 93.535156 28.488281 C 57.449219 28.488281 28.488281 57.449219 28.488281 93.535156 L 28.488281 716.464844 C 28.488281 752.550781 57.449219 781.511719 93.535156 781.511719 L 716.464844 781.511719 C 752.550781 781.511719 781.511719 752.550781 781.511719 716.464844 L 781.511719 93.535156 C 781.511719 57.449219 752.550781 28.488281 716.464844 28.488281 Z M 93.535156 28.488281 "/><path style=" stroke:none;fill-rule:evenodd;fill:#000000;fill-opacity:1;" d="M 22.789062 247.367188 L 14.242188 247.367188 C 6.171875 247.367188 0 240.722656 0 233.125 L 0 93.058594 C 0 41.78125 41.78125 0 93.058594 0 L 172.824219 0 C 178.523438 0 183.746094 3.324219 185.644531 9.019531 C 193.714844 28.960938 197.988281 50.328125 197.988281 72.644531 C 197.988281 169.027344 119.171875 247.367188 22.789062 247.367188 Z M 93.058594 28.488281 C 57.449219 28.488281 28.488281 57.449219 28.488281 93.058594 L 28.488281 218.40625 C 106.355469 215.558594 169.5 150.984375 169.5 72.644531 C 169.5 56.976562 167.128906 42.257812 162.378906 28.488281 Z M 93.058594 28.488281 "/></g></svg>