<svg xmlns="http://www.w3.org/2000/svg" xmlns:xlink="http://www.w3.org/1999/xlink" width="1920" zoomAndPan="magnify" viewBox="0 0 1440 777.749999" height="1037" preserveAspectRatio="xMidYMid meet" version="1.2"><defs><clipPath id="38218bfa8a"><path d="M 0.230469 1 L 1439.769531 1 L 1439.769531 777 L 0.230469 777 Z M 0.230469 1 "/></clipPath><clipPath id="a4d4249309"><path d="M 0.230469 0 L 1439.769531 0 L 1439.769531 777.5 L 0.230469 777.5 Z M 0.230469 0 "/></clipPath></defs><g id="540caef406"><g clip-rule="nonzero" clip-path="url(#38218bfa8a)"><path style=" stroke:none;fill-rule:nonzero;fill:#272324;fill-opacity:1;" d="M 1082.289062 729.421875 C 1078.777344 675.398438 1063.226562 622.664062 1036.773438 575.644531 C 1036.773438 575.636719 1036.765625 575.632812 1036.761719 575.632812 C 1071.085938 553.199219 1110.691406 541.375 1152.179688 541.375 L 1166.039062 541.375 C 1166.128906 541.375 1166.222656 541.378906 1166.308594 541.378906 C 1166.402344 541.378906 1166.492188 541.375 1166.578125 541.375 L 1180.457031 541.375 C 1289.148438 541.375 1378.957031 623.792969 1390.699219 729.421875 Z M 406.628906 729.417969 C 410.082031 683.15625 423.6875 638.089844 446.484375 597.847656 C 502.335938 499.179688 607.332031 437.859375 720.5625 437.75 C 720.664062 437.75 720.773438 437.753906 720.878906 437.753906 C 720.996094 437.753906 721.121094 437.75 721.242188 437.75 C 805.277344 437.84375 884.273438 470.621094 943.71875 530.074219 C 964.148438 550.511719 981.65625 573.597656 995.757812 598.707031 C 1018.265625 638.707031 1031.703125 683.476562 1035.132812 729.417969 Z M 259.476562 541.375 L 273.351562 541.375 C 273.441406 541.375 273.535156 541.378906 273.625 541.378906 C 273.714844 541.378906 273.804688 541.375 273.898438 541.375 L 287.753906 541.375 C 329.792969 541.375 369.898438 553.511719 404.527344 576.527344 C 378.378906 623.332031 362.972656 675.691406 359.46875 729.421875 L 49.234375 729.421875 C 60.976562 623.792969 150.785156 541.375 259.476562 541.375 Z M 273.625 275.492188 C 333.941406 275.492188 383.019531 324.574219 383.019531 384.90625 C 383.019531 445.144531 334.089844 494.164062 273.898438 494.3125 L 273.351562 494.3125 C 213.15625 494.164062 164.230469 445.144531 164.230469 384.90625 C 164.230469 324.574219 213.304688 275.492188 273.625 275.492188 Z M 549.601562 219.382812 C 549.601562 124.921875 626.433594 48.070312 720.878906 48.070312 C 815.320312 48.070312 892.15625 124.921875 892.15625 219.382812 C 892.15625 313.765625 815.449219 390.554688 721.121094 390.6875 C 721.039062 390.6875 720.953125 390.6875 720.871094 390.6875 C 720.796875 390.6875 720.726562 390.6875 720.660156 390.6875 C 626.316406 390.570312 549.601562 313.769531 549.601562 219.382812 Z M 1166.308594 275.492188 C 1226.628906 275.492188 1275.707031 324.574219 1275.707031 384.90625 C 1275.707031 445.144531 1226.777344 494.164062 1166.578125 494.3125 L 1166.039062 494.3125 C 1105.84375 494.164062 1056.917969 445.144531 1056.917969 384.90625 C 1056.917969 324.574219 1105.992188 275.492188 1166.308594 275.492188 Z M 1262.957031 507.8125 C 1299.335938 479.132812 1322.757812 434.714844 1322.757812 384.90625 C 1322.757812 298.625 1252.578125 228.429688 1166.308594 228.429688 C 1080.046875 228.429688 1009.867188 298.625 1009.867188 384.90625 C 1009.867188 434.675781 1033.25 479.0625 1069.578125 507.738281 C 1049.0625 514.644531 1029.453125 524.195312 1011.070312 536.214844 C 1000.679688 522.316406 989.308594 509.125 976.988281 496.796875 C 935.453125 455.257812 885.609375 425.074219 831.210938 407.75 C 895.777344 369.765625 939.207031 299.5625 939.207031 219.382812 C 939.207031 98.972656 841.265625 1.011719 720.878906 1.011719 C 600.492188 1.011719 502.550781 98.972656 502.550781 219.382812 C 502.550781 299.679688 546.113281 369.980469 610.835938 407.917969 C 539.144531 430.863281 475.625 475.8125 430.09375 537.035156 C 411.355469 524.628906 391.335938 514.804688 370.355469 507.738281 C 406.683594 479.0625 430.070312 434.675781 430.070312 384.90625 C 430.070312 298.625 359.890625 228.429688 273.625 228.429688 C 187.359375 228.429688 117.179688 298.625 117.179688 384.90625 C 117.179688 434.714844 140.597656 479.132812 176.972656 507.8125 C 74.714844 542.332031 0.886719 639.175781 0.886719 752.957031 C 0.886719 765.949219 11.421875 776.484375 24.410156 776.484375 L 379.574219 776.484375 C 380.042969 776.484375 380.503906 776.445312 380.96875 776.414062 C 381.386719 776.4375 381.800781 776.480469 382.226562 776.480469 L 1059.535156 776.480469 C 1059.652344 776.480469 1059.765625 776.464844 1059.875 776.457031 C 1060.039062 776.464844 1060.199219 776.484375 1060.363281 776.484375 L 1415.523438 776.484375 C 1428.515625 776.484375 1439.050781 765.949219 1439.050781 752.957031 C 1439.050781 639.175781 1365.21875 542.332031 1262.957031 507.8125 "/></g><g clip-rule="nonzero" clip-path="url(#a4d4249309)"><path style=" stroke:none;fill-rule:nonzero;fill:#272324;fill-opacity:1;" d="M 721.121094 391.34375 L 720.980469 391.34375 L 720.871094 390.6875 L 720.875 390.027344 L 721.007812 390.035156 C 815.066406 389.90625 891.503906 313.351562 891.503906 219.382812 C 891.503906 125.28125 814.957031 48.726562 720.878906 48.726562 C 626.796875 48.726562 550.257812 125.28125 550.257812 219.382812 C 550.257812 313.359375 626.695312 389.914062 720.660156 390.035156 L 720.871094 390.6875 L 720.78125 391.34375 C 625.972656 391.222656 548.949219 314.082031 548.949219 219.382812 C 548.949219 124.558594 626.078125 47.417969 720.878906 47.417969 C 815.683594 47.417969 892.8125 124.558594 892.8125 219.382812 C 892.8125 314.070312 815.792969 391.210938 721.121094 391.34375 Z M 273.621094 276.148438 C 213.664062 276.148438 164.882812 324.933594 164.882812 384.90625 C 164.882812 444.722656 213.546875 493.511719 273.355469 493.660156 L 273.898438 493.660156 C 333.703125 493.511719 382.363281 444.722656 382.363281 384.90625 C 382.363281 324.933594 333.578125 276.148438 273.621094 276.148438 Z M 273.898438 494.96875 L 273.351562 494.96875 C 212.820312 494.816406 163.574219 445.441406 163.574219 384.90625 C 163.574219 324.210938 212.941406 274.835938 273.621094 274.835938 C 334.304688 274.835938 383.671875 324.210938 383.671875 384.90625 C 383.671875 445.441406 334.429688 494.816406 273.898438 494.96875 Z M 1166.308594 276.148438 C 1106.351562 276.148438 1057.570312 324.933594 1057.570312 384.90625 C 1057.570312 444.722656 1106.234375 493.511719 1166.039062 493.660156 L 1166.578125 493.660156 C 1226.390625 493.511719 1275.050781 444.722656 1275.050781 384.90625 C 1275.050781 324.933594 1226.273438 276.148438 1166.308594 276.148438 Z M 1166.585938 494.96875 L 1166.039062 494.96875 C 1105.507812 494.816406 1056.261719 445.441406 1056.261719 384.90625 C 1056.261719 324.210938 1105.628906 274.835938 1166.308594 274.835938 C 1226.992188 274.835938 1276.359375 324.210938 1276.359375 384.90625 C 1276.359375 445.441406 1227.117188 494.816406 1166.585938 494.96875 Z M 407.332031 728.765625 L 1034.425781 728.765625 C 1030.925781 683.289062 1017.363281 638.445312 995.191406 599.027344 C 981.113281 573.972656 963.640625 550.929688 943.253906 530.539062 C 883.949219 471.21875 805.101562 438.5 721.242188 438.402344 L 720.878906 438.40625 L 720.5625 438.402344 C 607.578125 438.515625 502.777344 499.734375 447.054688 598.167969 C 424.589844 637.828125 410.859375 682.964844 407.332031 728.765625 Z M 1035.835938 730.074219 L 405.921875 730.074219 L 405.972656 729.367188 C 409.429688 683.140625 423.242188 637.550781 445.914062 597.523438 C 501.867188 498.679688 607.109375 437.207031 720.5625 437.09375 L 720.878906 437.097656 L 721.242188 437.09375 C 805.449219 437.191406 884.621094 470.050781 944.175781 529.617188 C 964.648438 550.089844 982.195312 573.226562 996.332031 598.382812 C 1018.707031 638.167969 1032.355469 683.46875 1035.78125 729.367188 Z M 49.964844 728.769531 L 358.855469 728.769531 C 362.414062 675.582031 377.898438 623.042969 403.660156 576.738281 C 369.273438 554.027344 329.210938 542.027344 287.753906 542.027344 L 259.476562 542.027344 C 152.109375 542.027344 62.171875 622.253906 49.964844 728.769531 Z M 360.082031 730.078125 L 48.503906 730.078125 L 48.585938 729.351562 C 54.3125 677.84375 78.804688 630.234375 117.5625 595.300781 C 156.609375 560.101562 207.007812 540.71875 259.476562 540.71875 L 287.753906 540.71875 C 329.667969 540.71875 370.171875 552.914062 404.886719 575.980469 L 405.390625 576.320312 L 405.09375 576.84375 C 379.152344 623.289062 363.601562 676.0625 360.125 729.46875 Z M 1082.902344 728.769531 L 1389.964844 728.769531 C 1377.757812 622.253906 1287.820312 542.027344 1180.457031 542.027344 L 1152.179688 542.027344 C 1111.292969 542.027344 1071.699219 553.722656 1037.636719 575.847656 C 1063.679688 622.328125 1079.332031 675.179688 1082.902344 728.769531 Z M 1391.429688 730.078125 L 1081.675781 730.078125 L 1081.636719 729.46875 C 1078.140625 675.671875 1062.433594 622.585938 1036.199219 575.960938 L 1035.902344 575.429688 L 1036.410156 575.082031 C 1070.800781 552.601562 1110.832031 540.71875 1152.179688 540.71875 L 1180.457031 540.71875 C 1232.925781 540.71875 1283.328125 560.101562 1322.378906 595.300781 C 1361.125 630.234375 1385.617188 677.84375 1391.355469 729.351562 Z M 1059.871094 775.804688 C 1059.980469 775.808594 1060.0625 775.816406 1060.148438 775.820312 C 1060.21875 775.824219 1060.285156 775.828125 1060.363281 775.828125 L 1415.523438 775.828125 C 1428.136719 775.828125 1438.394531 765.570312 1438.394531 752.957031 C 1438.394531 642.164062 1367.808594 543.894531 1262.75 508.429688 L 1261.609375 508.046875 L 1262.554688 507.292969 C 1300.398438 477.460938 1322.101562 432.851562 1322.101562 384.90625 C 1322.101562 298.984375 1252.214844 229.085938 1166.308594 229.085938 C 1080.410156 229.085938 1010.519531 298.984375 1010.519531 384.90625 C 1010.519531 432.808594 1032.191406 477.394531 1069.980469 507.226562 L 1070.929688 507.980469 L 1069.78125 508.363281 C 1049.386719 515.230469 1029.753906 524.785156 1011.429688 536.761719 L 1010.914062 537.101562 L 1010.550781 536.609375 C 1000.101562 522.636719 988.65625 509.402344 976.523438 497.261719 C 935.695312 456.429688 885.378906 425.691406 831.011719 408.371094 L 829.617188 407.925781 L 830.878906 407.179688 C 897.292969 368.117188 938.554688 296.15625 938.554688 219.382812 C 938.554688 99.335938 840.902344 1.664062 720.878906 1.664062 C 600.851562 1.664062 503.207031 99.335938 503.207031 219.382812 C 503.207031 296.296875 544.574219 368.320312 611.167969 407.355469 L 612.429688 408.097656 L 611.035156 408.539062 C 538.429688 431.78125 476.042969 476.347656 430.621094 537.421875 L 430.253906 537.917969 L 429.738281 537.574219 C 411.054688 525.214844 391.007812 515.382812 370.148438 508.363281 L 369.007812 507.980469 L 369.953125 507.226562 C 407.742188 477.394531 429.414062 432.808594 429.414062 384.90625 C 429.414062 298.984375 359.527344 229.085938 273.621094 229.085938 C 187.722656 229.085938 117.832031 298.984375 117.832031 384.90625 C 117.832031 432.851562 139.535156 477.460938 177.382812 507.292969 L 178.328125 508.046875 L 177.183594 508.429688 C 72.125 543.894531 1.539062 642.164062 1.539062 752.957031 C 1.539062 765.570312 11.796875 775.828125 24.410156 775.828125 L 379.574219 775.828125 C 379.90625 775.828125 380.226562 775.808594 380.554688 775.785156 L 380.929688 775.757812 L 381.402344 775.785156 C 381.675781 775.804688 381.949219 775.824219 382.226562 775.824219 L 1059.535156 775.824219 Z M 1415.523438 777.140625 L 1060.363281 777.140625 C 1060.253906 777.140625 1060.152344 777.132812 1060.050781 777.125 L 1059.867188 777.113281 C 1059.6875 777.128906 1059.609375 777.132812 1059.535156 777.132812 L 382.226562 777.132812 C 381.917969 777.132812 381.617188 777.113281 381.316406 777.085938 L 380.933594 777.066406 L 380.640625 777.085938 C 380.289062 777.113281 379.9375 777.140625 379.574219 777.140625 L 24.410156 777.140625 C 11.078125 777.140625 0.230469 766.289062 0.230469 752.957031 C 0.230469 642 70.667969 543.546875 175.628906 507.574219 C 138.046875 477.5 116.523438 432.855469 116.523438 384.90625 C 116.523438 298.261719 187 227.777344 273.621094 227.777344 C 360.246094 227.777344 430.722656 298.261719 430.722656 384.90625 C 430.722656 432.816406 409.230469 477.433594 371.707031 507.507812 C 392.070312 514.472656 411.652344 524.097656 429.941406 536.144531 C 475.203125 475.488281 537.167969 431.121094 609.25 407.742188 C 577.375 388.769531 550.628906 361.867188 531.855469 329.867188 C 512.257812 296.453125 501.898438 258.246094 501.898438 219.382812 C 501.898438 98.613281 600.128906 0.355469 720.878906 0.355469 C 841.625 0.355469 939.863281 98.613281 939.863281 219.382812 C 939.863281 258.191406 929.527344 296.347656 909.984375 329.722656 C 891.261719 361.683594 864.597656 388.578125 832.796875 407.570312 C 886.832031 425.027344 936.820312 455.703125 977.449219 496.339844 C 989.484375 508.378906 1000.847656 521.492188 1011.230469 535.332031 C 1029.15625 523.667969 1048.324219 514.3125 1068.230469 507.507812 C 1030.707031 477.433594 1009.210938 432.816406 1009.210938 384.90625 C 1009.210938 298.261719 1079.6875 227.777344 1166.308594 227.777344 C 1252.933594 227.777344 1323.410156 298.261719 1323.410156 384.90625 C 1323.410156 432.855469 1301.882812 477.5 1264.308594 507.574219 C 1369.261719 543.546875 1439.703125 642 1439.703125 752.957031 C 1439.703125 766.289062 1428.859375 777.140625 1415.523438 777.140625 "/></g></g></svg>