<svg xmlns="http://www.w3.org/2000/svg" xmlns:xlink="http://www.w3.org/1999/xlink" width="993" zoomAndPan="magnify" viewBox="0 0 744.75 809.999993" height="1080" preserveAspectRatio="xMidYMid meet" version="1.2"><defs><clipPath id="fbde606eb8"><path d="M 0 0.136719 L 744.5 0.136719 L 744.5 809.863281 L 0 809.863281 Z M 0 0.136719 "/></clipPath></defs><g id="5f1ae9f0f4"><g clip-rule="nonzero" clip-path="url(#fbde606eb8)"><path style=" stroke:none;fill-rule:nonzero;fill:#737373;fill-opacity:1;" d="M 744.414062 736.742188 L 744.414062 728.566406 C 744.414062 678.34375 734.566406 629.597656 715.144531 583.683594 C 696.398438 539.363281 669.570312 499.5625 635.40625 465.398438 C 601.242188 431.234375 561.445312 404.40625 517.121094 385.65625 C 514.207031 384.425781 511.269531 383.234375 508.320312 382.078125 C 513.898438 377.515625 519.269531 372.664062 524.414062 367.519531 C 544.164062 347.769531 559.675781 324.757812 570.519531 299.125 C 581.75 272.566406 587.449219 244.375 587.449219 215.34375 C 587.449219 186.308594 581.753906 158.121094 570.519531 131.5625 C 559.675781 105.929688 544.164062 82.917969 524.414062 63.167969 C 504.664062 43.414062 481.652344 27.902344 456.019531 17.0625 C 429.460938 5.832031 401.273438 0.132812 372.238281 0.132812 C 343.207031 0.132812 315.015625 5.832031 288.457031 17.0625 C 262.824219 27.902344 239.8125 43.414062 220.0625 63.167969 C 200.3125 82.917969 184.800781 105.929688 173.960938 131.5625 C 162.722656 158.121094 157.027344 186.308594 157.027344 215.34375 C 157.027344 244.375 162.726562 272.566406 173.960938 299.125 C 184.800781 324.757812 200.3125 347.769531 220.0625 367.519531 C 225.207031 372.664062 230.578125 377.511719 236.15625 382.074219 C 233.203125 383.234375 230.269531 384.429688 227.359375 385.65625 C 183.03125 404.40625 143.234375 431.234375 109.070312 465.398438 C 74.90625 499.5625 48.078125 539.363281 29.332031 583.683594 C 9.910156 629.597656 0.0664062 678.34375 0.0664062 728.566406 L 0.0664062 736.742188 C 0.0664062 774.941406 29.382812 806.421875 66.699219 809.867188 L 682.835938 809.222656 L 683.0625 809.199219 C 689.46875 808.539062 695.6875 806.636719 701.367188 803.59375 C 726.734375 792.015625 744.414062 766.40625 744.414062 736.742188 Z M 213.621094 282.347656 C 204.644531 261.125 200.089844 238.582031 200.089844 215.34375 C 200.089844 192.101562 204.644531 169.558594 213.621094 148.335938 C 222.289062 127.835938 234.703125 109.425781 250.511719 93.617188 C 266.320312 77.808594 284.730469 65.394531 305.230469 56.726562 C 326.453125 47.746094 349 43.195312 372.238281 43.195312 C 395.476562 43.195312 418.023438 47.746094 439.246094 56.726562 C 459.746094 65.394531 478.15625 77.808594 493.964844 93.617188 C 509.773438 109.425781 522.1875 127.835938 530.855469 148.335938 C 539.832031 169.558594 544.382812 192.101562 544.382812 215.34375 C 544.382812 238.582031 539.832031 261.125 530.855469 282.347656 C 522.183594 302.847656 509.773438 321.257812 493.964844 337.066406 C 478.15625 352.875 459.746094 365.289062 439.246094 373.957031 C 418.023438 382.9375 395.476562 387.488281 372.238281 387.488281 C 349 387.488281 326.453125 382.9375 305.230469 373.957031 C 284.730469 365.289062 266.320312 352.875 250.511719 337.066406 C 234.703125 321.257812 222.289062 302.847656 213.621094 282.347656 Z M 701.347656 736.742188 C 701.347656 753.496094 687.71875 767.125 670.96875 767.125 L 73.507812 767.125 C 56.753906 767.125 43.125 753.496094 43.125 736.742188 L 43.125 728.566406 C 43.125 684.136719 51.828125 641.035156 68.988281 600.457031 C 85.566406 561.269531 109.296875 526.070312 139.519531 495.847656 C 169.742188 465.625 204.9375 441.890625 244.132812 425.316406 C 252.769531 421.664062 261.644531 418.351562 270.507812 415.464844 C 270.511719 415.464844 270.511719 415.464844 270.511719 415.464844 C 273.601562 414.460938 276.75 413.488281 279.863281 412.578125 C 281.023438 412.238281 282.128906 411.804688 283.179688 411.300781 C 284.929688 412.09375 286.683594 412.871094 288.453125 413.621094 C 315.011719 424.855469 343.203125 430.550781 372.234375 430.550781 C 401.269531 430.550781 429.457031 424.851562 456.019531 413.621094 C 457.789062 412.871094 459.546875 412.09375 461.292969 411.300781 C 462.347656 411.804688 463.453125 412.238281 464.613281 412.578125 C 476.667969 416.101562 488.691406 420.386719 500.34375 425.316406 C 539.535156 441.894531 574.730469 465.625 604.953125 495.847656 C 635.179688 526.070312 658.910156 561.269531 675.484375 600.457031 C 692.644531 641.035156 701.347656 684.136719 701.347656 728.5625 Z M 701.347656 736.742188 "/></g></g></svg>