<svg xmlns="http://www.w3.org/2000/svg" xmlns:xlink="http://www.w3.org/1999/xlink" width="1129" zoomAndPan="magnify" viewBox="0 0 846.75 809.999993" height="1080" preserveAspectRatio="xMidYMid meet" version="1.2"><defs><clipPath id="5a58c51743"><path d="M 0 0.121094 L 846 0.121094 L 846 809.878906 L 0 809.878906 Z M 0 0.121094 "/></clipPath></defs><g id="cf3f4299dd"><g clip-rule="nonzero" clip-path="url(#5a58c51743)"><path style=" stroke:none;fill-rule:nonzero;fill:#000000;fill-opacity:1;" d="M 146.160156 282.144531 L 215.09375 282.144531 L 225.691406 653.105469 L 136.886719 653.109375 L 146.164062 282.125 Z M 81.195312 666.445312 L 765.222656 666.445312 L 765.222656 714.175781 L 806.207031 714.175781 L 806.203125 761.90625 L 845.949219 761.90625 L 845.949219 809.632812 L 0.464844 809.628906 L 0.464844 761.90625 L 40.214844 761.90625 L 40.214844 714.175781 L 81.195312 714.175781 Z M 800.886719 178.5625 L 423.199219 0.128906 L 45.488281 178.5625 L 45.492188 207.734375 L 800.886719 207.734375 Z M 118.3125 221.082031 L 728.085938 221.082031 L 728.085938 268.800781 L 118.3125 268.800781 Z M 629.992188 282.144531 L 698.925781 282.144531 L 709.523438 653.125 L 620.71875 653.121094 L 629.992188 282.160156 Z M 468.714844 282.144531 L 537.648438 282.144531 L 548.25 653.109375 L 459.441406 653.109375 L 468.714844 282.125 Z M 307.4375 282.144531 L 376.367188 282.136719 L 386.972656 653.121094 L 298.164062 653.121094 L 307.4375 282.160156 Z M 307.4375 282.144531 "/></g></g></svg>