<svg xmlns="http://www.w3.org/2000/svg" xmlns:xlink="http://www.w3.org/1999/xlink" width="1082" zoomAndPan="magnify" viewBox="0 0 811.5 809.999993" height="1080" preserveAspectRatio="xMidYMid meet" version="1.2"><defs><clipPath id="e183d36b10"><path d="M 0 1 L 811 1 L 811 809.75 L 0 809.75 Z M 0 1 "/></clipPath></defs><g id="c33dc7a9c5"><g clip-rule="nonzero" clip-path="url(#e183d36b10)"><path style=" stroke:none;fill-rule:nonzero;fill:#000000;fill-opacity:1;" d="M 810.898438 393.484375 C 810.898438 377.726562 804.917969 361.988281 793 350.046875 L 792.9375 349.984375 C 781.339844 338.390625 766.125 332.429688 750.832031 332.125 C 750.386719 328.125 749.558594 324.167969 748.304688 320.308594 C 745.375 311.355469 740.304688 303.011719 733.132812 295.839844 L 733.074219 295.839844 C 721.132812 283.902344 705.390625 277.941406 689.632812 277.941406 L 689.632812 277.878906 C 673.894531 277.878906 658.113281 283.878906 646.152344 295.839844 L 490.761719 451.226562 L 208.992188 451.46875 C 208.648438 451.40625 208.285156 451.367188 207.941406 451.347656 C 199.296875 450.742188 190.445312 451.992188 182.121094 455.105469 C 174.445312 457.972656 167.230469 462.398438 161.007812 468.378906 L 160.199219 469.125 L 4.019531 625.257812 C 1.234375 628.046875 -0.0195312 631.785156 0.261719 635.421875 L 0.261719 795.167969 L 0.203125 796.339844 C 0.203125 803.53125 6.042969 809.371094 13.234375 809.371094 L 155.472656 809.332031 C 158.886719 809.332031 162.28125 807.996094 164.828125 805.351562 L 200.246094 768.519531 L 525.957031 686.535156 C 536.445312 683.28125 547.089844 677.160156 557.476562 669.382812 C 567.375 661.96875 577.035156 653.058594 586.085938 643.765625 C 586.148438 643.703125 586.1875 643.644531 586.246094 643.582031 C 586.632812 643.277344 587.015625 642.957031 587.359375 642.59375 L 793 436.980469 C 804.960938 425.023438 810.960938 409.242188 810.960938 393.503906 L 810.898438 393.503906 Z M 664.578125 314.246094 C 671.449219 307.378906 680.542969 303.921875 689.632812 303.921875 L 689.632812 303.863281 C 698.703125 303.863281 707.816406 307.316406 714.707031 314.226562 C 718.96875 318.488281 721.941406 323.277344 723.578125 328.308594 C 724.503906 331.117188 725.011719 334.046875 725.132812 337.035156 C 718.183594 340.027344 711.675781 344.328125 706.019531 349.964844 L 556.808594 499.167969 C 554.222656 487.589844 548.386719 477.246094 540.28125 469.1875 C 535.070312 463.972656 528.929688 459.710938 522.160156 456.621094 Z M 784.894531 393.484375 C 784.894531 402.574219 781.441406 411.667969 774.570312 418.535156 L 568.933594 624.167969 C 568.730469 624.367188 568.546875 624.589844 568.367188 624.792969 C 568.042969 625.054688 567.742188 625.339844 567.457031 625.640625 C 559.175781 634.148438 550.484375 642.167969 541.898438 648.613281 C 534 654.53125 526.179688 659.140625 518.886719 661.523438 L 190.324219 744.175781 C 187.617188 744.839844 185.332031 746.316406 183.636719 748.277344 L 149.957031 783.308594 L 26.203125 783.308594 L 26.203125 639.925781 L 179.171875 486.925781 C 182.707031 483.53125 186.808594 481.027344 191.152344 479.410156 C 195.902344 477.632812 201.054688 476.925781 206.203125 477.289062 C 206.449219 477.308594 206.691406 477.289062 206.933594 477.308594 C 207.476562 477.367188 208.003906 477.429688 208.570312 477.429688 L 496.84375 477.1875 L 496.882812 477.246094 C 506.621094 477.246094 515.472656 481.226562 521.855469 487.613281 L 521.855469 487.671875 C 528.300781 494.117188 532.324219 502.988281 532.324219 512.664062 L 532.261719 512.703125 C 532.261719 522.441406 528.261719 531.292969 521.835938 537.714844 C 515.410156 544.140625 506.542969 548.140625 496.824219 548.140625 L 296.175781 548.140625 C 288.980469 548.140625 283.144531 553.980469 283.144531 561.171875 C 283.144531 568.363281 288.980469 574.203125 296.175781 574.203125 L 496.824219 574.203125 C 513.734375 574.203125 529.128906 567.273438 540.261719 556.140625 C 544.425781 551.980469 547.980469 547.253906 550.828125 542.039062 L 724.40625 368.472656 C 731.273438 361.601562 740.367188 358.148438 749.457031 358.148438 L 749.457031 358.085938 C 758.53125 358.085938 767.640625 361.542969 774.550781 368.433594 C 781.441406 375.339844 784.894531 384.453125 784.894531 393.523438 Z M 217.417969 313.539062 C 217.054688 318.386719 219.4375 323.257812 223.925781 325.824219 L 398.570312 425.609375 C 398.628906 425.648438 398.710938 425.6875 398.792969 425.730469 C 399.15625 425.949219 399.539062 426.152344 399.945312 426.355469 C 400.066406 426.414062 400.1875 426.476562 400.308594 426.535156 C 400.792969 426.757812 401.296875 426.941406 401.804688 427.101562 C 401.902344 427.121094 401.984375 427.144531 402.085938 427.183594 C 402.53125 427.304688 402.976562 427.40625 403.4375 427.488281 C 403.582031 427.507812 403.742188 427.527344 403.882812 427.546875 C 404.429688 427.628906 404.996094 427.667969 405.582031 427.667969 C 406.148438 427.667969 406.710938 427.628906 407.277344 427.546875 C 407.441406 427.527344 407.582031 427.507812 407.722656 427.488281 C 408.1875 427.40625 408.632812 427.304688 409.078125 427.183594 C 409.175781 427.164062 409.257812 427.144531 409.359375 427.101562 C 409.882812 426.941406 410.371094 426.757812 410.855469 426.535156 C 410.976562 426.476562 411.097656 426.414062 411.21875 426.355469 C 411.601562 426.171875 411.984375 425.949219 412.371094 425.730469 C 412.429688 425.6875 412.511719 425.648438 412.59375 425.609375 L 587.238281 325.824219 C 591.742188 323.238281 594.105469 318.386719 593.742188 313.539062 L 593.742188 115.304688 C 593.925781 112.796875 593.398438 110.210938 592.066406 107.867188 C 590.875 105.789062 589.175781 104.152344 587.238281 103.039062 L 412.066406 2.953125 C 407.925781 0.589844 403.015625 0.75 399.136719 2.953125 L 223.925781 103.058594 C 219.4375 105.625 217.074219 110.472656 217.417969 115.324219 Z M 292.253906 93.988281 L 441.179688 179.085938 L 405.582031 199.429688 L 256.613281 114.355469 Z M 347.191406 62.613281 L 496.117188 147.710938 L 467.425781 164.113281 L 318.5 79.019531 Z M 488.78125 181.894531 L 509.328125 170.15625 L 509.328125 212.84375 L 481.183594 228.925781 L 480.519531 186.621094 Z M 243.402344 136.738281 L 392.570312 221.976562 L 392.570312 392.191406 L 243.402344 306.953125 Z M 464.757812 365.824219 L 418.613281 392.191406 L 418.613281 221.976562 L 449.160156 204.523438 L 454.777344 201.308594 L 455.566406 251.292969 C 455.648438 258.464844 461.527344 264.203125 468.699219 264.121094 C 471.003906 264.101562 473.144531 263.476562 475.003906 262.445312 L 528.808594 231.695312 C 533.007812 229.289062 535.351562 224.90625 535.375 220.402344 L 535.375 155.246094 L 567.761719 136.738281 L 567.761719 306.953125 Z M 405.582031 29.238281 L 554.507812 114.332031 L 522.339844 132.71875 L 373.414062 47.621094 Z M 316.882812 305.398438 C 313.308594 311.640625 305.347656 313.800781 299.125 310.226562 L 264.171875 290.246094 C 257.929688 286.667969 255.765625 278.707031 259.34375 272.484375 C 262.917969 266.242188 270.878906 264.082031 277.101562 267.65625 L 312.054688 287.636719 C 318.277344 291.195312 320.441406 299.15625 316.882812 305.398438 Z M 316.882812 305.398438 "/></g></g></svg>