<svg xmlns="http://www.w3.org/2000/svg" xmlns:xlink="http://www.w3.org/1999/xlink" width="927" zoomAndPan="magnify" viewBox="0 0 695.25 809.999993" height="1080" preserveAspectRatio="xMidYMid meet" version="1.2"><defs><clipPath id="b0e40251fa"><path d="M 0 0.4375 L 694.5 0.4375 L 694.5 808.8125 L 0 808.8125 Z M 0 0.4375 "/></clipPath></defs><g id="1c0abb504b"><g clip-rule="nonzero" clip-path="url(#b0e40251fa)"><path style=" stroke:none;fill-rule:nonzero;fill:#000000;fill-opacity:1;" d="M 685.945312 606.082031 L 662.804688 602.660156 C 659.585938 590.636719 654.835938 579.148438 648.59375 568.363281 L 662.539062 549.597656 C 665.507812 545.589844 665.105469 540.003906 661.5625 536.480469 L 628.292969 503.222656 C 624.769531 499.703125 619.179688 499.28125 615.171875 502.25 L 596.394531 516.1875 C 585.605469 509.949219 574.113281 505.1875 562.082031 501.984375 L 558.660156 478.871094 C 557.9375 473.941406 553.695312 470.285156 548.695312 470.285156 L 507.167969 470.285156 C 491.378906 446.351562 470.035156 426.277344 445.152344 412.003906 C 417.769531 396.308594 386.613281 388.003906 355.050781 388.003906 L 341.578125 388.003906 L 341.578125 349.734375 C 375.640625 326.722656 398.054688 287.78125 398.054688 243.6875 L 398.054688 209.105469 L 402.03125 209.105469 C 419.984375 209.105469 434.601562 194.496094 434.601562 176.550781 C 434.601562 161.457031 424.246094 148.761719 410.269531 145.089844 L 410.269531 130.617188 C 410.269531 58.851562 351.847656 0.453125 280.050781 0.453125 L 257.164062 0.453125 C 185.371094 0.453125 126.945312 58.851562 126.945312 130.617188 L 126.945312 145.089844 C 112.96875 148.746094 102.617188 161.441406 102.617188 176.550781 C 102.617188 194.496094 117.230469 209.105469 135.183594 209.105469 L 139.160156 209.105469 L 139.160156 243.6875 C 139.160156 287.78125 161.59375 326.722656 195.640625 349.734375 L 195.640625 388.003906 L 182.164062 388.003906 C 81.761719 388.003906 0.0859375 469.648438 0.0859375 570.007812 L 0.0859375 741.945312 C 0.0859375 747.5 4.597656 752.011719 10.152344 752.011719 L 398.171875 752.011719 L 422.050781 775.859375 C 425.574219 779.378906 431.160156 779.800781 435.171875 776.832031 L 453.945312 762.894531 C 464.734375 769.132812 476.226562 773.894531 488.242188 777.101562 L 491.664062 800.226562 C 492.386719 805.160156 496.628906 808.8125 501.628906 808.8125 L 548.675781 808.8125 C 553.660156 808.8125 557.90625 805.160156 558.644531 800.226562 L 562.066406 777.101562 C 574.097656 773.878906 585.589844 769.132812 596.378906 762.894531 L 615.15625 776.832031 C 619.164062 779.800781 624.753906 779.398438 628.277344 775.859375 L 661.546875 742.601562 C 665.070312 739.078125 665.492188 733.496094 662.519531 729.484375 L 648.578125 710.71875 C 654.820312 699.933594 659.585938 688.445312 662.789062 676.4375 L 685.925781 673.015625 C 690.859375 672.296875 694.515625 668.050781 694.515625 663.054688 L 694.515625 616.027344 C 694.535156 611.046875 690.875 606.804688 685.945312 606.082031 Z M 491.160156 482.59375 L 488.292969 502 C 476.261719 505.21875 464.769531 509.964844 453.980469 516.203125 L 435.203125 502.269531 C 432.820312 500.507812 429.886719 499.953125 427.167969 500.523438 L 427.167969 425.054688 C 452.804688 437.832031 474.9375 457.472656 491.160156 482.59375 Z M 387.855469 549.613281 L 401.796875 568.378906 C 395.554688 579.164062 390.789062 590.652344 387.585938 602.660156 L 364.464844 606.082031 C 359.53125 606.804688 355.875 611.046875 355.875 616.042969 L 355.875 663.070312 C 355.875 668.050781 359.53125 672.296875 364.464844 673.035156 L 387.585938 676.457031 C 390.808594 688.480469 395.554688 699.96875 401.796875 710.753906 L 387.855469 729.519531 C 387.300781 730.257812 386.898438 731.078125 386.578125 731.902344 L 130.253906 731.902344 L 130.253906 416.683594 C 139.363281 413.582031 148.84375 411.300781 158.609375 409.859375 L 158.609375 544.714844 C 158.609375 550.269531 163.121094 554.777344 168.675781 554.777344 L 368.625 554.777344 C 374.179688 554.777344 378.695312 550.269531 378.695312 544.714844 L 378.695312 409.859375 C 388.410156 411.265625 397.886719 413.546875 407.050781 416.652344 L 407.050781 518.285156 L 388.828125 536.5 C 385.289062 540.019531 384.886719 545.605469 387.855469 549.613281 Z M 205.957031 33.257812 L 205.957031 54.054688 C 205.957031 59.605469 210.472656 64.117188 216.023438 64.117188 C 221.578125 64.117188 226.09375 59.605469 226.09375 54.054688 L 226.09375 25.058594 C 235.957031 22.136719 246.394531 20.5625 257.199219 20.5625 L 258.574219 20.5625 L 258.574219 77.367188 C 258.574219 82.917969 263.089844 87.429688 268.644531 87.429688 C 274.195312 87.429688 278.710938 82.917969 278.710938 77.367188 L 278.710938 20.5625 L 280.085938 20.5625 C 290.890625 20.5625 301.3125 22.15625 311.191406 25.058594 L 311.191406 54.054688 C 311.191406 59.605469 315.707031 64.117188 321.261719 64.117188 C 326.8125 64.117188 331.328125 59.605469 331.328125 54.054688 L 331.328125 33.257812 C 366.277344 51.722656 390.171875 88.417969 390.171875 130.597656 L 390.171875 143.980469 L 147.113281 143.980469 L 147.113281 130.597656 C 147.113281 88.402344 171.007812 51.707031 205.957031 33.257812 Z M 122.785156 176.535156 C 122.785156 169.675781 128.375 164.109375 135.21875 164.109375 L 402.066406 164.109375 C 408.929688 164.109375 414.5 169.691406 414.5 176.535156 C 414.5 183.378906 408.910156 188.964844 402.066406 188.964844 L 135.21875 188.964844 C 128.355469 188.980469 122.785156 183.394531 122.785156 176.535156 Z M 159.328125 243.6875 L 159.328125 209.105469 L 377.957031 209.105469 L 377.957031 243.6875 C 377.957031 303.125 329.582031 351.476562 270.117188 351.476562 L 267.183594 351.476562 C 207.703125 351.476562 159.328125 303.125 159.328125 243.6875 Z M 267.167969 371.601562 L 270.101562 371.601562 C 288.359375 371.601562 305.722656 367.726562 321.460938 360.820312 L 321.460938 395.703125 C 321.460938 424.816406 297.769531 448.5 268.644531 448.5 C 239.515625 448.5 215.824219 424.816406 215.824219 395.703125 L 215.824219 360.820312 C 231.546875 367.746094 248.910156 371.601562 267.167969 371.601562 Z M 196.761719 408.128906 C 202.6875 442.429688 232.652344 468.625 268.644531 468.625 C 304.632812 468.625 334.597656 442.445312 340.523438 408.128906 L 355.070312 408.128906 C 356.226562 408.128906 357.382812 408.164062 358.542969 408.179688 L 358.542969 534.636719 L 178.726562 534.636719 L 178.726562 408.164062 C 179.882812 408.148438 181.042969 408.113281 182.199219 408.113281 L 196.761719 408.113281 Z M 20.269531 570.007812 C 20.269531 506.628906 56.898438 451.652344 110.117188 425.085938 L 110.117188 731.882812 L 20.269531 731.882812 Z M 674.398438 654.382812 L 653.140625 657.519531 C 648.996094 658.140625 645.65625 661.261719 644.769531 665.351562 C 641.664062 679.777344 636.027344 693.394531 628.007812 705.804688 C 625.726562 709.328125 625.875 713.90625 628.375 717.257812 L 641.195312 734.5 L 620.203125 755.480469 L 602.957031 742.667969 C 599.582031 740.167969 595.019531 740.019531 591.496094 742.300781 C 579.082031 750.316406 565.472656 755.953125 551.027344 759.054688 C 546.914062 759.941406 543.796875 763.261719 543.191406 767.421875 L 540.035156 788.6875 L 510.355469 788.6875 L 507.21875 767.441406 C 506.597656 763.28125 503.476562 759.960938 499.382812 759.070312 C 484.953125 755.96875 471.34375 750.332031 458.910156 742.316406 C 455.386719 740.035156 450.824219 740.1875 447.453125 742.683594 L 430.203125 755.5 L 409.214844 734.515625 L 422.03125 717.277344 C 424.53125 713.90625 424.683594 709.34375 422.402344 705.820312 C 414.382812 693.410156 408.726562 679.808594 405.640625 665.371094 C 404.75 661.261719 401.429688 658.140625 397.265625 657.535156 L 376.007812 654.402344 L 376.007812 624.730469 L 397.265625 621.597656 C 401.410156 620.976562 404.75 617.855469 405.640625 613.765625 C 408.742188 599.339844 414.382812 585.722656 422.402344 573.3125 C 424.683594 569.789062 424.53125 565.210938 422.03125 561.855469 L 409.214844 544.617188 L 430.203125 523.636719 L 447.453125 536.449219 C 450.824219 538.945312 455.386719 539.097656 458.910156 536.816406 C 471.328125 528.800781 484.9375 523.148438 499.382812 520.0625 C 503.492188 519.171875 506.613281 515.851562 507.21875 511.695312 L 510.355469 490.445312 L 540.035156 490.445312 L 543.175781 511.695312 C 543.796875 515.835938 546.914062 519.171875 551.011719 520.0625 C 565.441406 523.164062 579.0625 528.800781 591.480469 536.816406 C 595.003906 539.097656 599.566406 538.945312 602.941406 536.449219 L 620.1875 523.636719 L 641.179688 544.617188 L 628.359375 561.855469 C 625.859375 565.226562 625.707031 569.789062 627.988281 573.3125 C 636.011719 585.722656 641.664062 599.324219 644.75 613.765625 C 645.640625 617.871094 648.964844 620.992188 653.125 621.597656 L 674.382812 624.730469 L 674.382812 654.382812 Z M 525.203125 538.023438 C 498.074219 538.023438 472.570312 548.589844 453.390625 567.761719 C 413.792969 607.339844 413.792969 671.757812 453.390625 711.339844 C 473.191406 731.128906 499.199219 741.023438 525.203125 741.023438 C 551.210938 741.023438 577.21875 731.128906 597.035156 711.339844 C 636.632812 671.757812 636.632812 607.339844 597.035156 567.761719 C 577.839844 548.589844 552.335938 538.023438 525.203125 538.023438 Z M 514.769531 720.226562 L 514.769531 681.9375 C 514.769531 678 512.453125 674.410156 508.863281 672.78125 C 494.769531 666.375 485.65625 652.238281 485.65625 636.773438 C 485.65625 627.484375 488.945312 618.660156 494.632812 611.71875 L 494.632812 633.101562 C 494.632812 636.757812 496.613281 640.113281 499.800781 641.890625 L 520.289062 653.277344 C 523.324219 654.972656 527.035156 654.972656 530.070312 653.277344 L 550.574219 641.890625 C 553.761719 640.113281 555.742188 636.742188 555.742188 633.101562 L 555.742188 611.71875 C 561.429688 618.660156 564.71875 627.484375 564.71875 636.773438 C 564.71875 652.253906 555.605469 666.375 541.511719 672.78125 C 537.921875 674.410156 535.605469 678 535.605469 681.9375 L 535.605469 720.226562 C 528.710938 721.117188 521.699219 721.117188 514.769531 720.226562 Z M 582.789062 697.117188 C 574.820312 705.082031 565.605469 711.039062 555.773438 715.011719 L 555.773438 688.011719 C 573.644531 677.328125 584.886719 657.871094 584.886719 636.773438 C 584.886719 613.429688 571.144531 592.09375 549.867188 582.433594 C 546.765625 581.027344 543.140625 581.277344 540.253906 583.140625 C 537.386719 584.984375 535.640625 588.171875 535.640625 591.59375 L 535.640625 627.164062 L 525.203125 632.96875 L 514.785156 627.164062 L 514.785156 591.59375 C 514.785156 588.171875 513.039062 584.984375 510.171875 583.140625 C 507.285156 581.292969 503.660156 581.027344 500.554688 582.433594 C 479.28125 592.09375 465.539062 613.429688 465.539062 636.773438 C 465.539062 657.890625 476.78125 677.34375 494.652344 688.011719 L 494.652344 715.011719 C 484.816406 711.039062 475.589844 705.082031 467.636719 697.117188 C 435.890625 665.386719 435.890625 613.730469 467.636719 582 C 483.023438 566.621094 503.460938 558.148438 525.222656 558.148438 C 546.964844 558.148438 567.417969 566.621094 582.804688 582 C 614.535156 613.730469 614.535156 665.371094 582.789062 697.117188 Z M 582.789062 697.117188 "/></g></g></svg>