<svg xmlns="http://www.w3.org/2000/svg" xmlns:xlink="http://www.w3.org/1999/xlink" width="1571" zoomAndPan="magnify" viewBox="0 0 1178.25 809.999993" height="1080" preserveAspectRatio="xMidYMid meet" version="1.2"><defs><clipPath id="a11ac028f0"><path d="M 791 55 L 1177.5 55 L 1177.5 93 L 791 93 Z M 791 55 "/></clipPath><clipPath id="349df41d9c"><path d="M 791 138 L 1177.5 138 L 1177.5 176 L 791 176 Z M 791 138 "/></clipPath><clipPath id="cad8c5b271"><path d="M 791 221 L 1177.5 221 L 1177.5 258 L 791 258 Z M 791 221 "/></clipPath><clipPath id="f3c6e9e677"><path d="M 791 303 L 1177.5 303 L 1177.5 341 L 791 341 Z M 791 303 "/></clipPath><clipPath id="a05590b959"><path d="M 791 386 L 1177.5 386 L 1177.5 424 L 791 424 Z M 791 386 "/></clipPath><clipPath id="612570be93"><path d="M 0 0.257812 L 540 0.257812 L 540 809.742188 L 0 809.742188 Z M 0 0.257812 "/></clipPath><clipPath id="a571678c7f"><path d="M 459 423 L 846 423 L 846 809.742188 L 459 809.742188 Z M 459 423 "/></clipPath></defs><g id="4762fbe14d"><path style=" stroke:none;fill-rule:nonzero;fill:#000000;fill-opacity:1;" d="M 682.582031 104.203125 C 689.023438 111.5625 700.0625 112.480469 707.421875 106.964844 L 755.257812 70.167969 C 763.535156 63.730469 764.457031 52.691406 758.9375 44.410156 C 752.496094 36.132812 741.457031 35.214844 733.179688 40.734375 L 699.140625 67.410156 L 694.542969 61.890625 C 688.101562 54.53125 676.144531 53.609375 668.785156 60.050781 C 661.425781 66.488281 660.503906 78.445312 666.945312 85.804688 C 666.945312 85.804688 682.582031 104.203125 682.582031 104.203125 Z M 682.582031 104.203125 "/><path style=" stroke:none;fill-rule:nonzero;fill:#000000;fill-opacity:1;" d="M 682.582031 186.992188 C 689.023438 194.351562 700.0625 195.269531 707.421875 189.75 L 755.257812 152.957031 C 763.535156 146.515625 764.457031 135.480469 758.9375 127.199219 C 752.496094 118.921875 741.457031 118 733.179688 123.519531 L 699.140625 150.195312 L 694.542969 144.675781 C 688.101562 137.320312 676.144531 136.398438 668.785156 142.835938 C 661.425781 149.277344 660.503906 161.234375 666.945312 168.59375 C 666.945312 168.59375 682.582031 186.992188 682.582031 186.992188 Z M 682.582031 186.992188 "/><path style=" stroke:none;fill-rule:nonzero;fill:#000000;fill-opacity:1;" d="M 682.582031 269.78125 C 689.023438 276.21875 700.0625 278.058594 707.421875 272.539062 L 755.257812 235.746094 C 763.535156 229.304688 764.457031 218.265625 758.9375 209.988281 C 752.496094 201.710938 741.457031 200.789062 733.179688 206.308594 L 699.140625 232.984375 L 694.542969 227.464844 C 688.101562 220.105469 676.144531 219.1875 668.785156 225.625 C 661.425781 232.066406 660.503906 244.023438 666.945312 251.382812 C 666.945312 251.382812 682.582031 269.78125 682.582031 269.78125 Z M 682.582031 269.78125 "/><path style=" stroke:none;fill-rule:nonzero;fill:#000000;fill-opacity:1;" d="M 682.582031 352.566406 C 689.023438 359.007812 700.0625 360.847656 707.421875 355.328125 L 755.257812 318.53125 C 763.535156 312.09375 764.457031 301.054688 758.9375 292.777344 C 752.496094 284.496094 741.457031 283.578125 733.179688 289.097656 L 699.140625 315.773438 L 694.542969 310.253906 C 688.101562 302.894531 676.144531 301.976562 668.785156 308.414062 C 661.425781 314.851562 660.503906 326.8125 666.945312 334.171875 C 666.945312 334.171875 682.582031 352.566406 682.582031 352.566406 Z M 682.582031 352.566406 "/><g clip-rule="nonzero" clip-path="url(#a11ac028f0)"><path style=" stroke:none;fill-rule:nonzero;fill:#000000;fill-opacity:1;" d="M 809.53125 92.246094 L 1159.101562 92.246094 C 1169.222656 92.246094 1177.5 83.964844 1177.5 73.847656 C 1177.5 63.730469 1169.222656 55.449219 1159.101562 55.449219 L 809.53125 55.449219 C 799.414062 55.449219 791.132812 63.730469 791.132812 73.847656 C 791.132812 83.964844 799.414062 92.246094 809.53125 92.246094 Z M 809.53125 92.246094 "/></g><g clip-rule="nonzero" clip-path="url(#349df41d9c)"><path style=" stroke:none;fill-rule:nonzero;fill:#000000;fill-opacity:1;" d="M 1159.101562 138.238281 L 809.53125 138.238281 C 799.414062 138.238281 791.132812 146.515625 791.132812 156.636719 C 791.132812 166.753906 799.414062 175.03125 809.53125 175.03125 L 1159.101562 175.03125 C 1169.222656 175.03125 1177.5 166.753906 1177.5 156.636719 C 1177.5 146.515625 1169.222656 138.238281 1159.101562 138.238281 Z M 1159.101562 138.238281 "/></g><g clip-rule="nonzero" clip-path="url(#cad8c5b271)"><path style=" stroke:none;fill-rule:nonzero;fill:#000000;fill-opacity:1;" d="M 1159.101562 221.027344 L 809.53125 221.027344 C 799.414062 221.027344 791.132812 229.304688 791.132812 239.425781 C 791.132812 249.542969 799.414062 257.820312 809.53125 257.820312 L 1159.101562 257.820312 C 1169.222656 257.820312 1177.5 249.542969 1177.5 239.425781 C 1177.5 229.304688 1169.222656 221.027344 1159.101562 221.027344 Z M 1159.101562 221.027344 "/></g><g clip-rule="nonzero" clip-path="url(#f3c6e9e677)"><path style=" stroke:none;fill-rule:nonzero;fill:#000000;fill-opacity:1;" d="M 1159.101562 303.816406 L 809.53125 303.816406 C 799.414062 303.816406 791.132812 312.09375 791.132812 322.210938 C 791.132812 332.332031 799.414062 340.609375 809.53125 340.609375 L 1159.101562 340.609375 C 1169.222656 340.609375 1177.5 332.332031 1177.5 322.210938 C 1177.5 312.09375 1169.222656 303.816406 1159.101562 303.816406 Z M 1159.101562 303.816406 "/></g><g clip-rule="nonzero" clip-path="url(#a05590b959)"><path style=" stroke:none;fill-rule:nonzero;fill:#000000;fill-opacity:1;" d="M 1159.101562 386.601562 L 809.53125 386.601562 C 799.414062 386.601562 791.132812 394.882812 791.132812 405 C 791.132812 415.117188 799.414062 423.398438 809.53125 423.398438 L 1159.101562 423.398438 C 1169.222656 423.398438 1177.5 415.117188 1177.5 405 C 1177.5 394.882812 1169.222656 386.601562 1159.101562 386.601562 Z M 1159.101562 386.601562 "/></g><path style=" stroke:none;fill-rule:nonzero;fill:#000000;fill-opacity:1;" d="M 734.097656 371.886719 L 702.820312 395.800781 C 714.78125 401.320312 724.898438 409.597656 732.257812 419.71875 L 756.175781 401.320312 C 764.457031 394.882812 765.375 383.84375 759.855469 375.5625 C 753.417969 367.285156 742.378906 365.445312 734.097656 371.886719 Z M 734.097656 371.886719 "/><g clip-rule="nonzero" clip-path="url(#612570be93)"><path style=" stroke:none;fill-rule:nonzero;fill:#000000;fill-opacity:1;" d="M 484.800781 772.945312 C 484.800781 772.945312 483.878906 772.945312 484.800781 772.945312 L 47.835938 772.945312 C 42.316406 772.945312 37.71875 768.347656 37.71875 761.910156 L 37.71875 589.894531 C 36.796875 518.144531 94.753906 460.191406 164.667969 460.191406 L 204.222656 460.191406 L 307.253906 592.652344 C 314.613281 601.851562 329.332031 601.851562 336.691406 592.652344 L 439.722656 460.191406 C 439.722656 460.191406 482.039062 460.191406 483.878906 460.191406 L 495.839844 448.234375 C 503.199219 440.875 512.398438 434.4375 521.597656 429.835938 C 507.796875 426.15625 493.078125 423.398438 477.441406 423.398438 L 431.445312 423.398438 C 429.605469 404.082031 432.363281 386.601562 436.964844 373.722656 C 445.242188 360.847656 450.761719 346.128906 454.441406 330.492188 C 456.28125 330.492188 481.121094 330.492188 481.121094 330.492188 C 509.636719 330.492188 531.714844 307.492188 531.714844 279.898438 L 531.714844 216.425781 C 531.714844 197.109375 520.675781 179.632812 504.117188 171.355469 L 504.117188 137.320312 C 505.957031 61.890625 436.964844 0.257812 353.25 0.257812 L 290.695312 0.257812 C 206.984375 0.257812 137.988281 61.890625 137.988281 137.320312 L 137.988281 171.355469 C 121.429688 179.632812 110.390625 197.109375 110.390625 216.425781 L 110.390625 279.898438 C 110.390625 308.414062 133.390625 330.492188 160.988281 330.492188 C 160.988281 330.492188 186.746094 330.492188 187.664062 330.492188 C 191.34375 346.128906 196.863281 360.847656 205.144531 373.722656 C 208.824219 386.601562 212.503906 403.160156 210.664062 423.398438 L 164.667969 423.398438 C 74.515625 423.398438 0 497.90625 0 589.894531 L 0 761.910156 C 0 787.664062 21.160156 809.742188 46.917969 809.742188 L 539.996094 809.742188 C 523.4375 806.0625 508.71875 797.785156 495.839844 784.90625 Z M 321.972656 551.257812 L 242.859375 450.074219 C 245.621094 439.035156 247.460938 428.917969 247.460938 418.796875 C 268.617188 433.515625 294.375 441.792969 321.054688 441.792969 C 347.730469 441.792969 373.488281 433.515625 394.648438 418.796875 C 395.566406 428.917969 396.488281 439.035156 399.246094 450.074219 Z M 423.164062 296.457031 C 423.164062 356.246094 378.089844 405 321.972656 405 C 265.859375 405 220.78125 356.246094 220.78125 296.457031 L 220.78125 181.472656 C 220.78125 152.957031 242.859375 129.039062 269.539062 129.039062 L 374.410156 129.039062 C 401.085938 129.039062 423.164062 152.035156 423.164062 181.472656 Z M 482.960938 202.628906 C 490.320312 202.628906 496.757812 209.066406 496.757812 216.425781 L 496.757812 279.898438 C 496.757812 287.257812 490.320312 293.695312 482.960938 293.695312 L 459.960938 293.695312 L 459.960938 202.628906 Z M 183.984375 294.617188 L 160.988281 294.617188 C 153.628906 294.617188 147.1875 288.175781 147.1875 280.816406 L 147.1875 217.347656 C 147.1875 209.988281 153.628906 203.550781 160.988281 203.550781 L 183.984375 203.550781 Z M 185.824219 165.835938 C 184.90625 165.835938 174.785156 165.835938 174.785156 165.835938 L 174.785156 137.320312 C 174.785156 82.125 227.222656 37.054688 290.695312 37.054688 L 353.25 37.054688 C 417.644531 37.054688 469.160156 82.125 469.160156 137.320312 L 469.160156 165.835938 C 469.160156 165.835938 459.042969 165.835938 459.042969 165.835938 C 451.683594 124.441406 416.726562 92.246094 375.328125 92.246094 L 269.539062 92.246094 C 227.222656 92.246094 192.265625 124.441406 185.824219 165.835938 Z M 185.824219 165.835938 "/></g><g clip-rule="nonzero" clip-path="url(#a571678c7f)"><path style=" stroke:none;fill-rule:nonzero;fill:#000000;fill-opacity:1;" d="M 803.09375 554.9375 C 816.890625 534.703125 815.050781 505.265625 795.734375 486.867188 L 783.773438 474.910156 C 773.65625 464.792969 758.9375 458.351562 745.136719 458.351562 C 734.097656 458.351562 723.980469 461.113281 715.699219 467.550781 C 711.101562 441.792969 688.101562 423.398438 661.425781 423.398438 L 643.945312 423.398438 C 617.269531 423.398438 595.191406 441.792969 590.589844 466.632812 C 582.3125 461.113281 572.191406 457.433594 561.152344 457.433594 C 546.433594 457.433594 532.636719 462.953125 522.515625 473.988281 L 510.558594 485.949219 C 491.238281 504.34375 489.398438 533.78125 503.199219 554.019531 C 478.359375 558.617188 459.960938 581.613281 459.960938 608.289062 L 459.960938 625.769531 C 459.960938 652.445312 478.359375 674.519531 503.199219 679.121094 C 488.480469 699.359375 491.238281 728.792969 510.558594 747.191406 L 522.515625 759.148438 C 532.636719 769.265625 547.355469 775.707031 561.152344 775.707031 C 572.191406 775.707031 582.3125 772.945312 590.589844 766.507812 C 595.191406 791.34375 617.269531 809.742188 643.945312 809.742188 L 661.425781 809.742188 C 688.101562 809.742188 710.179688 791.34375 714.78125 766.507812 C 723.058594 772.027344 733.179688 775.707031 744.21875 775.707031 C 758.9375 775.707031 772.734375 770.1875 782.855469 759.148438 L 794.8125 747.191406 C 814.132812 727.875 815.972656 699.359375 802.171875 679.121094 C 827.011719 674.519531 845.410156 652.445312 845.410156 625.769531 L 845.410156 608.289062 C 846.328125 581.613281 827.929688 558.617188 803.09375 554.9375 Z M 809.53125 624.847656 C 809.53125 634.046875 802.171875 642.324219 793.894531 642.324219 L 779.175781 642.324219 C 774.574219 642.324219 771.816406 645.085938 769.976562 649.683594 C 767.214844 658.882812 763.535156 668.082031 758.9375 676.359375 C 757.097656 680.039062 757.097656 684.640625 760.777344 687.398438 L 770.894531 697.519531 C 777.335938 703.957031 776.414062 714.074219 769.976562 720.515625 L 758.015625 732.472656 C 751.578125 738.910156 741.457031 740.75 735.019531 733.394531 C 735.019531 733.394531 724.898438 723.273438 724.898438 723.273438 C 722.140625 720.515625 717.539062 719.59375 713.859375 721.433594 C 705.582031 726.035156 697.300781 729.714844 687.183594 732.472656 C 683.503906 733.394531 679.824219 737.070312 679.824219 741.671875 L 679.824219 756.390625 C 679.824219 764.667969 672.464844 772.027344 662.34375 772.027344 L 644.867188 772.027344 C 635.667969 772.027344 627.386719 764.667969 627.386719 756.390625 L 627.386719 741.671875 C 627.386719 737.070312 624.628906 733.394531 620.027344 732.472656 C 610.828125 729.714844 601.628906 726.035156 593.351562 721.433594 C 589.671875 719.59375 585.070312 719.59375 582.3125 723.273438 C 582.3125 723.273438 572.191406 733.394531 572.191406 733.394531 C 565.753906 739.832031 554.714844 737.992188 549.195312 732.472656 L 537.234375 720.515625 C 530.796875 714.074219 529.875 703.035156 535.394531 697.519531 L 545.515625 687.398438 C 548.273438 684.640625 549.195312 680.039062 547.355469 676.359375 C 542.753906 668.082031 539.074219 658.882812 536.316406 649.683594 C 535.394531 646.003906 531.714844 642.324219 527.117188 642.324219 L 512.398438 642.324219 C 504.117188 642.324219 496.757812 634.96875 496.757812 624.847656 L 496.757812 607.371094 C 496.757812 598.171875 504.117188 589.894531 512.398438 589.894531 L 527.117188 589.894531 C 531.714844 589.894531 535.394531 587.132812 536.316406 582.535156 C 539.074219 573.335938 542.753906 564.136719 547.355469 555.859375 C 549.195312 552.179688 549.195312 547.578125 545.515625 544.820312 L 535.394531 534.703125 C 528.957031 528.261719 529.875 518.144531 537.234375 511.703125 C 537.234375 511.703125 549.195312 499.746094 549.195312 499.746094 C 554.714844 493.308594 565.753906 491.46875 572.191406 498.828125 C 572.191406 498.828125 582.3125 508.945312 582.3125 508.945312 C 585.070312 511.703125 589.671875 512.625 593.351562 510.785156 C 601.628906 506.183594 610.828125 502.503906 620.027344 499.746094 C 623.707031 498.828125 627.386719 495.148438 627.386719 490.546875 L 627.386719 475.828125 C 627.386719 467.550781 634.746094 460.191406 644.867188 460.191406 L 662.34375 460.191406 C 671.542969 460.191406 679.824219 466.632812 679.824219 475.828125 L 679.824219 490.546875 C 679.824219 495.148438 682.582031 498.828125 687.183594 499.746094 C 696.382812 502.507812 705.582031 506.183594 713.859375 510.785156 C 717.539062 512.625 722.140625 512.625 724.898438 508.945312 C 724.898438 508.945312 735.019531 498.828125 735.019531 498.828125 C 741.457031 492.386719 752.496094 494.226562 758.015625 499.746094 L 769.976562 511.703125 C 776.414062 518.144531 777.335938 529.183594 770.894531 534.703125 L 760.777344 544.820312 C 758.015625 547.578125 757.097656 552.179688 758.9375 555.859375 C 763.535156 564.136719 767.214844 573.335938 769.976562 582.535156 C 770.894531 586.214844 774.574219 589.894531 779.175781 589.894531 L 793.894531 589.894531 C 802.171875 589.894531 809.53125 597.253906 809.53125 607.371094 Z M 809.53125 624.847656 "/></g><path style=" stroke:none;fill-rule:nonzero;fill:#000000;fill-opacity:1;" d="M 653.144531 542.980469 C 612.667969 542.980469 579.550781 576.09375 579.550781 616.570312 C 579.550781 657.042969 612.667969 690.160156 653.144531 690.160156 C 693.621094 690.160156 726.738281 657.042969 726.738281 616.570312 C 726.738281 576.09375 693.621094 542.980469 653.144531 542.980469 Z M 653.144531 653.363281 C 632.90625 653.363281 616.347656 636.804688 616.347656 616.570312 C 616.347656 596.332031 632.90625 579.773438 653.144531 579.773438 C 673.382812 579.773438 689.941406 596.332031 689.941406 616.570312 C 689.941406 636.804688 673.382812 653.363281 653.144531 653.363281 Z M 653.144531 653.363281 "/><path style=" stroke:none;fill-rule:nonzero;fill:#000000;fill-opacity:1;" d="M 340.371094 653.363281 C 340.371094 653.964844 340.339844 654.566406 340.28125 655.167969 C 340.222656 655.765625 340.136719 656.363281 340.019531 656.953125 C 339.898438 657.542969 339.753906 658.128906 339.578125 658.703125 C 339.402344 659.28125 339.203125 659.847656 338.96875 660.40625 C 338.738281 660.960938 338.484375 661.503906 338.199219 662.035156 C 337.914062 662.566406 337.605469 663.085938 337.269531 663.585938 C 336.9375 664.085938 336.578125 664.570312 336.195312 665.035156 C 335.8125 665.5 335.410156 665.945312 334.980469 666.371094 C 334.554688 666.800781 334.109375 667.203125 333.644531 667.585938 C 333.179688 667.96875 332.695312 668.328125 332.195312 668.660156 C 331.695312 668.996094 331.175781 669.304688 330.644531 669.589844 C 330.113281 669.875 329.570312 670.128906 329.011719 670.359375 C 328.457031 670.589844 327.890625 670.792969 327.3125 670.96875 C 326.738281 671.144531 326.152344 671.289062 325.5625 671.40625 C 324.972656 671.527344 324.375 671.613281 323.777344 671.671875 C 323.175781 671.730469 322.574219 671.761719 321.972656 671.761719 C 321.371094 671.761719 320.769531 671.730469 320.167969 671.671875 C 319.570312 671.613281 318.972656 671.527344 318.382812 671.40625 C 317.792969 671.289062 317.207031 671.144531 316.632812 670.96875 C 316.054688 670.792969 315.488281 670.589844 314.933594 670.359375 C 314.375 670.128906 313.832031 669.875 313.300781 669.589844 C 312.769531 669.304688 312.253906 668.996094 311.75 668.660156 C 311.25 668.328125 310.765625 667.96875 310.300781 667.585938 C 309.835938 667.203125 309.390625 666.800781 308.964844 666.371094 C 308.535156 665.945312 308.132812 665.5 307.75 665.035156 C 307.367188 664.570312 307.011719 664.085938 306.675781 663.585938 C 306.339844 663.085938 306.03125 662.566406 305.746094 662.035156 C 305.460938 661.503906 305.207031 660.960938 304.976562 660.40625 C 304.746094 659.847656 304.542969 659.28125 304.367188 658.703125 C 304.191406 658.128906 304.046875 657.542969 303.929688 656.953125 C 303.808594 656.363281 303.722656 655.765625 303.664062 655.167969 C 303.605469 654.566406 303.574219 653.964844 303.574219 653.363281 C 303.574219 652.761719 303.605469 652.160156 303.664062 651.5625 C 303.722656 650.960938 303.808594 650.367188 303.929688 649.773438 C 304.046875 649.183594 304.191406 648.601562 304.367188 648.023438 C 304.542969 647.445312 304.746094 646.878906 304.976562 646.324219 C 305.207031 645.765625 305.460938 645.222656 305.746094 644.691406 C 306.03125 644.160156 306.339844 643.644531 306.675781 643.144531 C 307.011719 642.640625 307.367188 642.160156 307.75 641.691406 C 308.132812 641.226562 308.535156 640.78125 308.964844 640.355469 C 309.390625 639.929688 309.835938 639.523438 310.300781 639.144531 C 310.765625 638.761719 311.25 638.402344 311.75 638.066406 C 312.253906 637.734375 312.769531 637.421875 313.300781 637.140625 C 313.832031 636.855469 314.375 636.597656 314.933594 636.367188 C 315.488281 636.136719 316.054688 635.933594 316.632812 635.757812 C 317.207031 635.585938 317.792969 635.4375 318.382812 635.320312 C 318.972656 635.203125 319.570312 635.113281 320.167969 635.054688 C 320.769531 634.996094 321.371094 634.96875 321.972656 634.96875 C 322.574219 634.96875 323.175781 634.996094 323.777344 635.054688 C 324.375 635.113281 324.972656 635.203125 325.5625 635.320312 C 326.152344 635.4375 326.738281 635.585938 327.3125 635.757812 C 327.890625 635.933594 328.457031 636.136719 329.011719 636.367188 C 329.570312 636.597656 330.113281 636.855469 330.644531 637.140625 C 331.175781 637.421875 331.695312 637.734375 332.195312 638.066406 C 332.695312 638.402344 333.179688 638.761719 333.644531 639.144531 C 334.109375 639.523438 334.554688 639.929688 334.980469 640.355469 C 335.410156 640.78125 335.8125 641.226562 336.195312 641.691406 C 336.578125 642.160156 336.9375 642.640625 337.269531 643.144531 C 337.605469 643.644531 337.914062 644.160156 338.199219 644.691406 C 338.484375 645.222656 338.738281 645.765625 338.96875 646.324219 C 339.203125 646.878906 339.402344 647.445312 339.578125 648.023438 C 339.753906 648.601562 339.898438 649.183594 340.019531 649.773438 C 340.136719 650.367188 340.222656 650.960938 340.28125 651.5625 C 340.339844 652.160156 340.371094 652.761719 340.371094 653.363281 Z M 340.371094 653.363281 "/><path style=" stroke:none;fill-rule:nonzero;fill:#000000;fill-opacity:1;" d="M 1079.988281 471.230469 C 1077.230469 464.792969 1071.710938 461.113281 1065.269531 460.191406 C 1058.832031 459.273438 1052.390625 462.03125 1048.710938 467.550781 L 1013.753906 513.542969 C 1007.316406 521.824219 1009.15625 532.863281 1017.433594 539.300781 C 1023.875 543.898438 1031.234375 543.898438 1037.671875 540.21875 C 1008.234375 686.480469 886.804688 699.359375 881.285156 699.359375 C 871.167969 700.277344 863.808594 709.476562 864.726562 719.59375 C 865.648438 728.792969 873.925781 736.152344 883.125 736.152344 C 884.046875 736.152344 884.046875 736.152344 884.964844 736.152344 C 886.804688 736.152344 1040.433594 721.433594 1074.46875 545.738281 C 1078.148438 548.5 1081.828125 550.339844 1085.507812 550.339844 C 1098.386719 550.339844 1107.585938 536.542969 1102.066406 524.582031 Z M 1079.988281 471.230469 "/></g></svg>